<?xml version="1.0" standalone="no"?>
<!DOCTYPE svg PUBLIC "-//W3C//DTD SVG 1.1//EN" "http://www.w3.org/Graphics/SVG/1.1/DTD/svg11.dtd" >
<svg xmlns="http://www.w3.org/2000/svg" xmlns:xlink="http://www.w3.org/1999/xlink" version="1.1">
<metadata>
Created by FontForge 20190801 at Fri Sep  7 15:58:00 2018
 By Jimmy Wärting
Copyright 2018 The Kodchasan Project Authors (https://github.com/cadsondemak/Kodchasan)
</metadata>
<defs>
<font id="Kodchasan-ExtraLightItalic" horiz-adv-x="0" >
  <font-face 
    font-family="Kodchasan ExtraLight"
    font-weight="275"
    font-style="italic"
    font-stretch="normal"
    units-per-em="1000"
    panose-1="0 0 3 0 0 0 0 0 0 0"
    ascent="800"
    descent="-200"
    x-height="499"
    cap-height="710"
    bbox="-593 -469 1231 1171"
    underline-thickness="50"
    underline-position="-100"
    slope="-10"
    unicode-range="U+000D-FB02"
  />
<missing-glyph horiz-adv-x="729" 
d="M94 848h536v-848h-536v848zM581 50v748h-439v-748h439z" />
    <glyph glyph-name="fi" unicode="fi" horiz-adv-x="623" 
d="M286 656q-45 -35 -56 -95l-11 -61h337q22 0 22 -23l-1 -9l-79 -446q-6 -32 -32 -32q-20 0 -20 21q0 7 1 11l77 433h-313l-76 -433q-6 -32 -31 -32q-21 0 -21 21q0 7 1 11l76 433h-58q-14 0 -20.5 4t-6.5 13q0 13 9 20.5t26 7.5h58l10 57q15 86 75 134t153 48
q54 0 99.5 -19t76.5 -56q6 -7 6 -14q0 -10 -11 -19q-5 -4 -14 -4q-14 0 -25 11q-26 28 -59.5 40.5t-80.5 12.5q-67 0 -112 -35z" />
    <glyph glyph-name="fl" unicode="fl" horiz-adv-x="643" 
d="M83 11q0 7 1 11l76 433h-58q-14 0 -20.5 4t-6.5 13q0 28 35 28h58l10 57q16 89 74 135.5t154 46.5q53 0 100 -15.5t79 -43.5q11 -11 16.5 -24t3.5 -24l-107 -610q-6 -32 -32 -32q-20 0 -20 21q0 7 1 11l76 433h-312l-76 -433q-6 -32 -31 -32q-21 0 -21 21zM531 500
l24 140q-47 51 -157 51q-71 0 -114.5 -33.5t-53.5 -96.5l-11 -61h312z" />
    <glyph glyph-name="uni0E240E45" unicode="&#xe24;&#xe45;" horiz-adv-x="990" 
d="M902 547q44 -37 44 -106q0 -27 -4 -43l-113 -636q-2 -15 -10.5 -23.5t-21.5 -8.5q-21 0 -21 22q0 8 1 10l113 636q3 20 3 36q0 50 -31.5 76t-92.5 26q-85 0 -167 -50l-3 -2q17 -39 17 -89q0 -29 -6 -64l-100 -569q-2 -15 -10.5 -23.5t-21.5 -8.5q-21 0 -21 22q0 8 1 10
l101 571q5 33 5 55q0 73 -42.5 110.5t-125.5 37.5q-85 0 -159 -44.5t-106 -115.5l63 -50q10 8 27.5 16t31.5 12l10 2q14 0 14 -21q0 -11 -4 -16.5t-14 -8.5q-41 -11 -66.5 -39t-32.5 -68l-9 -52q10 7 26.5 11.5t31.5 4.5q38 0 61 -20t23 -52q0 -46 -33.5 -75.5t-85.5 -29.5
q-40 0 -64 20.5t-24 55.5q0 12 2 22l20 115q9 54 45 87l-61 49q-17 13 -17 22q0 1 4 15q24 61 73 108.5t114 73.5t137 26q117 0 172 -63q45 31 97 47t105 16q81 0 125 -37zM149 111q-17 -15 -17 -42q0 -17 13 -26.5t36 -9.5q32 0 49 14.5t17 40.5q0 18 -13.5 28t-36.5 10
q-31 0 -48 -15z" />
    <glyph glyph-name="uni0E260E45" unicode="&#xe26;&#xe45;" horiz-adv-x="1020" 
d="M932 547q44 -37 44 -106q0 -24 -4 -43l-113 -636q-2 -16 -10.5 -24t-21.5 -8q-21 0 -21 22q0 7 1 10l113 636q3 20 3 36q0 50 -31.5 76t-92.5 26q-83 0 -166 -49q19 -43 19 -93q0 -30 -6 -63l-100 -570q-6 -32 -32 -32q-21 0 -21 21q0 8 1 11l101 572q6 33 6 61
q0 73 -42 107.5t-129 34.5q-86 0 -161 -45t-106 -115l86 -50q10 8 27.5 16t31.5 12l10 2q14 0 14 -22q0 -10 -4 -15.5t-14 -8.5q-29 -9 -44.5 -27.5t-21.5 -52.5l-26 -147q-7 -45 -38 -69t-80 -24q-39 0 -64.5 20.5t-25.5 52.5q0 45 31.5 74.5t79.5 29.5q15 0 31 -4.5
t26 -11.5l14 79q7 35 19 57l-91 52q-18 10 -18 20q0 6 5 17q24 61 73.5 108.5t115.5 73.5t138 26q115 0 170 -61q92 61 199 61q81 0 125 -37zM157 48q18 15 18 40q0 18 -13 28t-36 10q-30 0 -48 -15.5t-18 -41.5q0 -36 50 -36q29 0 47 15z" />
    <glyph glyph-name=".notdef" horiz-adv-x="729" 
d="M94 848h536v-848h-536v848zM581 50v748h-439v-748h439z" />
    <glyph glyph-name="NULL" 
 />
    <glyph glyph-name="NULL" 
 />
    <glyph glyph-name="nonmarkingreturn" unicode="&#xd;" horiz-adv-x="268" 
 />
    <glyph glyph-name="space" unicode=" " horiz-adv-x="268" 
 />
    <glyph glyph-name="A" unicode="A" horiz-adv-x="738" 
d="M49 11q0 7 1 11l72 407q50 281 325 281q113 0 176 -57.5t63 -159.5q0 -29 -6 -64l-72 -407q-6 -32 -32 -32q-22 0 -22 22q0 6 1 10l44 248h-452l-44 -248q-6 -32 -33 -32q-21 0 -21 21zM607 317l20 115q6 35 6 64q0 165 -191 165q-114 0 -180.5 -57t-86.5 -172l-20 -115
h452z" />
    <glyph glyph-name="Aacute" unicode="&#xc1;" horiz-adv-x="738" 
d="M49 11q0 7 1 11l72 407q50 281 325 281q113 0 176 -57.5t63 -159.5q0 -29 -6 -64l-72 -407q-6 -32 -32 -32q-22 0 -22 22q0 6 1 10l44 248h-452l-44 -248q-6 -32 -33 -32q-21 0 -21 21zM607 317l20 115q6 35 6 64q0 165 -191 165q-114 0 -180.5 -57t-86.5 -172l-20 -115
h452zM446 806q0 7 5 15l88 139q16 24 30 24q6 0 13 -4q12 -7 12 -17q0 -8 -9 -20l-102 -137q-11 -14 -22 -14q-2 0 -8 2q-7 3 -7 12z" />
    <glyph glyph-name="Abreve" unicode="&#x102;" horiz-adv-x="738" 
d="M49 11q0 7 1 11l72 407q50 281 325 281q113 0 176 -57.5t63 -159.5q0 -29 -6 -64l-72 -407q-6 -32 -32 -32q-22 0 -22 22q0 6 1 10l44 248h-452l-44 -248q-6 -32 -33 -32q-21 0 -21 21zM607 317l20 115q6 35 6 64q0 165 -191 165q-114 0 -180.5 -57t-86.5 -172l-20 -115
h452zM376.5 824q-30.5 32 -30.5 80q0 59 32 59q20 0 20 -20q0 -54 4.5 -75.5t18.5 -28t50 -6.5q47 0 74 26.5t35 71.5q6 32 30 32q20 0 20 -20q0 -38 -24 -73t-62.5 -56.5t-79.5 -21.5q-57 0 -87.5 32z" />
    <glyph glyph-name="uni1EAE" unicode="&#x1eae;" horiz-adv-x="738" 
d="M49 11q0 7 1 11l72 407q50 281 325 281q113 0 176 -57.5t63 -159.5q0 -29 -6 -64l-72 -407q-6 -32 -32 -32q-22 0 -22 22q0 6 1 10l44 248h-452l-44 -248q-6 -32 -33 -32q-21 0 -21 21zM607 317l20 115q6 35 6 64q0 165 -191 165q-114 0 -180.5 -57t-86.5 -172l-20 -115
h452zM462 918q0 7 8 17l78 101q16 19 28 19q5 0 13 -4q11 -7 11 -16t-10 -21l-92 -98q-10 -12 -19 -12q-5 0 -9 3q-8 5 -8 11zM370 809.5q-31 29.5 -31 68.5q0 45 31 45q20 0 20 -18q0 -37 6 -54t22 -23.5t50 -6.5q47 0 73 21t31 50q3 17 9.5 24t20.5 7q20 0 20 -18
q0 -29 -21.5 -58t-58.5 -48t-82 -19q-59 0 -90 29.5z" />
    <glyph glyph-name="uni1EB6" unicode="&#x1eb6;" horiz-adv-x="738" 
d="M49 11q0 7 1 11l72 407q50 281 325 281q113 0 176 -57.5t63 -159.5q0 -29 -6 -64l-72 -407q-6 -32 -32 -32q-22 0 -22 22q0 6 1 10l44 248h-452l-44 -248q-6 -32 -33 -32q-21 0 -21 21zM607 317l20 115q6 35 6 64q0 165 -191 165q-114 0 -180.5 -57t-86.5 -172l-20 -115
h452zM271.5 -145.5q-10.5 10.5 -10.5 25.5q0 18 16 33.5t35 15.5q14 0 24.5 -10.5t10.5 -25.5q0 -18 -15.5 -33.5t-34.5 -15.5q-15 0 -25.5 10.5zM376.5 824q-30.5 32 -30.5 80q0 59 32 59q20 0 20 -20q0 -54 4.5 -75.5t18.5 -28t50 -6.5q47 0 74 26.5t35 71.5q6 32 30 32
q20 0 20 -20q0 -38 -24 -73t-62.5 -56.5t-79.5 -21.5q-57 0 -87.5 32z" />
    <glyph glyph-name="uni1EB0" unicode="&#x1eb0;" horiz-adv-x="738" 
d="M49 11q0 7 1 11l72 407q50 281 325 281q113 0 176 -57.5t63 -159.5q0 -29 -6 -64l-72 -407q-6 -32 -32 -32q-22 0 -22 22q0 6 1 10l44 248h-452l-44 -248q-6 -32 -33 -32q-21 0 -21 21zM607 317l20 115q6 35 6 64q0 165 -191 165q-114 0 -180.5 -57t-86.5 -172l-20 -115
h452zM487 904q-10 0 -16 12l-56 98q-4 8 -4 14q0 15 17 23q10 4 14 4q12 0 22 -19l43 -101q2 -6 2 -10q0 -13 -12 -18q-6 -3 -10 -3zM371 809.5q-31 29.5 -31 68.5q0 45 31 45q20 0 20 -18q0 -37 6 -54t22 -23.5t50 -6.5q47 0 73 21t31 50q3 17 9.5 24t20.5 7q20 0 20 -18
q0 -29 -21.5 -58t-58.5 -48t-82 -19q-59 0 -90 29.5z" />
    <glyph glyph-name="uni1EB2" unicode="&#x1eb2;" horiz-adv-x="738" 
d="M49 11q0 7 1 11l72 407q50 281 325 281q113 0 176 -57.5t63 -159.5q0 -29 -6 -64l-72 -407q-6 -32 -32 -32q-22 0 -22 22q0 6 1 10l44 248h-452l-44 -248q-6 -32 -33 -32q-21 0 -21 21zM607 317l20 115q6 35 6 64q0 165 -191 165q-114 0 -180.5 -57t-86.5 -172l-20 -115
h452zM464 895.5q-4 5.5 -2 17.5l1 8q2 17 13.5 28t31.5 24q20 14 29 23t9 23q0 26 -35 26t-54 -21q-5 -6 -9.5 -10t-9.5 -4q-3 0 -9 3q-10 6 -10 14t5 13q15 19 39.5 31t54.5 12q36 0 53 -15.5t17 -40.5q0 -26 -11.5 -40t-34.5 -30q-15 -9 -23 -17t-8 -20v-7
q-5 -12 -12 -17.5t-19 -5.5t-16 5.5zM371 809.5q-31 29.5 -31 68.5q0 45 31 45q20 0 20 -18q0 -37 6 -54t22 -23.5t50 -6.5q47 0 73 21t31 50q3 17 9.5 24t20.5 7q20 0 20 -18q0 -29 -21.5 -58t-58.5 -48t-82 -19q-59 0 -90 29.5z" />
    <glyph glyph-name="uni1EB4" unicode="&#x1eb4;" horiz-adv-x="738" 
d="M49 11q0 7 1 11l72 407q50 281 325 281q113 0 176 -57.5t63 -159.5q0 -29 -6 -64l-72 -407q-6 -32 -32 -32q-22 0 -22 22q0 6 1 10l44 248h-452l-44 -248q-6 -32 -33 -32q-21 0 -21 21zM607 317l20 115q6 35 6 64q0 165 -191 165q-114 0 -180.5 -57t-86.5 -172l-20 -115
h452zM344 983q0 6 3 16q9 30 36.5 50.5t58.5 20.5q22 0 37 -8t35 -23q14 -12 24.5 -18t23.5 -6q18 0 31.5 11.5t21.5 30.5t21 19q5 0 8 -1q11 -3 11 -12q0 -5 -3 -16q-9 -30 -36.5 -50.5t-58.5 -20.5q-20 0 -33.5 7t-32.5 22q-15 13 -26.5 19.5t-26.5 6.5q-18 0 -32 -12
t-22 -31q-7 -18 -21 -18q-19 0 -19 13zM371 809.5q-31 29.5 -31 68.5q0 45 31 45q20 0 20 -18q0 -37 6 -54t22 -23.5t50 -6.5q47 0 73 21t31 50q3 17 9.5 24t20.5 7q20 0 20 -18q0 -29 -21.5 -58t-58.5 -48t-82 -19q-59 0 -90 29.5z" />
    <glyph glyph-name="uni01CD" unicode="&#x1cd;" horiz-adv-x="738" 
d="M49 11q0 7 1 11l72 407q50 281 325 281q113 0 176 -57.5t63 -159.5q0 -29 -6 -64l-72 -407q-6 -32 -32 -32q-22 0 -22 22q0 6 1 10l44 248h-452l-44 -248q-6 -32 -33 -32q-21 0 -21 21zM607 317l20 115q6 35 6 64q0 165 -191 165q-114 0 -180.5 -57t-86.5 -172l-20 -115
h452zM442 806l-84 126q-5 8 -5 15q0 12 16 22q6 5 15 5q12 0 21 -16l68 -117l109 117q15 17 29 17q5 0 12 -5q8 -7 8 -16q0 -11 -11 -22l-128 -126q-14 -15 -28 -15q-12 0 -22 15z" />
    <glyph glyph-name="Acircumflex" unicode="&#xc2;" horiz-adv-x="738" 
d="M49 11q0 7 1 11l72 407q50 281 325 281q113 0 176 -57.5t63 -159.5q0 -29 -6 -64l-72 -407q-6 -32 -32 -32q-22 0 -22 22q0 6 1 10l44 248h-452l-44 -248q-6 -32 -33 -32q-21 0 -21 21zM607 317l20 115q6 35 6 64q0 165 -191 165q-114 0 -180.5 -57t-86.5 -172l-20 -115
h452zM329 812q0 10 12 22l128 126q15 15 28 15q12 0 22 -15l83 -126q5 -8 5 -15q0 -13 -15 -22q-8 -5 -16 -5q-12 0 -21 16l-67 117l-109 -117q-14 -17 -28 -17q-8 0 -13 5q-9 8 -9 16z" />
    <glyph glyph-name="uni1EA4" unicode="&#x1ea4;" horiz-adv-x="738" 
d="M49 11q0 7 1 11l72 407q50 281 325 281q113 0 176 -57.5t63 -159.5q0 -29 -6 -64l-72 -407q-6 -32 -32 -32q-22 0 -22 22q0 6 1 10l44 248h-452l-44 -248q-6 -32 -33 -32q-21 0 -21 21zM607 317l20 115q6 35 6 64q0 165 -191 165q-114 0 -180.5 -57t-86.5 -172l-20 -115
h452zM575 934q0 8 7 17l78 101q16 19 29 19q4 0 12 -4q12 -7 12 -16q0 -10 -11 -21l-91 -98q-10 -12 -20 -12q-4 0 -9 3q-7 4 -7 11zM329 813q0 11 12 21l125 109q17 15 27 15q7 0 12 -3.5t11 -11.5l86 -108q5 -6 5 -15q0 -14 -15 -23q-8 -5 -14 -5q-11 0 -23 17l-70 99
l-106 -100q-16 -16 -28 -16q-6 0 -13 5q-9 8 -9 16z" />
    <glyph glyph-name="uni1EAC" unicode="&#x1eac;" horiz-adv-x="738" 
d="M49 11q0 7 1 11l72 407q50 281 325 281q113 0 176 -57.5t63 -159.5q0 -29 -6 -64l-72 -407q-6 -32 -32 -32q-22 0 -22 22q0 6 1 10l44 248h-452l-44 -248q-6 -32 -33 -32q-21 0 -21 21zM607 317l20 115q6 35 6 64q0 165 -191 165q-114 0 -180.5 -57t-86.5 -172l-20 -115
h452zM271.5 -145.5q-10.5 10.5 -10.5 25.5q0 18 16 33.5t35 15.5q14 0 24.5 -10.5t10.5 -25.5q0 -18 -15.5 -33.5t-34.5 -15.5q-15 0 -25.5 10.5zM329 812q0 10 12 22l128 126q15 15 28 15q12 0 22 -15l83 -126q5 -8 5 -15q0 -13 -15 -22q-8 -5 -16 -5q-12 0 -21 16l-67 117
l-109 -117q-14 -17 -28 -17q-8 0 -13 5q-9 8 -9 16z" />
    <glyph glyph-name="uni1EA6" unicode="&#x1ea6;" horiz-adv-x="738" 
d="M49 11q0 7 1 11l72 407q50 281 325 281q113 0 176 -57.5t63 -159.5q0 -29 -6 -64l-72 -407q-6 -32 -32 -32q-22 0 -22 22q0 6 1 10l44 248h-452l-44 -248q-6 -32 -33 -32q-21 0 -21 21zM607 317l20 115q6 35 6 64q0 165 -191 165q-114 0 -180.5 -57t-86.5 -172l-20 -115
h452zM630 920q-9 0 -15 12l-57 98q-4 8 -4 14q0 14 18 23q10 4 14 4q14 0 22 -19l42 -101q2 -6 2 -11q0 -10 -12 -17q-6 -3 -10 -3zM329 813q0 11 12 21l125 109q17 15 27 15q8 0 12.5 -3t10.5 -11l87 -109q5 -7 5 -14q0 -13 -16 -24q-8 -5 -14 -5q-11 0 -23 17l-70 99
l-106 -100q-16 -16 -28 -16q-6 0 -13 5q-9 8 -9 16z" />
    <glyph glyph-name="uni1EA8" unicode="&#x1ea8;" horiz-adv-x="738" 
d="M49 11q0 7 1 11l72 407q50 281 325 281q113 0 176 -57.5t63 -159.5q0 -29 -6 -64l-72 -407q-6 -32 -32 -32q-22 0 -22 22q0 6 1 10l44 248h-452l-44 -248q-6 -32 -33 -32q-21 0 -21 21zM607 317l20 115q6 35 6 64q0 165 -191 165q-114 0 -180.5 -57t-86.5 -172l-20 -115
h452zM562 932q0 5 1 8l2 8q4 15 14.5 25.5t29.5 24.5q19 13 28.5 23.5t9.5 24.5q0 26 -35 26q-19 0 -31.5 -5.5t-22.5 -16.5q-10 -13 -19 -13q-5 0 -9 3q-10 5 -10 13q0 7 6 14q15 19 38.5 31t54.5 12q36 0 53 -15.5t17 -40.5q0 -27 -12 -41.5t-35 -28.5
q-16 -11 -23.5 -18.5t-9.5 -18.5l-1 -7q-2 -12 -8 -17.5t-19 -5.5q-19 0 -19 15zM329 813q0 11 12 21l125 109q17 15 27 15q8 0 12.5 -3t10.5 -11l87 -109q5 -7 5 -14q0 -13 -16 -24q-8 -5 -14 -5q-11 0 -23 17l-70 99l-106 -100q-16 -16 -28 -16q-6 0 -13 5q-9 8 -9 16z
" />
    <glyph glyph-name="uni1EAA" unicode="&#x1eaa;" horiz-adv-x="738" 
d="M49 11q0 7 1 11l72 407q50 281 325 281q113 0 176 -57.5t63 -159.5q0 -29 -6 -64l-72 -407q-6 -32 -32 -32q-22 0 -22 22q0 6 1 10l44 248h-452l-44 -248q-6 -32 -33 -32q-21 0 -21 21zM607 317l20 115q6 35 6 64q0 165 -191 165q-114 0 -180.5 -57t-86.5 -172l-20 -115
h452zM360.5 979.5q-3.5 3.5 -3.5 10.5l2 13q10 32 37 52.5t59 20.5q22 0 37 -8t35 -23q14 -12 24 -18t23 -6q36 0 54 43q7 18 21 18q19 0 19 -14q0 -5 -3 -14q-9 -31 -37 -51.5t-59 -20.5q-20 0 -33.5 7t-32.5 22q-15 13 -26.5 19.5t-26.5 6.5q-17 0 -31 -11.5t-22 -30.5
q-7 -19 -22 -19q-11 0 -14.5 3.5zM329 814q0 11 12 21l125 109q9 8 14.5 11.5t12.5 3.5q15 0 23 -15l86 -109q5 -6 5 -15q0 -12 -15 -23q-8 -5 -14 -5q-11 0 -23 17l-70 100l-106 -100q-16 -16 -28 -16q-6 0 -13 5q-9 8 -9 16z" />
    <glyph glyph-name="Adieresis" unicode="&#xc4;" horiz-adv-x="738" 
d="M49 11q0 7 1 11l72 407q50 281 325 281q113 0 176 -57.5t63 -159.5q0 -29 -6 -64l-72 -407q-6 -32 -32 -32q-22 0 -22 22q0 6 1 10l44 248h-452l-44 -248q-6 -32 -33 -32q-21 0 -21 21zM607 317l20 115q6 35 6 64q0 165 -191 165q-114 0 -180.5 -57t-86.5 -172l-20 -115
h452zM345.5 822.5q-10.5 10.5 -10.5 25.5q0 18 16 33.5t35 15.5q14 0 24.5 -10.5t10.5 -25.5q0 -18 -15.5 -33.5t-34.5 -15.5q-15 0 -25.5 10.5zM541.5 822.5q-10.5 10.5 -10.5 25.5q0 18 16 33.5t35 15.5q14 0 24.5 -10.5t10.5 -25.5q0 -18 -15.5 -33.5t-34.5 -15.5
q-15 0 -25.5 10.5z" />
    <glyph glyph-name="uni1EA0" unicode="&#x1ea0;" horiz-adv-x="738" 
d="M49 11q0 7 1 11l72 407q50 281 325 281q113 0 176 -57.5t63 -159.5q0 -29 -6 -64l-72 -407q-6 -32 -32 -32q-22 0 -22 22q0 6 1 10l44 248h-452l-44 -248q-6 -32 -33 -32q-21 0 -21 21zM607 317l20 115q6 35 6 64q0 165 -191 165q-114 0 -180.5 -57t-86.5 -172l-20 -115
h452zM271.5 -145.5q-10.5 10.5 -10.5 25.5q0 18 16 33.5t35 15.5q14 0 24.5 -10.5t10.5 -25.5q0 -18 -15.5 -33.5t-34.5 -15.5q-15 0 -25.5 10.5z" />
    <glyph glyph-name="Agrave" unicode="&#xc0;" horiz-adv-x="738" 
d="M49 11q0 7 1 11l72 407q50 281 325 281q113 0 176 -57.5t63 -159.5q0 -29 -6 -64l-72 -407q-6 -32 -32 -32q-22 0 -22 22q0 6 1 10l44 248h-452l-44 -248q-6 -32 -33 -32q-21 0 -21 21zM607 317l20 115q6 35 6 64q0 165 -191 165q-114 0 -180.5 -57t-86.5 -172l-20 -115
h452zM466 792q-11 0 -17 14l-53 137q-3 8 -3 14q0 14 19 23q8 4 14 4q15 0 21 -24l40 -139q1 -2 1 -8q0 -14 -13 -19q-6 -2 -9 -2z" />
    <glyph glyph-name="uni1EA2" unicode="&#x1ea2;" horiz-adv-x="738" 
d="M49 11q0 7 1 11l72 407q50 281 325 281q113 0 176 -57.5t63 -159.5q0 -29 -6 -64l-72 -407q-6 -32 -32 -32q-22 0 -22 22q0 6 1 10l44 248h-452l-44 -248q-6 -32 -33 -32q-21 0 -21 21zM607 317l20 115q6 35 6 64q0 165 -191 165q-114 0 -180.5 -57t-86.5 -172l-20 -115
h452zM437 776q0 6 1 9l2 9q3 17 15 28.5t33 25.5q21 15 31 26t10 26q0 28 -37 28q-40 0 -63 -27q-12 -15 -21 -15t-14 5t-5 12q0 9 5 15q16 21 44.5 36t60.5 15q38 0 57 -17t19 -44q0 -28 -13 -43.5t-37 -31.5q-17 -11 -25.5 -19t-8.5 -21v-8q-5 -13 -12.5 -19t-20.5 -6
q-21 0 -21 16z" />
    <glyph glyph-name="Amacron" unicode="&#x100;" horiz-adv-x="738" 
d="M49 11q0 7 1 11l72 407q50 281 325 281q113 0 176 -57.5t63 -159.5q0 -29 -6 -64l-72 -407q-6 -32 -32 -32q-22 0 -22 22q0 6 1 10l44 248h-452l-44 -248q-6 -32 -33 -32q-21 0 -21 21zM607 317l20 115q6 35 6 64q0 165 -191 165q-114 0 -180.5 -57t-86.5 -172l-20 -115
h452zM314 789q0 15 8.5 20.5t25.5 5.5h240q13 0 20 -3t7 -12q0 -26 -34 -26h-240q-27 0 -27 15z" />
    <glyph glyph-name="Aogonek" unicode="&#x104;" horiz-adv-x="738" 
d="M512 -70.5q-26 -27.5 -26 -60.5q0 -16 12 -26.5t35 -10.5q33 0 63 23q10 7 15 7q7 0 12 -7q4 -6 4 -10q0 -10 -11 -19q-40 -34 -90 -34q-41 0 -63.5 20t-22.5 50q0 44 33.5 80t80.5 70q0 6 1 10l44 248h-452l-44 -248q-6 -32 -33 -32q-21 0 -21 21q0 7 1 11l72 407
q50 281 325 281q113 0 176 -57.5t63 -159.5q0 -29 -6 -64l-72 -407l-3 -10q0 -6 -7 -13l-7 -5l-0.5 -0.5l-0.5 -0.5q-52 -36 -78 -63.5zM607 317l20 115q6 35 6 64q0 165 -191 165q-114 0 -180.5 -57t-86.5 -172l-20 -115h452z" />
    <glyph glyph-name="Aring" unicode="&#xc5;" horiz-adv-x="738" 
d="M49 11q0 7 1 11l72 407q50 281 325 281q113 0 176 -57.5t63 -159.5q0 -29 -6 -64l-72 -407q-6 -32 -32 -32q-22 0 -22 22q0 6 1 10l44 248h-452l-44 -248q-6 -32 -33 -32q-21 0 -21 21zM607 317l20 115q6 35 6 64q0 165 -191 165q-114 0 -180.5 -57t-86.5 -172l-20 -115
h452zM389.5 779q-25.5 23 -25.5 58q0 32 17.5 59t47 42.5t64.5 15.5q42 0 67 -23t25 -58q0 -31 -17 -58t-46.5 -43t-63.5 -16q-43 0 -68.5 23zM521.5 814.5q22.5 21.5 22.5 53.5q0 23 -15.5 36.5t-41.5 13.5q-35 0 -57.5 -21.5t-22.5 -54.5q0 -23 15.5 -36t42.5 -13
q34 0 56.5 21.5z" />
    <glyph glyph-name="Aringacute" unicode="&#x1fa;" horiz-adv-x="738" 
d="M49 11q0 7 1 11l72 407q50 281 325 281q113 0 176 -57.5t63 -159.5q0 -29 -6 -64l-72 -407q-6 -32 -32 -32q-22 0 -22 22q0 6 1 10l44 248h-452l-44 -248q-6 -32 -33 -32q-21 0 -21 21zM607 317l20 115q6 35 6 64q0 165 -191 165q-114 0 -180.5 -57t-86.5 -172l-20 -115
h452zM389.5 779q-25.5 23 -25.5 58q0 32 17.5 59t47 42.5t64.5 15.5q42 0 67 -23t25 -58q0 -31 -17 -58t-46.5 -43t-63.5 -16q-43 0 -68.5 23zM521.5 814.5q22.5 21.5 22.5 53.5q0 23 -15.5 36.5t-41.5 13.5q-35 0 -57.5 -21.5t-22.5 -54.5q0 -23 15.5 -36t42.5 -13
q34 0 56.5 21.5zM479 993q0 7 5 15l88 139q16 24 30 24q6 0 13 -4q12 -7 12 -17q0 -8 -9 -20l-102 -137q-11 -14 -22 -14q-2 0 -8 2q-7 3 -7 12z" />
    <glyph glyph-name="Atilde" unicode="&#xc3;" horiz-adv-x="738" 
d="M49 11q0 7 1 11l72 407q50 281 325 281q113 0 176 -57.5t63 -159.5q0 -29 -6 -64l-72 -407q-6 -32 -32 -32q-22 0 -22 22q0 6 1 10l44 248h-452l-44 -248q-6 -32 -33 -32q-21 0 -21 21zM607 317l20 115q6 35 6 64q0 165 -191 165q-114 0 -180.5 -57t-86.5 -172l-20 -115
h452zM313 827q0 4 4 16q12 33 40 54t60 21q24 0 40.5 -8.5t34.5 -24.5q17 -13 27 -18.5t23 -5.5q38 0 56 45q7 19 23 19q19 0 19 -15q0 -7 -3 -16q-12 -33 -40.5 -53.5t-59.5 -20.5q-21 0 -36 8t-33 23q-18 13 -29.5 19.5t-26.5 6.5q-18 0 -33 -12t-23 -33q-7 -19 -23 -19
q-20 0 -20 14z" />
    <glyph glyph-name="AE" unicode="&#xc6;" horiz-adv-x="1136" 
d="M49 11q0 7 1 11l72 407q25 138 108.5 209.5t219.5 71.5q73 0 126.5 -29t81.5 -82q13 53 44 77t87 24h310q16 0 22 -5.5t4 -18.5q-3 -23 -34 -23h-316q-56 0 -67 -60l-38 -212h297q27 0 27 -18q0 -29 -35 -29h-297l-40 -227q-2 -12 -2 -17q0 -43 48 -43h338q27 0 27 -18
q0 -29 -35 -29h-332q-45 0 -71.5 24t-26.5 63q0 7 2 23l29 160h-452l-44 -248q-6 -32 -33 -32q-21 0 -21 21zM607 317l20 115q5 26 5 58q0 83 -48.5 127t-141.5 44q-109 0 -178 -59.5t-89 -169.5l-20 -115h452z" />
    <glyph glyph-name="AEacute" unicode="&#x1fc;" horiz-adv-x="1136" 
d="M49 11q0 7 1 11l72 407q25 138 108.5 209.5t219.5 71.5q73 0 126.5 -29t81.5 -82q13 53 44 77t87 24h310q16 0 22 -5.5t4 -18.5q-3 -23 -34 -23h-316q-56 0 -67 -60l-38 -212h297q27 0 27 -18q0 -29 -35 -29h-297l-40 -227q-2 -12 -2 -17q0 -43 48 -43h338q27 0 27 -18
q0 -29 -35 -29h-332q-45 0 -71.5 24t-26.5 63q0 7 2 23l29 160h-452l-44 -248q-6 -32 -33 -32q-21 0 -21 21zM607 317l20 115q5 26 5 58q0 83 -48.5 127t-141.5 44q-109 0 -178 -59.5t-89 -169.5l-20 -115h452zM666 806q0 7 5 15l88 139q16 24 30 24q6 0 13 -4q12 -7 12 -17
q0 -8 -9 -20l-102 -137q-11 -14 -22 -14q-2 0 -8 2q-7 3 -7 12z" />
    <glyph glyph-name="B" unicode="B" horiz-adv-x="726" 
d="M90 22.5q-25 22.5 -25 66.5q0 14 1 21l85 480q9 53 44 81.5t91 28.5h240q82 0 127.5 -39t45.5 -109q0 -68 -35.5 -120t-97.5 -76v-1q43 -16 66 -48t23 -76q0 -66 -30.5 -118.5t-84.5 -82.5t-122 -30h-255q-48 0 -73 22.5zM482 382q74 0 118.5 47t44.5 126q0 51 -30 74.5
t-97 23.5h-246q-25 0 -43.5 -17t-23.5 -43l-38 -211h315zM423 47q52 0 92.5 23t63 64t22.5 94q0 51 -34 79t-95 28h-313l-40 -228q-2 -12 -2 -18q0 -42 48 -42h258z" />
    <glyph glyph-name="C" unicode="C" horiz-adv-x="750" 
d="M208.5 24.5q-63.5 34.5 -98 98t-34.5 148.5q0 125 52.5 225.5t146 157t210.5 56.5q84 0 149.5 -28.5t96.5 -78.5q4 -5 4 -14q0 -11 -8 -19t-21 -8q-14 0 -21 10q-26 46 -76 67.5t-132 21.5q-101 0 -180.5 -50t-123.5 -139.5t-44 -204.5q0 -110 61.5 -169t176.5 -59
q81 0 145 22.5t105 66.5q9 11 24 11q9 0 15 -6t6 -15q0 -11 -10 -21q-49 -49 -128 -78t-166 -29q-86 0 -149.5 34.5z" />
    <glyph glyph-name="Cacute" unicode="&#x106;" horiz-adv-x="750" 
d="M208.5 24.5q-63.5 34.5 -98 98t-34.5 148.5q0 125 52.5 225.5t146 157t210.5 56.5q84 0 149.5 -28.5t96.5 -78.5q4 -5 4 -14q0 -11 -8 -19t-21 -8q-14 0 -21 10q-26 46 -76 67.5t-132 21.5q-101 0 -180.5 -50t-123.5 -139.5t-44 -204.5q0 -110 61.5 -169t176.5 -59
q81 0 145 22.5t105 66.5q9 11 24 11q9 0 15 -6t6 -15q0 -11 -10 -21q-49 -49 -128 -78t-166 -29q-86 0 -149.5 34.5zM483 806q0 7 5 15l88 139q16 24 30 24q6 0 13 -4q12 -7 12 -17q0 -8 -9 -20l-102 -137q-11 -14 -22 -14q-2 0 -8 2q-7 3 -7 12z" />
    <glyph glyph-name="Ccaron" unicode="&#x10c;" horiz-adv-x="750" 
d="M208.5 24.5q-63.5 34.5 -98 98t-34.5 148.5q0 125 52.5 225.5t146 157t210.5 56.5q84 0 149.5 -28.5t96.5 -78.5q4 -5 4 -14q0 -11 -8 -19t-21 -8q-14 0 -21 10q-26 46 -76 67.5t-132 21.5q-101 0 -180.5 -50t-123.5 -139.5t-44 -204.5q0 -110 61.5 -169t176.5 -59
q81 0 145 22.5t105 66.5q9 11 24 11q9 0 15 -6t6 -15q0 -11 -10 -21q-49 -49 -128 -78t-166 -29q-86 0 -149.5 34.5zM479 806l-84 126q-5 8 -5 15q0 12 16 22q6 5 15 5q12 0 21 -16l68 -117l109 117q15 17 29 17q5 0 12 -5q8 -7 8 -16q0 -11 -11 -22l-128 -126
q-14 -15 -28 -15q-12 0 -22 15z" />
    <glyph glyph-name="Ccedilla" unicode="&#xc7;" horiz-adv-x="750" 
d="M735 589q0 -11 -8 -19t-21 -8q-14 0 -21 10q-26 46 -76 67.5t-132 21.5q-101 0 -180.5 -50t-123.5 -139.5t-44 -204.5q0 -110 61.5 -169t176.5 -59q81 0 145 22.5t105 66.5q9 11 24 11q9 0 15 -6t6 -15q0 -11 -10 -21q-46 -46 -119 -74.5t-155 -32.5l-2 -2l-33 -48
q35 1 52 -13.5t17 -39.5q0 -41 -30.5 -68t-76.5 -27q-31 0 -53.5 14t-32.5 33q-3 6 -3 12q0 9 11 17q8 5 13 5q9 0 15 -11q17 -30 57 -30q25 0 40 14t15 37q0 29 -32 29q-8 0 -13 -1q-12 -2 -19.5 3t-7.5 14q0 6 5 14l31 49q-118 8 -186.5 83t-68.5 197q0 125 52.5 225.5
t146 157t210.5 56.5q84 0 149.5 -28.5t96.5 -78.5q4 -5 4 -14z" />
    <glyph glyph-name="Ccircumflex" unicode="&#x108;" horiz-adv-x="750" 
d="M208.5 24.5q-63.5 34.5 -98 98t-34.5 148.5q0 125 52.5 225.5t146 157t210.5 56.5q84 0 149.5 -28.5t96.5 -78.5q4 -5 4 -14q0 -11 -8 -19t-21 -8q-14 0 -21 10q-26 46 -76 67.5t-132 21.5q-101 0 -180.5 -50t-123.5 -139.5t-44 -204.5q0 -110 61.5 -169t176.5 -59
q81 0 145 22.5t105 66.5q9 11 24 11q9 0 15 -6t6 -15q0 -11 -10 -21q-49 -49 -128 -78t-166 -29q-86 0 -149.5 34.5zM366 812q0 10 12 22l128 126q15 15 28 15q12 0 22 -15l83 -126q5 -8 5 -15q0 -13 -15 -22q-8 -5 -16 -5q-12 0 -21 16l-67 117l-109 -117q-14 -17 -28 -17
q-8 0 -13 5q-9 8 -9 16z" />
    <glyph glyph-name="Cdotaccent" unicode="&#x10a;" horiz-adv-x="750" 
d="M208.5 24.5q-63.5 34.5 -98 98t-34.5 148.5q0 125 52.5 225.5t146 157t210.5 56.5q84 0 149.5 -28.5t96.5 -78.5q4 -5 4 -14q0 -11 -8 -19t-21 -8q-14 0 -21 10q-26 46 -76 67.5t-132 21.5q-101 0 -180.5 -50t-123.5 -139.5t-44 -204.5q0 -110 61.5 -169t176.5 -59
q81 0 145 22.5t105 66.5q9 11 24 11q9 0 15 -6t6 -15q0 -11 -10 -21q-49 -49 -128 -78t-166 -29q-86 0 -149.5 34.5zM479.5 822.5q-10.5 10.5 -10.5 25.5q0 18 16 33.5t35 15.5q14 0 24.5 -10.5t10.5 -25.5q0 -18 -15.5 -33.5t-34.5 -15.5q-15 0 -25.5 10.5z" />
    <glyph glyph-name="D" unicode="D" horiz-adv-x="745" 
d="M90 23.5q-26 23.5 -26 65.5q0 7 2 21l85 480q20 110 135 110h139q85 0 148.5 -33t98 -94t34.5 -143q0 -122 -51.5 -220t-142.5 -154t-203 -56h-146q-47 0 -73 23.5zM302 47q105 0 184 47.5t122 134.5t43 203q0 109 -61.5 165t-180.5 56h-137q-26 0 -44 -16.5t-23 -43.5
l-86 -486q-1 -5 -1 -14q0 -20 13 -33t34 -13h137z" />
    <glyph glyph-name="Eth" unicode="&#xd0;" horiz-adv-x="775" 
d="M130 23q-26 23 -26 63q0 8 2 24l39 219h-66q-27 0 -27 17q0 28 35 28h66l38 216q20 110 135 110h139q86 0 149 -32.5t97 -94t34 -144.5q0 -121 -51.5 -219t-142 -154t-202.5 -56h-146q-47 0 -73 23zM342 47q104 0 183.5 48t123 135t43.5 201q0 110 -61.5 166t-181.5 56
h-137q-26 0 -44 -16.5t-23 -43.5l-39 -219h171q14 0 20.5 -4t6.5 -13q0 -28 -35 -28h-171l-39 -222q-1 -4 -1 -12q0 -22 12.5 -35t34.5 -13h137z" />
    <glyph glyph-name="Dcaron" unicode="&#x10e;" horiz-adv-x="745" 
d="M90 23.5q-26 23.5 -26 65.5q0 7 2 21l85 480q20 110 135 110h139q85 0 148.5 -33t98 -94t34.5 -143q0 -122 -51.5 -220t-142.5 -154t-203 -56h-146q-47 0 -73 23.5zM302 47q105 0 184 47.5t122 134.5t43 203q0 109 -61.5 165t-180.5 56h-137q-26 0 -44 -16.5t-23 -43.5
l-86 -486q-1 -5 -1 -14q0 -20 13 -33t34 -13h137zM416 806l-84 126q-5 8 -5 15q0 12 16 22q6 5 15 5q12 0 21 -16l68 -117l109 117q15 17 29 17q5 0 12 -5q8 -7 8 -16q0 -11 -11 -22l-128 -126q-14 -15 -28 -15q-12 0 -22 15z" />
    <glyph glyph-name="Dcroat" unicode="&#x110;" horiz-adv-x="775" 
d="M130 23q-26 23 -26 63q0 8 2 24l39 219h-66q-27 0 -27 17q0 28 35 28h66l38 216q20 110 135 110h139q86 0 149 -32.5t97 -94t34 -144.5q0 -121 -51.5 -219t-142 -154t-202.5 -56h-146q-47 0 -73 23zM342 47q104 0 183.5 48t123 135t43.5 201q0 110 -61.5 166t-181.5 56
h-137q-26 0 -44 -16.5t-23 -43.5l-39 -219h171q14 0 20.5 -4t6.5 -13q0 -28 -35 -28h-171l-39 -222q-1 -4 -1 -12q0 -22 12.5 -35t34.5 -13h137z" />
    <glyph glyph-name="uni1E0C" unicode="&#x1e0c;" horiz-adv-x="745" 
d="M90 23.5q-26 23.5 -26 65.5q0 7 2 21l85 480q20 110 135 110h139q85 0 148.5 -33t98 -94t34.5 -143q0 -122 -51.5 -220t-142.5 -154t-203 -56h-146q-47 0 -73 23.5zM302 47q105 0 184 47.5t122 134.5t43 203q0 109 -61.5 165t-180.5 56h-137q-26 0 -44 -16.5t-23 -43.5
l-86 -486q-1 -5 -1 -14q0 -20 13 -33t34 -13h137zM275.5 -145.5q-10.5 10.5 -10.5 25.5q0 18 16 33.5t35 15.5q14 0 24.5 -10.5t10.5 -25.5q0 -18 -15.5 -33.5t-34.5 -15.5q-15 0 -25.5 10.5z" />
    <glyph glyph-name="uni1E0E" unicode="&#x1e0e;" horiz-adv-x="745" 
d="M90 23.5q-26 23.5 -26 65.5q0 7 2 21l85 480q20 110 135 110h139q85 0 148.5 -33t98 -94t34.5 -143q0 -122 -51.5 -220t-142.5 -154t-203 -56h-146q-47 0 -73 23.5zM302 47q105 0 184 47.5t122 134.5t43 203q0 109 -61.5 165t-180.5 56h-137q-26 0 -44 -16.5t-23 -43.5
l-86 -486q-1 -5 -1 -14q0 -20 13 -33t34 -13h137zM158 -119q0 15 8.5 20.5t25.5 5.5h240q13 0 20 -3t7 -12q0 -26 -34 -26h-240q-27 0 -27 15z" />
    <glyph glyph-name="E" unicode="E" horiz-adv-x="633" 
d="M90.5 23.5q-26.5 23.5 -26.5 63.5q0 7 2 23l85 480q10 53 43.5 81.5t86.5 28.5h315q26 0 26 -19q0 -28 -34 -28h-316q-26 0 -44 -16.5t-23 -43.5l-38 -212h297q32 0 26 -24q-5 -23 -34 -23h-297l-40 -227q-2 -12 -2 -18q0 -42 48 -42h338q32 0 26 -24q-5 -23 -34 -23
h-332q-46 0 -72.5 23.5z" />
    <glyph glyph-name="Eacute" unicode="&#xc9;" horiz-adv-x="633" 
d="M90.5 23.5q-26.5 23.5 -26.5 63.5q0 7 2 23l85 480q10 53 43.5 81.5t86.5 28.5h315q26 0 26 -19q0 -28 -34 -28h-316q-26 0 -44 -16.5t-23 -43.5l-38 -212h297q32 0 26 -24q-5 -23 -34 -23h-297l-40 -227q-2 -12 -2 -18q0 -42 48 -42h338q32 0 26 -24q-5 -23 -34 -23
h-332q-46 0 -72.5 23.5zM414 806q0 7 5 15l88 139q16 24 30 24q6 0 13 -4q12 -7 12 -17q0 -8 -9 -20l-102 -137q-11 -14 -22 -14q-2 0 -8 2q-7 3 -7 12z" />
    <glyph glyph-name="Ebreve" unicode="&#x114;" horiz-adv-x="633" 
d="M90.5 23.5q-26.5 23.5 -26.5 63.5q0 7 2 23l85 480q10 53 43.5 81.5t86.5 28.5h315q26 0 26 -19q0 -28 -34 -28h-316q-26 0 -44 -16.5t-23 -43.5l-38 -212h297q32 0 26 -24q-5 -23 -34 -23h-297l-40 -227q-2 -12 -2 -18q0 -42 48 -42h338q32 0 26 -24q-5 -23 -34 -23
h-332q-46 0 -72.5 23.5zM344.5 824q-30.5 32 -30.5 80q0 59 32 59q20 0 20 -20q0 -54 4.5 -75.5t18.5 -28t50 -6.5q47 0 74 26.5t35 71.5q6 32 30 32q20 0 20 -20q0 -38 -24 -73t-62.5 -56.5t-79.5 -21.5q-57 0 -87.5 32z" />
    <glyph glyph-name="Ecaron" unicode="&#x11a;" horiz-adv-x="633" 
d="M90.5 23.5q-26.5 23.5 -26.5 63.5q0 7 2 23l85 480q10 53 43.5 81.5t86.5 28.5h315q26 0 26 -19q0 -28 -34 -28h-316q-26 0 -44 -16.5t-23 -43.5l-38 -212h297q32 0 26 -24q-5 -23 -34 -23h-297l-40 -227q-2 -12 -2 -18q0 -42 48 -42h338q32 0 26 -24q-5 -23 -34 -23
h-332q-46 0 -72.5 23.5zM410 806l-84 126q-5 8 -5 15q0 12 16 22q6 5 15 5q12 0 21 -16l68 -117l109 117q15 17 29 17q5 0 12 -5q8 -7 8 -16q0 -11 -11 -22l-128 -126q-13 -15 -28 -15q-12 0 -22 15z" />
    <glyph glyph-name="Ecircumflex" unicode="&#xca;" horiz-adv-x="633" 
d="M90.5 23.5q-26.5 23.5 -26.5 63.5q0 7 2 23l85 480q10 53 43.5 81.5t86.5 28.5h315q26 0 26 -19q0 -28 -34 -28h-316q-26 0 -44 -16.5t-23 -43.5l-38 -212h297q32 0 26 -24q-5 -23 -34 -23h-297l-40 -227q-2 -12 -2 -18q0 -42 48 -42h338q32 0 26 -24q-5 -23 -34 -23
h-332q-46 0 -72.5 23.5zM297 812q0 10 12 22l128 126q15 15 28 15q12 0 22 -15l83 -126q5 -8 5 -15q0 -13 -15 -22q-7 -5 -16 -5q-12 0 -21 16l-67 117l-109 -117q-14 -17 -28 -17q-8 0 -13 5q-9 8 -9 16z" />
    <glyph glyph-name="uni1EBE" unicode="&#x1ebe;" horiz-adv-x="633" 
d="M90.5 23.5q-26.5 23.5 -26.5 63.5q0 7 2 23l85 480q10 53 43.5 81.5t86.5 28.5h315q26 0 26 -19q0 -28 -34 -28h-316q-26 0 -44 -16.5t-23 -43.5l-38 -212h297q32 0 26 -24q-5 -23 -34 -23h-297l-40 -227q-2 -12 -2 -18q0 -42 48 -42h338q32 0 26 -24q-5 -23 -34 -23
h-332q-46 0 -72.5 23.5zM543 934q0 8 7 17l78 101q16 19 29 19q4 0 12 -4q12 -7 12 -16q0 -10 -11 -21l-91 -98q-10 -12 -20 -12q-4 0 -9 3q-7 4 -7 11zM297 813q0 11 12 21l125 109q17 15 27 15q7 0 12 -3.5t11 -11.5l86 -108q5 -6 5 -15q0 -14 -15 -23q-8 -5 -14 -5
q-11 0 -23 17l-70 99l-106 -100q-16 -16 -28 -16q-6 0 -13 5q-9 8 -9 16z" />
    <glyph glyph-name="uni1EC6" unicode="&#x1ec6;" horiz-adv-x="633" 
d="M90.5 23.5q-26.5 23.5 -26.5 63.5q0 7 2 23l85 480q10 53 43.5 81.5t86.5 28.5h315q26 0 26 -19q0 -28 -34 -28h-316q-26 0 -44 -16.5t-23 -43.5l-38 -212h297q32 0 26 -24q-5 -23 -34 -23h-297l-40 -227q-2 -12 -2 -18q0 -42 48 -42h338q32 0 26 -24q-5 -23 -34 -23
h-332q-46 0 -72.5 23.5zM219.5 -145.5q-10.5 10.5 -10.5 25.5q0 18 16 33.5t35 15.5q14 0 24.5 -10.5t10.5 -25.5q0 -18 -15.5 -33.5t-34.5 -15.5q-15 0 -25.5 10.5zM297 812q0 10 12 22l128 126q15 15 28 15q12 0 22 -15l83 -126q5 -8 5 -15q0 -13 -15 -22q-7 -5 -16 -5
q-12 0 -21 16l-67 117l-109 -117q-14 -17 -28 -17q-8 0 -13 5q-9 8 -9 16z" />
    <glyph glyph-name="uni1EC0" unicode="&#x1ec0;" horiz-adv-x="633" 
d="M90.5 23.5q-26.5 23.5 -26.5 63.5q0 7 2 23l85 480q10 53 43.5 81.5t86.5 28.5h315q26 0 26 -19q0 -28 -34 -28h-316q-26 0 -44 -16.5t-23 -43.5l-38 -212h297q32 0 26 -24q-5 -23 -34 -23h-297l-40 -227q-2 -12 -2 -18q0 -42 48 -42h338q32 0 26 -24q-5 -23 -34 -23
h-332q-46 0 -72.5 23.5zM598 920q-9 0 -15 12l-57 98q-4 8 -4 14q0 14 18 23q10 4 14 4q14 0 22 -19l42 -101q2 -6 2 -11q0 -10 -12 -17q-6 -3 -10 -3zM297 813q0 11 12 21l125 109q17 15 27 15q8 0 12.5 -3t10.5 -11l87 -109q5 -7 5 -14q0 -13 -16 -24q-8 -5 -14 -5
q-11 0 -23 17l-70 99l-106 -100q-16 -16 -28 -16q-6 0 -13 5q-9 8 -9 16z" />
    <glyph glyph-name="uni1EC2" unicode="&#x1ec2;" horiz-adv-x="633" 
d="M90.5 23.5q-26.5 23.5 -26.5 63.5q0 7 2 23l85 480q10 53 43.5 81.5t86.5 28.5h315q26 0 26 -19q0 -28 -34 -28h-316q-26 0 -44 -16.5t-23 -43.5l-38 -212h297q32 0 26 -24q-5 -23 -34 -23h-297l-40 -227q-2 -12 -2 -18q0 -42 48 -42h338q32 0 26 -24q-5 -23 -34 -23
h-332q-46 0 -72.5 23.5zM530 932q0 5 1 8l2 8q4 15 14.5 25.5t29.5 24.5q19 13 28.5 23.5t9.5 24.5q0 26 -35 26q-19 0 -31.5 -5.5t-22.5 -16.5q-10 -13 -19 -13q-5 0 -9 3q-10 5 -10 13q0 7 6 14q15 19 38.5 31t54.5 12q36 0 53 -15.5t17 -40.5q0 -27 -12 -41.5t-35 -28.5
q-16 -11 -23.5 -18.5t-9.5 -18.5l-1 -7q-2 -12 -8 -17.5t-19 -5.5q-19 0 -19 15zM297 813q0 11 12 21l125 109q17 15 27 15q8 0 12.5 -3t10.5 -11l87 -109q5 -7 5 -14q0 -13 -16 -24q-8 -5 -14 -5q-11 0 -23 17l-70 99l-106 -100q-16 -16 -28 -16q-6 0 -13 5q-9 8 -9 16z
" />
    <glyph glyph-name="uni1EC4" unicode="&#x1ec4;" horiz-adv-x="633" 
d="M90.5 23.5q-26.5 23.5 -26.5 63.5q0 7 2 23l85 480q10 53 43.5 81.5t86.5 28.5h315q26 0 26 -19q0 -28 -34 -28h-316q-26 0 -44 -16.5t-23 -43.5l-38 -212h297q32 0 26 -24q-5 -23 -34 -23h-297l-40 -227q-2 -12 -2 -18q0 -42 48 -42h338q32 0 26 -24q-5 -23 -34 -23
h-332q-46 0 -72.5 23.5zM328.5 979.5q-3.5 3.5 -3.5 10.5l2 13q10 32 37 52.5t59 20.5q22 0 37 -8t35 -23q14 -12 24 -18t23 -6q36 0 54 43q7 18 21 18q19 0 19 -14q0 -5 -3 -14q-9 -31 -37 -51.5t-59 -20.5q-20 0 -33.5 7t-32.5 22q-15 13 -26.5 19.5t-26.5 6.5
q-17 0 -31 -11.5t-22 -30.5q-7 -19 -22 -19q-11 0 -14.5 3.5zM297 814q0 11 12 21l125 109q9 8 14.5 11.5t12.5 3.5q15 0 23 -15l86 -109q5 -6 5 -15q0 -12 -15 -23q-8 -5 -14 -5q-11 0 -23 17l-70 100l-106 -100q-16 -16 -28 -16q-6 0 -13 5q-9 8 -9 16z" />
    <glyph glyph-name="Edieresis" unicode="&#xcb;" horiz-adv-x="633" 
d="M90.5 23.5q-26.5 23.5 -26.5 63.5q0 7 2 23l85 480q10 53 43.5 81.5t86.5 28.5h315q26 0 26 -19q0 -28 -34 -28h-316q-26 0 -44 -16.5t-23 -43.5l-38 -212h297q32 0 26 -24q-5 -23 -34 -23h-297l-40 -227q-2 -12 -2 -18q0 -42 48 -42h338q32 0 26 -24q-5 -23 -34 -23
h-332q-46 0 -72.5 23.5zM313.5 822.5q-10.5 10.5 -10.5 25.5q0 18 16 33.5t35 15.5q14 0 24.5 -10.5t10.5 -25.5q0 -18 -15.5 -33.5t-34.5 -15.5q-15 0 -25.5 10.5zM509.5 822.5q-10.5 10.5 -10.5 25.5q0 18 16 33.5t35 15.5q14 0 24.5 -10.5t10.5 -25.5q0 -18 -15.5 -33.5
t-34.5 -15.5q-15 0 -25.5 10.5z" />
    <glyph glyph-name="Edotaccent" unicode="&#x116;" horiz-adv-x="633" 
d="M90.5 23.5q-26.5 23.5 -26.5 63.5q0 7 2 23l85 480q10 53 43.5 81.5t86.5 28.5h315q26 0 26 -19q0 -28 -34 -28h-316q-26 0 -44 -16.5t-23 -43.5l-38 -212h297q32 0 26 -24q-5 -23 -34 -23h-297l-40 -227q-2 -12 -2 -18q0 -42 48 -42h338q32 0 26 -24q-5 -23 -34 -23
h-332q-46 0 -72.5 23.5zM410.5 822.5q-10.5 10.5 -10.5 25.5q0 18 16 33.5t35 15.5q14 0 24.5 -10.5t10.5 -25.5q0 -18 -15.5 -33.5t-34.5 -15.5q-15 0 -25.5 10.5z" />
    <glyph glyph-name="uni1EB8" unicode="&#x1eb8;" horiz-adv-x="633" 
d="M90.5 23.5q-26.5 23.5 -26.5 63.5q0 7 2 23l85 480q10 53 43.5 81.5t86.5 28.5h315q26 0 26 -19q0 -28 -34 -28h-316q-26 0 -44 -16.5t-23 -43.5l-38 -212h297q32 0 26 -24q-5 -23 -34 -23h-297l-40 -227q-2 -12 -2 -18q0 -42 48 -42h338q32 0 26 -24q-5 -23 -34 -23
h-332q-46 0 -72.5 23.5zM219.5 -145.5q-10.5 10.5 -10.5 25.5q0 18 16 33.5t35 15.5q14 0 24.5 -10.5t10.5 -25.5q0 -18 -15.5 -33.5t-34.5 -15.5q-15 0 -25.5 10.5z" />
    <glyph glyph-name="Egrave" unicode="&#xc8;" horiz-adv-x="633" 
d="M90.5 23.5q-26.5 23.5 -26.5 63.5q0 7 2 23l85 480q10 53 43.5 81.5t86.5 28.5h315q26 0 26 -19q0 -28 -34 -28h-316q-26 0 -44 -16.5t-23 -43.5l-38 -212h297q32 0 26 -24q-5 -23 -34 -23h-297l-40 -227q-2 -12 -2 -18q0 -42 48 -42h338q32 0 26 -24q-5 -23 -34 -23
h-332q-46 0 -72.5 23.5zM434 792q-11 0 -17 14l-53 137q-3 8 -3 14q0 14 19 23q8 4 14 4q15 0 21 -24l40 -139q1 -2 1 -8q0 -14 -13 -19q-6 -2 -9 -2z" />
    <glyph glyph-name="uni1EBA" unicode="&#x1eba;" horiz-adv-x="633" 
d="M90.5 23.5q-26.5 23.5 -26.5 63.5q0 7 2 23l85 480q10 53 43.5 81.5t86.5 28.5h315q26 0 26 -19q0 -28 -34 -28h-316q-26 0 -44 -16.5t-23 -43.5l-38 -212h297q32 0 26 -24q-5 -23 -34 -23h-297l-40 -227q-2 -12 -2 -18q0 -42 48 -42h338q32 0 26 -24q-5 -23 -34 -23
h-332q-46 0 -72.5 23.5zM405 776q0 6 1 9l2 9q3 17 15 28.5t33 25.5q21 15 31 26t10 26q0 28 -37 28q-40 0 -63 -27q-12 -15 -21 -15t-14 5t-5 12q0 9 5 15q16 21 44.5 36t60.5 15q38 0 57 -17t19 -44q0 -28 -13 -43.5t-37 -31.5q-17 -11 -25.5 -19t-8.5 -21v-8
q-5 -13 -12.5 -19t-20.5 -6q-21 0 -21 16z" />
    <glyph glyph-name="Emacron" unicode="&#x112;" horiz-adv-x="633" 
d="M90.5 23.5q-26.5 23.5 -26.5 63.5q0 7 2 23l85 480q10 53 43.5 81.5t86.5 28.5h315q26 0 26 -19q0 -28 -34 -28h-316q-26 0 -44 -16.5t-23 -43.5l-38 -212h297q32 0 26 -24q-5 -23 -34 -23h-297l-40 -227q-2 -12 -2 -18q0 -42 48 -42h338q32 0 26 -24q-5 -23 -34 -23
h-332q-46 0 -72.5 23.5zM286 809q0 15 8.5 20.5t25.5 5.5h240q13 0 20 -3t7 -12q0 -26 -34 -26h-240q-27 0 -27 15z" />
    <glyph glyph-name="Eogonek" unicode="&#x118;" horiz-adv-x="633" 
d="M622 681q0 -28 -34 -28h-316q-26 0 -44 -16.5t-23 -43.5l-38 -212h297q32 0 26 -24q-5 -23 -34 -23h-297l-40 -227q-2 -12 -2 -18q0 -42 48 -42h338q32 0 26 -24q-5 -23 -34 -23h-7l-9 -7q-52 -36 -78 -63.5t-26 -60.5q0 -16 12 -26.5t35 -10.5q33 0 63 23q11 7 15 7
q7 0 12 -7q4 -6 4 -10q0 -10 -11 -19q-40 -34 -90 -34q-41 0 -63.5 20t-22.5 50q0 66 98 138h-264q-46 0 -72.5 23.5t-26.5 63.5q0 7 2 23l85 480q10 53 43.5 81.5t86.5 28.5h315q26 0 26 -19z" />
    <glyph glyph-name="uni1EBC" unicode="&#x1ebc;" horiz-adv-x="633" 
d="M90.5 23.5q-26.5 23.5 -26.5 63.5q0 7 2 23l85 480q10 53 43.5 81.5t86.5 28.5h315q26 0 26 -19q0 -28 -34 -28h-316q-26 0 -44 -16.5t-23 -43.5l-38 -212h297q32 0 26 -24q-5 -23 -34 -23h-297l-40 -227q-2 -12 -2 -18q0 -42 48 -42h338q32 0 26 -24q-5 -23 -34 -23
h-332q-46 0 -72.5 23.5zM279 817q0 4 4 16q12 33 40 54t60 21q24 0 40.5 -8.5t34.5 -24.5q18 -13 27.5 -18.5t22.5 -5.5q38 0 56 45q7 19 23 19q19 0 19 -15q0 -7 -3 -16q-12 -33 -40.5 -53.5t-59.5 -20.5q-21 0 -36 8t-33 23q-18 13 -29.5 19.5t-26.5 6.5q-18 0 -33 -12
t-23 -33q-7 -19 -23 -19q-20 0 -20 14z" />
    <glyph glyph-name="F" unicode="F" horiz-adv-x="611" 
d="M50 11q0 7 1 11l100 568q10 54 44.5 82t90.5 28h310q16 0 22 -5.5t4 -18.5q-3 -23 -34 -23h-316q-26 0 -44 -16.5t-23 -43.5l-40 -222h297q16 0 22 -5.5t4 -18.5q-3 -23 -34 -23h-297l-53 -302q-6 -32 -33 -32q-21 0 -21 21z" />
    <glyph glyph-name="G" unicode="G" horiz-adv-x="770" 
d="M216 24q-67 34 -103.5 97t-36.5 147q0 126 53.5 227t148 158t212.5 57q84 0 149.5 -28.5t96.5 -78.5q4 -5 4 -14q0 -11 -8.5 -19t-21.5 -8t-20 10q-51 89 -208 89q-102 0 -182.5 -50.5t-125.5 -140.5t-45 -204q0 -108 66 -167.5t186 -59.5q68 0 126 23.5t95 65t46 94.5
l7 38q2 16 2 21q0 20 -10 27.5t-36 7.5h-160q-27 0 -27 18q0 29 35 29h154q47 0 72 -20.5t25 -58.5l-2 -23l-7 -38q-12 -69 -57.5 -122t-116 -82t-155.5 -29q-89 0 -156 34z" />
    <glyph glyph-name="Gbreve" unicode="&#x11e;" horiz-adv-x="770" 
d="M216 24q-67 34 -103.5 97t-36.5 147q0 126 53.5 227t148 158t212.5 57q84 0 149.5 -28.5t96.5 -78.5q4 -5 4 -14q0 -11 -8.5 -19t-21.5 -8t-20 10q-51 89 -208 89q-102 0 -182.5 -50.5t-125.5 -140.5t-45 -204q0 -108 66 -167.5t186 -59.5q68 0 126 23.5t95 65t46 94.5
l7 38q2 16 2 21q0 20 -10 27.5t-36 7.5h-160q-27 0 -27 18q0 29 35 29h154q47 0 72 -20.5t25 -58.5l-2 -23l-7 -38q-12 -69 -57.5 -122t-116 -82t-155.5 -29q-89 0 -156 34zM393.5 824q-30.5 32 -30.5 80q0 59 32 59q20 0 20 -20q0 -54 4.5 -75.5t18.5 -28t50 -6.5
q47 0 74 26.5t35 71.5q6 32 30 32q20 0 20 -20q0 -38 -24 -73t-62.5 -56.5t-79.5 -21.5q-57 0 -87.5 32z" />
    <glyph glyph-name="Gcaron" unicode="&#x1e6;" horiz-adv-x="770" 
d="M216 24q-67 34 -103.5 97t-36.5 147q0 126 53.5 227t148 158t212.5 57q84 0 149.5 -28.5t96.5 -78.5q4 -5 4 -14q0 -11 -8.5 -19t-21.5 -8t-20 10q-51 89 -208 89q-102 0 -182.5 -50.5t-125.5 -140.5t-45 -204q0 -108 66 -167.5t186 -59.5q68 0 126 23.5t95 65t46 94.5
l7 38q2 16 2 21q0 20 -10 27.5t-36 7.5h-160q-27 0 -27 18q0 29 35 29h154q47 0 72 -20.5t25 -58.5l-2 -23l-7 -38q-12 -69 -57.5 -122t-116 -82t-155.5 -29q-89 0 -156 34zM459 806l-84 126q-5 8 -5 15q0 12 16 22q6 5 15 5q12 0 21 -16l68 -117l109 117q15 17 29 17
q5 0 12 -5q8 -7 8 -16q0 -11 -11 -22l-128 -126q-13 -15 -28 -15q-12 0 -22 15z" />
    <glyph glyph-name="Gcircumflex" unicode="&#x11c;" horiz-adv-x="770" 
d="M216 24q-67 34 -103.5 97t-36.5 147q0 126 53.5 227t148 158t212.5 57q84 0 149.5 -28.5t96.5 -78.5q4 -5 4 -14q0 -11 -8.5 -19t-21.5 -8t-20 10q-51 89 -208 89q-102 0 -182.5 -50.5t-125.5 -140.5t-45 -204q0 -108 66 -167.5t186 -59.5q68 0 126 23.5t95 65t46 94.5
l7 38q2 16 2 21q0 20 -10 27.5t-36 7.5h-160q-27 0 -27 18q0 29 35 29h154q47 0 72 -20.5t25 -58.5l-2 -23l-7 -38q-12 -69 -57.5 -122t-116 -82t-155.5 -29q-89 0 -156 34zM346 812q0 10 12 22l128 126q15 15 28 15q12 0 22 -15l83 -126q5 -8 5 -15q0 -13 -15 -22
q-7 -5 -16 -5q-12 0 -21 16l-67 117l-109 -117q-14 -17 -28 -17q-8 0 -13 5q-9 8 -9 16z" />
    <glyph glyph-name="uni0122" unicode="&#x122;" horiz-adv-x="770" 
d="M216 24q-67 34 -103.5 97t-36.5 147q0 126 53.5 227t148 158t212.5 57q84 0 149.5 -28.5t96.5 -78.5q4 -5 4 -14q0 -11 -8.5 -19t-21.5 -8t-20 10q-51 89 -208 89q-102 0 -182.5 -50.5t-125.5 -140.5t-45 -204q0 -108 66 -167.5t186 -59.5q68 0 126 23.5t95 65t46 94.5
l7 38q2 16 2 21q0 20 -10 27.5t-36 7.5h-160q-27 0 -27 18q0 29 35 29h154q47 0 72 -20.5t25 -58.5l-2 -23l-7 -38q-12 -69 -57.5 -122t-116 -82t-155.5 -29q-89 0 -156 34zM224 -274q0 10 19 23q67 45 75 85q-9 -3 -17 -3q-17 0 -29 11t-12 27q0 26 18.5 43t46.5 17
q21 0 33 -13t12 -37q0 -38 -27 -78.5t-74 -73.5q-11 -8 -19.5 -13t-13.5 -5q-4 0 -9 7q-3 6 -3 10z" />
    <glyph glyph-name="Gdotaccent" unicode="&#x120;" horiz-adv-x="770" 
d="M216 24q-67 34 -103.5 97t-36.5 147q0 126 53.5 227t148 158t212.5 57q84 0 149.5 -28.5t96.5 -78.5q4 -5 4 -14q0 -11 -8.5 -19t-21.5 -8t-20 10q-51 89 -208 89q-102 0 -182.5 -50.5t-125.5 -140.5t-45 -204q0 -108 66 -167.5t186 -59.5q68 0 126 23.5t95 65t46 94.5
l7 38q2 16 2 21q0 20 -10 27.5t-36 7.5h-160q-27 0 -27 18q0 29 35 29h154q47 0 72 -20.5t25 -58.5l-2 -23l-7 -38q-12 -69 -57.5 -122t-116 -82t-155.5 -29q-89 0 -156 34zM459.5 822.5q-10.5 10.5 -10.5 25.5q0 18 16 33.5t35 15.5q14 0 24.5 -10.5t10.5 -25.5
q0 -18 -15.5 -33.5t-34.5 -15.5q-15 0 -25.5 10.5z" />
    <glyph glyph-name="uni1E20" unicode="&#x1e20;" horiz-adv-x="770" 
d="M216 24q-67 34 -103.5 97t-36.5 147q0 126 53.5 227t148 158t212.5 57q84 0 149.5 -28.5t96.5 -78.5q4 -5 4 -14q0 -11 -8.5 -19t-21.5 -8t-20 10q-51 89 -208 89q-102 0 -182.5 -50.5t-125.5 -140.5t-45 -204q0 -108 66 -167.5t186 -59.5q68 0 126 23.5t95 65t46 94.5
l7 38q2 16 2 21q0 20 -10 27.5t-36 7.5h-160q-27 0 -27 18q0 29 35 29h154q47 0 72 -20.5t25 -58.5l-2 -23l-7 -38q-12 -69 -57.5 -122t-116 -82t-155.5 -29q-89 0 -156 34zM335 809q0 15 8.5 20.5t25.5 5.5h240q13 0 20 -3t7 -12q0 -26 -34 -26h-240q-27 0 -27 15z" />
    <glyph glyph-name="H" unicode="H" horiz-adv-x="765" 
d="M54 11q0 7 1 11l116 656q5 32 31 32q23 0 23 -24l-1 -8l-52 -295h469l52 295q2 16 10.5 24t21.5 8q22 0 22 -23l-1 -9l-116 -656q-6 -32 -32 -32q-22 0 -22 22q0 6 1 10l55 314h-469l-55 -314q-6 -32 -33 -32q-21 0 -21 21z" />
    <glyph glyph-name="Hbar" unicode="&#x126;" horiz-adv-x="795" 
d="M814 538q0 -29 -35 -29h-50l-86 -487q-6 -32 -32 -32q-22 0 -22 22q0 6 1 10l55 314h-469l-55 -314q-6 -32 -33 -32q-21 0 -21 21q0 7 1 11l86 487h-50q-27 0 -27 17q0 16 9 22t26 6h50l22 124q5 32 31 32q23 0 23 -24l-1 -8l-22 -124h469l22 124q2 16 10.5 24t21.5 8
q22 0 22 -23l-1 -9l-22 -124h50q27 0 27 -16zM676 509h-469l-22 -126h469z" />
    <glyph glyph-name="uni1E2A" unicode="&#x1e2a;" horiz-adv-x="765" 
d="M54 11q0 7 1 11l116 656q5 32 31 32q23 0 23 -24l-1 -8l-52 -295h469l52 295q2 16 10.5 24t21.5 8q22 0 22 -23l-1 -9l-116 -656q-6 -32 -32 -32q-22 0 -22 22q0 6 1 10l55 314h-469l-55 -314q-6 -32 -33 -32q-21 0 -21 21zM215.5 -211q-30.5 32 -30.5 80q0 59 32 59
q20 0 20 -20q0 -54 4.5 -75.5t18.5 -28t50 -6.5q47 0 74 26.5t35 71.5q6 32 30 32q20 0 20 -20q0 -38 -24 -73t-62.5 -56.5t-79.5 -21.5q-57 0 -87.5 32z" />
    <glyph glyph-name="Hcircumflex" unicode="&#x124;" horiz-adv-x="765" 
d="M54 11q0 7 1 11l116 656q5 32 31 32q23 0 23 -24l-1 -8l-52 -295h469l52 295q2 16 10.5 24t21.5 8q22 0 22 -23l-1 -9l-116 -656q-6 -32 -32 -32q-22 0 -22 22q0 6 1 10l55 314h-469l-55 -314q-6 -32 -33 -32q-21 0 -21 21zM323 812q0 10 12 22l128 126q15 15 28 15
q12 0 22 -15l83 -126q5 -8 5 -15q0 -13 -15 -22q-7 -5 -16 -5q-12 0 -21 16l-67 117l-109 -117q-14 -17 -28 -17q-8 0 -13 5q-9 8 -9 16z" />
    <glyph glyph-name="uni1E24" unicode="&#x1e24;" horiz-adv-x="765" 
d="M54 11q0 7 1 11l116 656q5 32 31 32q23 0 23 -24l-1 -8l-52 -295h469l52 295q2 16 10.5 24t21.5 8q22 0 22 -23l-1 -9l-116 -656q-6 -32 -32 -32q-22 0 -22 22q0 6 1 10l55 314h-469l-55 -314q-6 -32 -33 -32q-21 0 -21 21zM291.5 -145.5q-10.5 10.5 -10.5 25.5
q0 18 16 33.5t35 15.5q14 0 24.5 -10.5t10.5 -25.5q0 -18 -15.5 -33.5t-34.5 -15.5q-15 0 -25.5 10.5z" />
    <glyph glyph-name="I" unicode="I" horiz-adv-x="303" 
d="M84 11q0 7 1 11l116 656q5 32 31 32q23 0 23 -24l-1 -8l-116 -656q-6 -32 -33 -32q-21 0 -21 21z" />
    <glyph glyph-name="IJ" unicode="&#x132;" horiz-adv-x="794" 
d="M84 11q0 7 1 11l116 656q5 32 31 32q23 0 23 -24l-1 -8l-116 -656q-6 -32 -33 -32q-21 0 -21 21zM226 103q-4 7 -4 13q0 12 13 23q7 7 17 7q13 0 21 -12q31 -54 68.5 -74t108.5 -20q77 0 128.5 45.5t65.5 125.5l83 467q6 32 31 32q23 0 23 -23q0 -6 -1 -9l-82 -463
q-19 -106 -87 -165.5t-170 -59.5q-144 0 -215 113z" />
    <glyph glyph-name="Iacute" unicode="&#xcd;" horiz-adv-x="303" 
d="M84 11q0 7 1 11l116 656q5 32 31 32q23 0 23 -24l-1 -8l-116 -656q-6 -32 -33 -32q-21 0 -21 21zM229 806q0 7 5 15l88 139q16 24 30 24q6 0 13 -4q12 -7 12 -17q0 -8 -9 -20l-102 -137q-11 -14 -22 -14q-2 0 -8 2q-7 3 -7 12z" />
    <glyph glyph-name="Ibreve" unicode="&#x12c;" horiz-adv-x="303" 
d="M84 11q0 7 1 11l116 656q5 32 31 32q23 0 23 -24l-1 -8l-116 -656q-6 -32 -33 -32q-21 0 -21 21zM159.5 824q-30.5 32 -30.5 80q0 59 32 59q20 0 20 -20q0 -54 4.5 -75.5t18.5 -28t50 -6.5q47 0 74 26.5t35 71.5q6 32 30 32q20 0 20 -20q0 -38 -24 -73t-62.5 -56.5
t-79.5 -21.5q-57 0 -87.5 32z" />
    <glyph glyph-name="uni01CF" unicode="&#x1cf;" horiz-adv-x="303" 
d="M84 11q0 7 1 11l116 656q5 32 31 32q23 0 23 -24l-1 -8l-116 -656q-6 -32 -33 -32q-21 0 -21 21zM225 806l-84 126q-5 8 -5 15q0 12 16 22q6 5 15 5q12 0 21 -16l68 -117l109 117q15 17 29 17q5 0 12 -5q8 -7 8 -16q0 -11 -11 -22l-128 -126q-13 -15 -28 -15
q-12 0 -22 15z" />
    <glyph glyph-name="Icircumflex" unicode="&#xce;" horiz-adv-x="303" 
d="M84 11q0 7 1 11l116 656q5 32 31 32q23 0 23 -24l-1 -8l-116 -656q-6 -32 -33 -32q-21 0 -21 21zM112 812q0 10 12 22l128 126q15 15 28 15q12 0 22 -15l83 -126q5 -8 5 -15q0 -13 -15 -22q-7 -5 -16 -5q-12 0 -21 16l-67 117l-109 -117q-14 -17 -28 -17q-8 0 -13 5
q-9 8 -9 16z" />
    <glyph glyph-name="Idieresis" unicode="&#xcf;" horiz-adv-x="303" 
d="M84 11q0 7 1 11l116 656q5 32 31 32q23 0 23 -24l-1 -8l-116 -656q-6 -32 -33 -32q-21 0 -21 21zM128.5 822.5q-10.5 10.5 -10.5 25.5q0 18 16 33.5t35 15.5q14 0 24.5 -10.5t10.5 -25.5q0 -18 -15.5 -33.5t-34.5 -15.5q-15 0 -25.5 10.5zM324.5 822.5
q-10.5 10.5 -10.5 25.5q0 18 16 33.5t35 15.5q14 0 24.5 -10.5t10.5 -25.5q0 -18 -15.5 -33.5t-34.5 -15.5q-15 0 -25.5 10.5z" />
    <glyph glyph-name="Idotaccent" unicode="&#x130;" horiz-adv-x="303" 
d="M84 11q0 7 1 11l116 656q5 32 31 32q23 0 23 -24l-1 -8l-116 -656q-6 -32 -33 -32q-21 0 -21 21zM225.5 822.5q-10.5 10.5 -10.5 25.5q0 18 16 33.5t35 15.5q14 0 24.5 -10.5t10.5 -25.5q0 -18 -15.5 -33.5t-34.5 -15.5q-15 0 -25.5 10.5z" />
    <glyph glyph-name="uni1ECA" unicode="&#x1eca;" horiz-adv-x="303" 
d="M84 11q0 7 1 11l116 656q5 32 31 32q23 0 23 -24l-1 -8l-116 -656q-6 -32 -33 -32q-21 0 -21 21zM54.5 -145.5q-10.5 10.5 -10.5 25.5q0 18 16 33.5t35 15.5q14 0 24.5 -10.5t10.5 -25.5q0 -18 -15.5 -33.5t-34.5 -15.5q-15 0 -25.5 10.5z" />
    <glyph glyph-name="Igrave" unicode="&#xcc;" horiz-adv-x="303" 
d="M84 11q0 7 1 11l116 656q5 32 31 32q23 0 23 -24l-1 -8l-116 -656q-6 -32 -33 -32q-21 0 -21 21zM249 792q-11 0 -17 14l-53 137q-3 8 -3 14q0 14 19 23q8 4 14 4q15 0 21 -24l40 -139q1 -2 1 -8q0 -14 -13 -19q-6 -2 -9 -2z" />
    <glyph glyph-name="uni1EC8" unicode="&#x1ec8;" horiz-adv-x="303" 
d="M84 11q0 7 1 11l116 656q5 32 31 32q23 0 23 -24l-1 -8l-116 -656q-6 -32 -33 -32q-21 0 -21 21zM220 776q0 6 1 9l2 9q3 17 15 28.5t33 25.5q21 15 31 26t10 26q0 28 -37 28q-40 0 -63 -27q-12 -15 -21 -15t-14 5t-5 12q0 9 5 15q16 21 44.5 36t60.5 15q38 0 57 -17
t19 -44q0 -28 -13 -43.5t-37 -31.5q-17 -11 -25.5 -19t-8.5 -21v-8q-5 -13 -12.5 -19t-20.5 -6q-21 0 -21 16z" />
    <glyph glyph-name="Imacron" unicode="&#x12a;" horiz-adv-x="303" 
d="M84 11q0 7 1 11l116 656q5 32 31 32q23 0 23 -24l-1 -8l-116 -656q-6 -32 -33 -32q-21 0 -21 21zM101 809q0 15 8.5 20.5t25.5 5.5h240q13 0 20 -3t7 -12q0 -26 -34 -26h-240q-27 0 -27 15z" />
    <glyph glyph-name="Iogonek" unicode="&#x12e;" horiz-adv-x="303" 
d="M41 -70.5q-26 -27.5 -26 -60.5q0 -16 12 -26.5t35 -10.5q33 0 63 23q10 7 15 7q7 0 12 -7q4 -6 4 -10q0 -10 -11 -19q-40 -34 -90 -34q-41 0 -63.5 20t-22.5 50q0 44 34 80.5t81 69.5q0 6 1 10l116 656q5 32 31 32q23 0 23 -24l-1 -8l-116 -656q-5 -22 -19 -29
q-52 -36 -78 -63.5z" />
    <glyph glyph-name="Itilde" unicode="&#x128;" horiz-adv-x="303" 
d="M84 11q0 7 1 11l116 656q5 32 31 32q23 0 23 -24l-1 -8l-116 -656q-6 -32 -33 -32q-21 0 -21 21zM94 817q0 4 4 16q12 33 40 54t60 21q24 0 40.5 -8.5t34.5 -24.5q18 -13 27.5 -18.5t22.5 -5.5q38 0 56 45q7 19 23 19q19 0 19 -15q0 -7 -3 -16q-12 -33 -40.5 -53.5
t-59.5 -20.5q-21 0 -36 8t-33 23q-18 13 -29.5 19.5t-26.5 6.5q-18 0 -33 -12t-23 -33q-7 -19 -23 -19q-20 0 -20 14z" />
    <glyph glyph-name="J" unicode="J" horiz-adv-x="605" 
d="M37 103q-4 7 -4 13q0 12 13 23q7 7 17 7q13 0 21 -12q29 -54 67 -74t110 -20q77 0 128.5 45.5t65.5 125.5l83 467q5 32 31 32q23 0 23 -24l-1 -8l-82 -463q-19 -106 -87 -165.5t-170 -59.5q-144 0 -215 113z" />
    <glyph glyph-name="Jcircumflex" unicode="&#x134;" horiz-adv-x="605" 
d="M37 103q-4 7 -4 13q0 12 13 23q7 7 17 7q13 0 21 -12q29 -54 67 -74t110 -20q77 0 128.5 45.5t65.5 125.5l83 467q5 32 31 32q23 0 23 -24l-1 -8l-82 -463q-19 -106 -87 -165.5t-170 -59.5q-144 0 -215 113zM448 812q0 10 12 22l128 126q15 15 28 15q12 0 22 -15l83 -126
q5 -8 5 -15q0 -13 -15 -22q-7 -5 -16 -5q-12 0 -21 16l-67 117l-109 -117q-14 -17 -28 -17q-8 0 -13 5q-9 8 -9 16z" />
    <glyph glyph-name="K" unicode="K" horiz-adv-x="690" 
d="M555 -10q-8 0 -13.5 6t-6.5 16q-6 92 -29 155t-70 113t-129 103l-155 -112l-44 -248q-6 -32 -33 -32q-21 0 -21 21q0 7 1 11l116 655q6 32 31 32q23 0 23 -24l-1 -8l-61 -343l488 364q6 5 15 5q12 0 17 -8q4 -5 4 -13q0 -13 -11 -22l-325 -246q83 -61 131.5 -118t72 -122
t29.5 -153q1 -11 -5.5 -20t-17.5 -11z" />
    <glyph glyph-name="uni0136" unicode="&#x136;" horiz-adv-x="690" 
d="M555 -10q-8 0 -13.5 6t-6.5 16q-6 92 -29 155t-70 113t-129 103l-155 -112l-44 -248q-6 -32 -33 -32q-21 0 -21 21q0 7 1 11l116 655q6 32 31 32q23 0 23 -24l-1 -8l-61 -343l488 364q6 5 15 5q12 0 17 -8q4 -5 4 -13q0 -13 -11 -22l-325 -246q83 -61 131.5 -118t72 -122
t29.5 -153q1 -11 -5.5 -20t-17.5 -11zM184 -274q0 10 19 23q67 45 75 85q-9 -3 -17 -3q-17 0 -29 11t-12 27q0 26 18.5 43t46.5 17q21 0 33 -13t12 -37q0 -38 -27 -78.5t-74 -73.5q-11 -8 -19.5 -13t-13.5 -5q-4 0 -9 7q-3 6 -3 10z" />
    <glyph glyph-name="L" unicode="L" horiz-adv-x="628" 
d="M95.5 23.5q-26.5 23.5 -26.5 63.5q0 7 2 23l101 568q6 32 31 32q23 0 23 -23q0 -6 -1 -9l-101 -571q-1 -5 -1 -13q0 -22 12.5 -34.5t34.5 -12.5h338q32 0 26 -24q-5 -23 -34 -23h-332q-46 0 -72.5 23.5z" />
    <glyph glyph-name="Lacute" unicode="&#x139;" horiz-adv-x="608" 
d="M95.5 23.5q-26.5 23.5 -26.5 63.5q0 7 2 23l101 568q6 32 31 32q23 0 23 -23q0 -6 -1 -9l-101 -571q-1 -5 -1 -13q0 -22 12.5 -34.5t34.5 -12.5h338q32 0 26 -24q-5 -23 -34 -23h-332q-46 0 -72.5 23.5zM202 806q0 7 5 15l88 139q16 24 30 24q6 0 13 -4q12 -7 12 -17
q0 -8 -9 -20l-102 -137q-11 -14 -22 -14q-2 0 -8 2q-7 3 -7 12z" />
    <glyph glyph-name="Lcaron" unicode="&#x13d;" horiz-adv-x="608" 
d="M95.5 23.5q-26.5 23.5 -26.5 63.5q0 7 2 23l101 568q6 32 31 32q23 0 23 -23q0 -6 -1 -9l-101 -571q-1 -5 -1 -13q0 -22 12.5 -34.5t34.5 -12.5h338q32 0 26 -24q-5 -23 -34 -23h-332q-46 0 -72.5 23.5zM425 512q0 6 4.5 11t14.5 12q66 48 73 84q-9 -3 -16 -3
q-17 0 -29 11t-12 27q0 25 18.5 42t45.5 17q21 0 33 -12.5t12 -36.5q0 -38 -26.5 -77t-73.5 -73q-3 -2 -14.5 -10t-17.5 -8q-4 0 -9 7q-3 5 -3 9z" />
    <glyph glyph-name="uni013B" unicode="&#x13b;" horiz-adv-x="628" 
d="M95.5 23.5q-26.5 23.5 -26.5 63.5q0 7 2 23l101 568q6 32 31 32q23 0 23 -23q0 -6 -1 -9l-101 -571q-1 -5 -1 -13q0 -22 12.5 -34.5t34.5 -12.5h338q32 0 26 -24q-5 -23 -34 -23h-332q-46 0 -72.5 23.5zM152 -274q0 10 19 23q67 45 75 85q-9 -3 -17 -3q-17 0 -29 11
t-12 27q0 26 18.5 43t46.5 17q21 0 33 -13t12 -37q0 -38 -27 -78.5t-74 -73.5q-11 -8 -19.5 -13t-13.5 -5q-4 0 -9 7q-3 6 -3 10z" />
    <glyph glyph-name="Ldot" unicode="&#x13f;" horiz-adv-x="628" 
d="M95.5 23.5q-26.5 23.5 -26.5 63.5q0 7 2 23l101 568q6 32 31 32q23 0 23 -23q0 -6 -1 -9l-101 -571q-1 -5 -1 -13q0 -22 12.5 -34.5t34.5 -12.5h338q32 0 26 -24q-5 -23 -34 -23h-332q-46 0 -72.5 23.5zM336.5 302.5q-12.5 12.5 -12.5 29.5q0 22 19 40.5t42 18.5
q17 0 29.5 -12.5t12.5 -30.5q0 -22 -19 -40t-41 -18q-18 0 -30.5 12.5z" />
    <glyph glyph-name="uni1E36" unicode="&#x1e36;" horiz-adv-x="628" 
d="M95.5 23.5q-26.5 23.5 -26.5 63.5q0 7 2 23l101 568q6 32 31 32q23 0 23 -23q0 -6 -1 -9l-101 -571q-1 -5 -1 -13q0 -22 12.5 -34.5t34.5 -12.5h338q32 0 26 -24q-5 -23 -34 -23h-332q-46 0 -72.5 23.5zM216.5 -145.5q-10.5 10.5 -10.5 25.5q0 18 16 33.5t35 15.5
q14 0 24.5 -10.5t10.5 -25.5q0 -18 -15.5 -33.5t-34.5 -15.5q-15 0 -25.5 10.5z" />
    <glyph glyph-name="uni1E38" unicode="&#x1e38;" horiz-adv-x="608" 
d="M95.5 23.5q-26.5 23.5 -26.5 63.5q0 7 2 23l101 568q6 32 31 32q23 0 23 -23q0 -6 -1 -9l-101 -571q-1 -5 -1 -13q0 -22 12.5 -34.5t34.5 -12.5h338q32 0 26 -24q-5 -23 -34 -23h-332q-46 0 -72.5 23.5zM216.5 -145.5q-10.5 10.5 -10.5 25.5q0 18 16 33.5t35 15.5
q14 0 24.5 -10.5t10.5 -25.5q0 -18 -15.5 -33.5t-34.5 -15.5q-15 0 -25.5 10.5zM57 809q0 15 8.5 20.5t25.5 5.5h240q13 0 20 -3t7 -12q0 -26 -34 -26h-240q-27 0 -27 15z" />
    <glyph glyph-name="uni1E3A" unicode="&#x1e3a;" horiz-adv-x="628" 
d="M95.5 23.5q-26.5 23.5 -26.5 63.5q0 7 2 23l101 568q6 32 31 32q23 0 23 -23q0 -6 -1 -9l-101 -571q-1 -5 -1 -13q0 -22 12.5 -34.5t34.5 -12.5h338q32 0 26 -24q-5 -23 -34 -23h-332q-46 0 -72.5 23.5zM99 -119q0 15 8.5 20.5t25.5 5.5h240q13 0 20 -3t7 -12
q0 -26 -34 -26h-240q-27 0 -27 15z" />
    <glyph glyph-name="Lslash" unicode="&#x141;" horiz-adv-x="666" 
d="M572 23q-5 -23 -34 -23h-332q-46 0 -72.5 23.5t-26.5 63.5q0 7 2 23l46 261l-74 -47q-8 -4 -13 -4q-12 0 -15 9q-2 6 -2 9q0 7 3.5 13.5t9.5 10.5l101 64l45 252q6 32 31 32q23 0 23 -23q0 -6 -1 -9l-38 -214l69 43q8 4 12 4q12 0 17 -11q2 -6 2 -9q0 -6 -3.5 -12
t-9.5 -10l-97 -61l-53 -301q-1 -5 -1 -13q0 -22 12.5 -34.5t34.5 -12.5h338q32 0 26 -24z" />
    <glyph glyph-name="M" unicode="M" horiz-adv-x="992" 
d="M50 11q0 7 1 11l82 468q19 106 83.5 163t167.5 57q61 0 109 -34t59 -85q31 53 90 86t125 33q87 0 134.5 -44t47.5 -122q0 -22 -5 -54l-82 -468q-6 -32 -33 -32q-21 0 -21 21q0 7 1 11l82 468q5 30 5 50q0 61 -34 90.5t-104 29.5q-76 0 -128 -45.5t-66 -124.5l-82 -468
q-6 -32 -32 -32q-20 0 -20 21q0 7 1 11l82 468q3 20 3 38q0 61 -36.5 96.5t-100.5 35.5q-80 0 -129 -43t-64 -127l-82 -468q-6 -32 -33 -32q-21 0 -21 21z" />
    <glyph glyph-name="uni1E42" unicode="&#x1e42;" horiz-adv-x="992" 
d="M50 11q0 7 1 11l82 468q19 106 83.5 163t167.5 57q61 0 109 -34t59 -85q31 53 90 86t125 33q87 0 134.5 -44t47.5 -122q0 -22 -5 -54l-82 -468q-6 -32 -33 -32q-21 0 -21 21q0 7 1 11l82 468q5 30 5 50q0 61 -34 90.5t-104 29.5q-76 0 -128 -45.5t-66 -124.5l-82 -468
q-6 -32 -32 -32q-20 0 -20 21q0 7 1 11l82 468q3 20 3 38q0 61 -36.5 96.5t-100.5 35.5q-80 0 -129 -43t-64 -127l-82 -468q-6 -32 -33 -32q-21 0 -21 21zM399.5 -145.5q-10.5 10.5 -10.5 25.5q0 18 16 33.5t35 15.5q14 0 24.5 -10.5t10.5 -25.5q0 -18 -15.5 -33.5
t-34.5 -15.5q-15 0 -25.5 10.5z" />
    <glyph glyph-name="N" unicode="N" horiz-adv-x="750" 
d="M49 11q0 7 1 11l74 419q23 131 107 200t220 69q118 0 183.5 -55t65.5 -154q0 -28 -6 -60l-74 -419q-6 -32 -32 -32q-22 0 -22 22q0 6 1 10l75 422q6 32 6 58q0 159 -200 159q-114 0 -182.5 -55t-87.5 -162l-75 -422q-6 -32 -33 -32q-21 0 -21 21z" />
    <glyph glyph-name="Nacute" unicode="&#x143;" horiz-adv-x="750" 
d="M49 11q0 7 1 11l74 419q23 131 107 200t220 69q118 0 183.5 -55t65.5 -154q0 -28 -6 -60l-74 -419q-6 -32 -32 -32q-22 0 -22 22q0 6 1 10l75 422q6 32 6 58q0 159 -200 159q-114 0 -182.5 -55t-87.5 -162l-75 -422q-6 -32 -33 -32q-21 0 -21 21zM453 806q0 7 5 15
l88 139q16 24 30 24q6 0 13 -4q12 -7 12 -17q0 -8 -9 -20l-102 -137q-11 -14 -22 -14q-2 0 -8 2q-7 3 -7 12z" />
    <glyph glyph-name="Ncaron" unicode="&#x147;" horiz-adv-x="750" 
d="M49 11q0 7 1 11l74 419q23 131 107 200t220 69q118 0 183.5 -55t65.5 -154q0 -28 -6 -60l-74 -419q-6 -32 -32 -32q-22 0 -22 22q0 6 1 10l75 422q6 32 6 58q0 159 -200 159q-114 0 -182.5 -55t-87.5 -162l-75 -422q-6 -32 -33 -32q-21 0 -21 21zM449 806l-84 126
q-5 8 -5 15q0 12 16 22q6 5 15 5q12 0 21 -16l68 -117l109 117q15 17 29 17q5 0 12 -5q8 -7 8 -16q0 -11 -11 -22l-128 -126q-13 -15 -28 -15q-12 0 -22 15z" />
    <glyph glyph-name="uni0145" unicode="&#x145;" horiz-adv-x="750" 
d="M49 11q0 7 1 11l74 419q23 131 107 200t220 69q118 0 183.5 -55t65.5 -154q0 -28 -6 -60l-74 -419q-6 -32 -32 -32q-22 0 -22 22q0 6 1 10l75 422q6 32 6 58q0 159 -200 159q-114 0 -182.5 -55t-87.5 -162l-75 -422q-6 -32 -33 -32q-21 0 -21 21zM220 -274q0 10 19 23
q67 45 75 85q-9 -3 -17 -3q-17 0 -29 11t-12 27q0 26 18.5 43t46.5 17q21 0 33 -13t12 -37q0 -38 -27 -78.5t-74 -73.5q-11 -8 -19.5 -13t-13.5 -5q-4 0 -9 7q-3 6 -3 10z" />
    <glyph glyph-name="uni1E44" unicode="&#x1e44;" horiz-adv-x="750" 
d="M49 11q0 7 1 11l74 419q23 131 107 200t220 69q118 0 183.5 -55t65.5 -154q0 -28 -6 -60l-74 -419q-6 -32 -32 -32q-22 0 -22 22q0 6 1 10l75 422q6 32 6 58q0 159 -200 159q-114 0 -182.5 -55t-87.5 -162l-75 -422q-6 -32 -33 -32q-21 0 -21 21zM449.5 822.5
q-10.5 10.5 -10.5 25.5q0 18 16 33.5t35 15.5q14 0 24.5 -10.5t10.5 -25.5q0 -18 -15.5 -33.5t-34.5 -15.5q-15 0 -25.5 10.5z" />
    <glyph glyph-name="uni1E46" unicode="&#x1e46;" horiz-adv-x="750" 
d="M49 11q0 7 1 11l74 419q23 131 107 200t220 69q118 0 183.5 -55t65.5 -154q0 -28 -6 -60l-74 -419q-6 -32 -32 -32q-22 0 -22 22q0 6 1 10l75 422q6 32 6 58q0 159 -200 159q-114 0 -182.5 -55t-87.5 -162l-75 -422q-6 -32 -33 -32q-21 0 -21 21zM284.5 -145.5
q-10.5 10.5 -10.5 25.5q0 18 16 33.5t35 15.5q14 0 24.5 -10.5t10.5 -25.5q0 -18 -15.5 -33.5t-34.5 -15.5q-15 0 -25.5 10.5z" />
    <glyph glyph-name="Eng" unicode="&#x14a;" horiz-adv-x="730" 
d="M211.5 -238q-53.5 28 -84.5 85q-4 7 -4 14q0 11 12 22q8 7 18 7q14 0 20 -12q20 -37 42.5 -57t53.5 -28.5t82 -8.5q78 0 129 45t65 126l87 489q6 32 6 58q0 159 -200 159q-114 0 -182.5 -55t-87.5 -162l-75 -422q-6 -32 -33 -32q-21 0 -21 21q0 7 1 11l74 419
q23 131 107 200t220 69q118 0 183.5 -55t65.5 -154q0 -28 -6 -60l-85 -482q-18 -102 -87.5 -163.5t-167.5 -61.5q-79 0 -132.5 28z" />
    <glyph glyph-name="uni1E48" unicode="&#x1e48;" horiz-adv-x="750" 
d="M49 11q0 7 1 11l74 419q23 131 107 200t220 69q118 0 183.5 -55t65.5 -154q0 -28 -6 -60l-74 -419q-6 -32 -32 -32q-22 0 -22 22q0 6 1 10l75 422q6 32 6 58q0 159 -200 159q-114 0 -182.5 -55t-87.5 -162l-75 -422q-6 -32 -33 -32q-21 0 -21 21zM167 -119q0 15 8.5 20.5
t25.5 5.5h240q13 0 20 -3t7 -12q0 -26 -34 -26h-240q-27 0 -27 15z" />
    <glyph glyph-name="Ntilde" unicode="&#xd1;" horiz-adv-x="750" 
d="M49 11q0 7 1 11l74 419q23 131 107 200t220 69q118 0 183.5 -55t65.5 -154q0 -28 -6 -60l-74 -419q-6 -32 -32 -32q-22 0 -22 22q0 6 1 10l75 422q6 32 6 58q0 159 -200 159q-114 0 -182.5 -55t-87.5 -162l-75 -422q-6 -32 -33 -32q-21 0 -21 21zM318 817q0 4 4 16
q12 33 40 54t60 21q24 0 40.5 -8.5t34.5 -24.5q18 -13 27.5 -18.5t22.5 -5.5q38 0 56 45q7 19 23 19q19 0 19 -15q0 -7 -3 -16q-12 -33 -40.5 -53.5t-59.5 -20.5q-21 0 -36 8t-33 23q-18 13 -29.5 19.5t-26.5 6.5q-18 0 -33 -12t-23 -33q-7 -19 -23 -19q-20 0 -20 14z" />
    <glyph glyph-name="O" unicode="O" horiz-adv-x="828" 
d="M216.5 25.5q-66.5 35.5 -103.5 102.5t-37 159q0 113 55.5 210.5t150.5 155t210 57.5q88 0 155 -36t104 -102.5t37 -157.5q0 -113 -55.5 -210.5t-151 -155.5t-210.5 -58q-88 0 -154.5 35.5zM557.5 89.5q82.5 50.5 130 136t47.5 186.5q0 119 -65.5 184t-179.5 65
q-101 0 -183.5 -50.5t-130 -136t-47.5 -186.5q0 -119 65.5 -184t179.5 -65q101 0 183.5 50.5z" />
    <glyph glyph-name="Oacute" unicode="&#xd3;" horiz-adv-x="828" 
d="M216.5 25.5q-66.5 35.5 -103.5 102.5t-37 159q0 113 55.5 210.5t150.5 155t210 57.5q88 0 155 -36t104 -102.5t37 -157.5q0 -113 -55.5 -210.5t-151 -155.5t-210.5 -58q-88 0 -154.5 35.5zM557.5 89.5q82.5 50.5 130 136t47.5 186.5q0 119 -65.5 184t-179.5 65
q-101 0 -183.5 -50.5t-130 -136t-47.5 -186.5q0 -119 65.5 -184t179.5 -65q101 0 183.5 50.5zM491 806q0 7 5 15l88 139q16 24 30 24q6 0 13 -4q12 -7 12 -17q0 -8 -9 -20l-102 -137q-11 -14 -22 -14q-2 0 -8 2q-7 3 -7 12z" />
    <glyph glyph-name="Obreve" unicode="&#x14e;" horiz-adv-x="828" 
d="M216.5 25.5q-66.5 35.5 -103.5 102.5t-37 159q0 113 55.5 210.5t150.5 155t210 57.5q88 0 155 -36t104 -102.5t37 -157.5q0 -113 -55.5 -210.5t-151 -155.5t-210.5 -58q-88 0 -154.5 35.5zM557.5 89.5q82.5 50.5 130 136t47.5 186.5q0 119 -65.5 184t-179.5 65
q-101 0 -183.5 -50.5t-130 -136t-47.5 -186.5q0 -119 65.5 -184t179.5 -65q101 0 183.5 50.5zM421.5 824q-30.5 32 -30.5 80q0 59 32 59q20 0 20 -20q0 -54 4.5 -75.5t18.5 -28t50 -6.5q47 0 74 26.5t35 71.5q6 32 30 32q20 0 20 -20q0 -38 -24 -73t-62.5 -56.5t-79.5 -21.5
q-57 0 -87.5 32z" />
    <glyph glyph-name="uni01D1" unicode="&#x1d1;" horiz-adv-x="828" 
d="M216.5 25.5q-66.5 35.5 -103.5 102.5t-37 159q0 113 55.5 210.5t150.5 155t210 57.5q88 0 155 -36t104 -102.5t37 -157.5q0 -113 -55.5 -210.5t-151 -155.5t-210.5 -58q-88 0 -154.5 35.5zM557.5 89.5q82.5 50.5 130 136t47.5 186.5q0 119 -65.5 184t-179.5 65
q-101 0 -183.5 -50.5t-130 -136t-47.5 -186.5q0 -119 65.5 -184t179.5 -65q101 0 183.5 50.5zM487 806l-84 126q-5 8 -5 15q0 12 16 22q6 5 15 5q12 0 21 -16l68 -117l109 117q15 17 29 17q5 0 12 -5q8 -7 8 -16q0 -11 -11 -22l-128 -126q-13 -15 -28 -15q-12 0 -22 15z" />
    <glyph glyph-name="Ocircumflex" unicode="&#xd4;" horiz-adv-x="828" 
d="M216.5 25.5q-66.5 35.5 -103.5 102.5t-37 159q0 113 55.5 210.5t150.5 155t210 57.5q88 0 155 -36t104 -102.5t37 -157.5q0 -113 -55.5 -210.5t-151 -155.5t-210.5 -58q-88 0 -154.5 35.5zM557.5 89.5q82.5 50.5 130 136t47.5 186.5q0 119 -65.5 184t-179.5 65
q-101 0 -183.5 -50.5t-130 -136t-47.5 -186.5q0 -119 65.5 -184t179.5 -65q101 0 183.5 50.5zM374 812q0 10 12 22l128 126q15 15 28 15q12 0 22 -15l83 -126q5 -8 5 -15q0 -13 -15 -22q-7 -5 -16 -5q-12 0 -21 16l-67 117l-109 -117q-14 -17 -28 -17q-8 0 -13 5q-9 8 -9 16
z" />
    <glyph glyph-name="uni1ED0" unicode="&#x1ed0;" horiz-adv-x="828" 
d="M216.5 25.5q-66.5 35.5 -103.5 102.5t-37 159q0 113 55.5 210.5t150.5 155t210 57.5q88 0 155 -36t104 -102.5t37 -157.5q0 -113 -55.5 -210.5t-151 -155.5t-210.5 -58q-88 0 -154.5 35.5zM557.5 89.5q82.5 50.5 130 136t47.5 186.5q0 119 -65.5 184t-179.5 65
q-101 0 -183.5 -50.5t-130 -136t-47.5 -186.5q0 -119 65.5 -184t179.5 -65q101 0 183.5 50.5zM620 934q0 8 7 17l78 101q16 19 29 19q4 0 12 -4q12 -7 12 -16q0 -10 -11 -21l-91 -98q-10 -12 -20 -12q-4 0 -9 3q-7 4 -7 11zM374 813q0 11 12 21l125 109q17 15 27 15
q7 0 12 -3.5t11 -11.5l86 -108q5 -6 5 -15q0 -14 -15 -23q-8 -5 -14 -5q-11 0 -23 17l-70 99l-106 -100q-16 -16 -28 -16q-6 0 -13 5q-9 8 -9 16z" />
    <glyph glyph-name="uni1ED8" unicode="&#x1ed8;" horiz-adv-x="828" 
d="M216.5 25.5q-66.5 35.5 -103.5 102.5t-37 159q0 113 55.5 210.5t150.5 155t210 57.5q88 0 155 -36t104 -102.5t37 -157.5q0 -113 -55.5 -210.5t-151 -155.5t-210.5 -58q-88 0 -154.5 35.5zM557.5 89.5q82.5 50.5 130 136t47.5 186.5q0 119 -65.5 184t-179.5 65
q-101 0 -183.5 -50.5t-130 -136t-47.5 -186.5q0 -119 65.5 -184t179.5 -65q101 0 183.5 50.5zM316.5 -145.5q-10.5 10.5 -10.5 25.5q0 18 16 33.5t35 15.5q14 0 24.5 -10.5t10.5 -25.5q0 -18 -15.5 -33.5t-34.5 -15.5q-15 0 -25.5 10.5zM374 812q0 10 12 22l128 126
q15 15 28 15q12 0 22 -15l83 -126q5 -8 5 -15q0 -13 -15 -22q-7 -5 -16 -5q-12 0 -21 16l-67 117l-109 -117q-14 -17 -28 -17q-8 0 -13 5q-9 8 -9 16z" />
    <glyph glyph-name="uni1ED2" unicode="&#x1ed2;" horiz-adv-x="828" 
d="M216.5 25.5q-66.5 35.5 -103.5 102.5t-37 159q0 113 55.5 210.5t150.5 155t210 57.5q88 0 155 -36t104 -102.5t37 -157.5q0 -113 -55.5 -210.5t-151 -155.5t-210.5 -58q-88 0 -154.5 35.5zM557.5 89.5q82.5 50.5 130 136t47.5 186.5q0 119 -65.5 184t-179.5 65
q-101 0 -183.5 -50.5t-130 -136t-47.5 -186.5q0 -119 65.5 -184t179.5 -65q101 0 183.5 50.5zM675 920q-9 0 -15 12l-57 98q-4 8 -4 14q0 14 18 23q10 4 14 4q14 0 22 -19l42 -101q2 -6 2 -11q0 -10 -12 -17q-6 -3 -10 -3zM374 813q0 11 12 21l125 109q17 15 27 15
q8 0 12.5 -3t10.5 -11l87 -109q5 -7 5 -14q0 -13 -16 -24q-8 -5 -14 -5q-11 0 -23 17l-70 99l-106 -100q-16 -16 -28 -16q-6 0 -13 5q-9 8 -9 16z" />
    <glyph glyph-name="uni1ED4" unicode="&#x1ed4;" horiz-adv-x="828" 
d="M216.5 25.5q-66.5 35.5 -103.5 102.5t-37 159q0 113 55.5 210.5t150.5 155t210 57.5q88 0 155 -36t104 -102.5t37 -157.5q0 -113 -55.5 -210.5t-151 -155.5t-210.5 -58q-88 0 -154.5 35.5zM557.5 89.5q82.5 50.5 130 136t47.5 186.5q0 119 -65.5 184t-179.5 65
q-101 0 -183.5 -50.5t-130 -136t-47.5 -186.5q0 -119 65.5 -184t179.5 -65q101 0 183.5 50.5zM607 932q0 5 1 8l2 8q4 15 14.5 25.5t29.5 24.5q19 13 28.5 23.5t9.5 24.5q0 26 -35 26q-19 0 -31.5 -5.5t-22.5 -16.5q-10 -13 -19 -13q-5 0 -9 3q-10 5 -10 13q0 7 6 14
q15 19 38.5 31t54.5 12q36 0 53 -15.5t17 -40.5q0 -27 -12 -41.5t-35 -28.5q-16 -11 -23.5 -18.5t-9.5 -18.5l-1 -7q-2 -12 -8 -17.5t-19 -5.5q-19 0 -19 15zM374 813q0 11 12 21l125 109q17 15 27 15q8 0 12.5 -3t10.5 -11l87 -109q5 -7 5 -14q0 -13 -16 -24q-8 -5 -14 -5
q-11 0 -23 17l-70 99l-106 -100q-16 -16 -28 -16q-6 0 -13 5q-9 8 -9 16z" />
    <glyph glyph-name="uni1ED6" unicode="&#x1ed6;" horiz-adv-x="828" 
d="M216.5 25.5q-66.5 35.5 -103.5 102.5t-37 159q0 113 55.5 210.5t150.5 155t210 57.5q88 0 155 -36t104 -102.5t37 -157.5q0 -113 -55.5 -210.5t-151 -155.5t-210.5 -58q-88 0 -154.5 35.5zM557.5 89.5q82.5 50.5 130 136t47.5 186.5q0 119 -65.5 184t-179.5 65
q-101 0 -183.5 -50.5t-130 -136t-47.5 -186.5q0 -119 65.5 -184t179.5 -65q101 0 183.5 50.5zM405.5 979.5q-3.5 3.5 -3.5 10.5l2 13q10 32 37 52.5t59 20.5q22 0 37 -8t35 -23q14 -12 24 -18t23 -6q36 0 54 43q7 18 21 18q19 0 19 -14q0 -5 -3 -14q-9 -31 -37 -51.5
t-59 -20.5q-20 0 -33.5 7t-32.5 22q-15 13 -26.5 19.5t-26.5 6.5q-17 0 -31 -11.5t-22 -30.5q-7 -19 -22 -19q-11 0 -14.5 3.5zM374 814q0 11 12 21l125 109q9 8 14.5 11.5t12.5 3.5q15 0 23 -15l86 -109q5 -6 5 -15q0 -12 -15 -23q-8 -5 -14 -5q-11 0 -23 17l-70 100
l-106 -100q-16 -16 -28 -16q-6 0 -13 5q-9 8 -9 16z" />
    <glyph glyph-name="Odieresis" unicode="&#xd6;" horiz-adv-x="828" 
d="M216.5 25.5q-66.5 35.5 -103.5 102.5t-37 159q0 113 55.5 210.5t150.5 155t210 57.5q88 0 155 -36t104 -102.5t37 -157.5q0 -113 -55.5 -210.5t-151 -155.5t-210.5 -58q-88 0 -154.5 35.5zM557.5 89.5q82.5 50.5 130 136t47.5 186.5q0 119 -65.5 184t-179.5 65
q-101 0 -183.5 -50.5t-130 -136t-47.5 -186.5q0 -119 65.5 -184t179.5 -65q101 0 183.5 50.5zM390.5 822.5q-10.5 10.5 -10.5 25.5q0 18 16 33.5t35 15.5q14 0 24.5 -10.5t10.5 -25.5q0 -18 -15.5 -33.5t-34.5 -15.5q-15 0 -25.5 10.5zM586.5 822.5q-10.5 10.5 -10.5 25.5
q0 18 16 33.5t35 15.5q14 0 24.5 -10.5t10.5 -25.5q0 -18 -15.5 -33.5t-34.5 -15.5q-15 0 -25.5 10.5z" />
    <glyph glyph-name="uni1ECC" unicode="&#x1ecc;" horiz-adv-x="828" 
d="M216.5 25.5q-66.5 35.5 -103.5 102.5t-37 159q0 113 55.5 210.5t150.5 155t210 57.5q88 0 155 -36t104 -102.5t37 -157.5q0 -113 -55.5 -210.5t-151 -155.5t-210.5 -58q-88 0 -154.5 35.5zM557.5 89.5q82.5 50.5 130 136t47.5 186.5q0 119 -65.5 184t-179.5 65
q-101 0 -183.5 -50.5t-130 -136t-47.5 -186.5q0 -119 65.5 -184t179.5 -65q101 0 183.5 50.5zM316.5 -145.5q-10.5 10.5 -10.5 25.5q0 18 16 33.5t35 15.5q14 0 24.5 -10.5t10.5 -25.5q0 -18 -15.5 -33.5t-34.5 -15.5q-15 0 -25.5 10.5z" />
    <glyph glyph-name="Ograve" unicode="&#xd2;" horiz-adv-x="828" 
d="M216.5 25.5q-66.5 35.5 -103.5 102.5t-37 159q0 113 55.5 210.5t150.5 155t210 57.5q88 0 155 -36t104 -102.5t37 -157.5q0 -113 -55.5 -210.5t-151 -155.5t-210.5 -58q-88 0 -154.5 35.5zM557.5 89.5q82.5 50.5 130 136t47.5 186.5q0 119 -65.5 184t-179.5 65
q-101 0 -183.5 -50.5t-130 -136t-47.5 -186.5q0 -119 65.5 -184t179.5 -65q101 0 183.5 50.5zM511 792q-11 0 -17 14l-53 137q-3 8 -3 14q0 14 19 23q8 4 14 4q15 0 21 -24l40 -139q1 -2 1 -8q0 -14 -13 -19q-6 -2 -9 -2z" />
    <glyph glyph-name="uni1ECE" unicode="&#x1ece;" horiz-adv-x="828" 
d="M216.5 25.5q-66.5 35.5 -103.5 102.5t-37 159q0 113 55.5 210.5t150.5 155t210 57.5q88 0 155 -36t104 -102.5t37 -157.5q0 -113 -55.5 -210.5t-151 -155.5t-210.5 -58q-88 0 -154.5 35.5zM557.5 89.5q82.5 50.5 130 136t47.5 186.5q0 119 -65.5 184t-179.5 65
q-101 0 -183.5 -50.5t-130 -136t-47.5 -186.5q0 -119 65.5 -184t179.5 -65q101 0 183.5 50.5zM482 776q0 6 1 9l2 9q3 17 15 28.5t33 25.5q21 15 31 26t10 26q0 28 -37 28q-40 0 -63 -27q-12 -15 -21 -15t-14 5t-5 12q0 9 5 15q16 21 44.5 36t60.5 15q38 0 57 -17t19 -44
q0 -28 -13 -43.5t-37 -31.5q-17 -11 -25.5 -19t-8.5 -21v-8q-5 -13 -12.5 -19t-20.5 -6q-21 0 -21 16z" />
    <glyph glyph-name="Ohorn" unicode="&#x1a0;" horiz-adv-x="828" 
d="M858 673q-19 -32 -50.5 -54.5t-67.5 -28.5q48 -73 48 -176q0 -113 -55.5 -210.5t-151 -155.5t-210.5 -58q-88 0 -154.5 35.5t-103.5 102.5t-37 159q0 113 55.5 210.5t150.5 155t210 57.5q67 0 121.5 -20.5t93.5 -59.5l23 3q40 4 64 28.5t31 65.5q5 32 32 32q20 0 20 -21
q0 -33 -19 -65zM557.5 89.5q82.5 50.5 130 136t47.5 186.5q0 119 -65.5 184t-179.5 65q-101 0 -183.5 -50.5t-130 -136t-47.5 -186.5q0 -119 65.5 -184t179.5 -65q101 0 183.5 50.5z" />
    <glyph glyph-name="uni1EDA" unicode="&#x1eda;" horiz-adv-x="828" 
d="M858 673q-19 -32 -50.5 -54.5t-67.5 -28.5q48 -73 48 -176q0 -113 -55.5 -210.5t-151 -155.5t-210.5 -58q-88 0 -154.5 35.5t-103.5 102.5t-37 159q0 113 55.5 210.5t150.5 155t210 57.5q67 0 121.5 -20.5t93.5 -59.5l23 3q40 4 64 28.5t31 65.5q5 32 32 32q20 0 20 -21
q0 -33 -19 -65zM557.5 89.5q82.5 50.5 130 136t47.5 186.5q0 119 -65.5 184t-179.5 65q-101 0 -183.5 -50.5t-130 -136t-47.5 -186.5q0 -119 65.5 -184t179.5 -65q101 0 183.5 50.5zM476 806q0 7 5 15l88 139q16 24 30 24q6 0 13 -4q12 -7 12 -17q0 -8 -9 -20l-102 -137
q-11 -14 -22 -14q-2 0 -8 2q-7 3 -7 12z" />
    <glyph glyph-name="uni1EE2" unicode="&#x1ee2;" horiz-adv-x="828" 
d="M858 673q-19 -32 -50.5 -54.5t-67.5 -28.5q48 -73 48 -176q0 -113 -55.5 -210.5t-151 -155.5t-210.5 -58q-88 0 -154.5 35.5t-103.5 102.5t-37 159q0 113 55.5 210.5t150.5 155t210 57.5q67 0 121.5 -20.5t93.5 -59.5l23 3q40 4 64 28.5t31 65.5q5 32 32 32q20 0 20 -21
q0 -33 -19 -65zM557.5 89.5q82.5 50.5 130 136t47.5 186.5q0 119 -65.5 184t-179.5 65q-101 0 -183.5 -50.5t-130 -136t-47.5 -186.5q0 -119 65.5 -184t179.5 -65q101 0 183.5 50.5zM301.5 -145.5q-10.5 10.5 -10.5 25.5q0 18 16 33.5t35 15.5q14 0 24.5 -10.5t10.5 -25.5
q0 -18 -15.5 -33.5t-34.5 -15.5q-15 0 -25.5 10.5z" />
    <glyph glyph-name="uni1EDC" unicode="&#x1edc;" horiz-adv-x="828" 
d="M858 673q-19 -32 -50.5 -54.5t-67.5 -28.5q48 -73 48 -176q0 -113 -55.5 -210.5t-151 -155.5t-210.5 -58q-88 0 -154.5 35.5t-103.5 102.5t-37 159q0 113 55.5 210.5t150.5 155t210 57.5q67 0 121.5 -20.5t93.5 -59.5l23 3q40 4 64 28.5t31 65.5q5 32 32 32q20 0 20 -21
q0 -33 -19 -65zM557.5 89.5q82.5 50.5 130 136t47.5 186.5q0 119 -65.5 184t-179.5 65q-101 0 -183.5 -50.5t-130 -136t-47.5 -186.5q0 -119 65.5 -184t179.5 -65q101 0 183.5 50.5zM496 792q-11 0 -17 14l-53 137q-3 8 -3 14q0 14 19 23q8 4 14 4q15 0 21 -24l40 -139
q1 -2 1 -8q0 -14 -13 -19q-6 -2 -9 -2z" />
    <glyph glyph-name="uni1EDE" unicode="&#x1ede;" horiz-adv-x="828" 
d="M858 673q-19 -32 -50.5 -54.5t-67.5 -28.5q48 -73 48 -176q0 -113 -55.5 -210.5t-151 -155.5t-210.5 -58q-88 0 -154.5 35.5t-103.5 102.5t-37 159q0 113 55.5 210.5t150.5 155t210 57.5q67 0 121.5 -20.5t93.5 -59.5l23 3q40 4 64 28.5t31 65.5q5 32 32 32q20 0 20 -21
q0 -33 -19 -65zM557.5 89.5q82.5 50.5 130 136t47.5 186.5q0 119 -65.5 184t-179.5 65q-101 0 -183.5 -50.5t-130 -136t-47.5 -186.5q0 -119 65.5 -184t179.5 -65q101 0 183.5 50.5zM467 776q0 6 1 9l2 9q3 17 15 28.5t33 25.5q21 15 31 26t10 26q0 28 -37 28q-40 0 -63 -27
q-12 -15 -21 -15t-14 5t-5 12q0 9 5 15q16 21 44.5 36t60.5 15q38 0 57 -17t19 -44q0 -28 -13 -43.5t-37 -31.5q-17 -11 -25.5 -19t-8.5 -21v-8q-5 -13 -12.5 -19t-20.5 -6q-21 0 -21 16z" />
    <glyph glyph-name="uni1EE0" unicode="&#x1ee0;" horiz-adv-x="828" 
d="M858 673q-19 -32 -50.5 -54.5t-67.5 -28.5q48 -73 48 -176q0 -113 -55.5 -210.5t-151 -155.5t-210.5 -58q-88 0 -154.5 35.5t-103.5 102.5t-37 159q0 113 55.5 210.5t150.5 155t210 57.5q67 0 121.5 -20.5t93.5 -59.5l23 3q40 4 64 28.5t31 65.5q5 32 32 32q20 0 20 -21
q0 -33 -19 -65zM557.5 89.5q82.5 50.5 130 136t47.5 186.5q0 119 -65.5 184t-179.5 65q-101 0 -183.5 -50.5t-130 -136t-47.5 -186.5q0 -119 65.5 -184t179.5 -65q101 0 183.5 50.5zM343 827q0 4 4 16q12 33 40 54t60 21q24 0 40.5 -8.5t34.5 -24.5q17 -13 27 -18.5t23 -5.5
q38 0 56 45q7 19 23 19q19 0 19 -15q0 -7 -3 -16q-12 -33 -40.5 -53.5t-59.5 -20.5q-21 0 -36 8t-33 23q-18 13 -29.5 19.5t-26.5 6.5q-18 0 -33 -12t-23 -33q-7 -19 -23 -19q-20 0 -20 14z" />
    <glyph glyph-name="Ohungarumlaut" unicode="&#x150;" horiz-adv-x="828" 
d="M216.5 25.5q-66.5 35.5 -103.5 102.5t-37 159q0 113 55.5 210.5t150.5 155t210 57.5q88 0 155 -36t104 -102.5t37 -157.5q0 -113 -55.5 -210.5t-151 -155.5t-210.5 -58q-88 0 -154.5 35.5zM557.5 89.5q82.5 50.5 130 136t47.5 186.5q0 119 -65.5 184t-179.5 65
q-101 0 -183.5 -50.5t-130 -136t-47.5 -186.5q0 -119 65.5 -184t179.5 -65q101 0 183.5 50.5zM399 798q0 7 7 16l120 149q9 11 15.5 16t13.5 5q6 0 13 -4q14 -8 14 -18q0 -8 -9 -19l-133 -147q-17 -19 -32 -12q-9 5 -9 14zM569 798q0 7 7 16l120 149q9 11 15.5 16t13.5 5
q6 0 13 -4q14 -8 14 -18q0 -8 -9 -19l-133 -147q-17 -19 -32 -12q-9 5 -9 14z" />
    <glyph glyph-name="Omacron" unicode="&#x14c;" horiz-adv-x="828" 
d="M216.5 25.5q-66.5 35.5 -103.5 102.5t-37 159q0 113 55.5 210.5t150.5 155t210 57.5q88 0 155 -36t104 -102.5t37 -157.5q0 -113 -55.5 -210.5t-151 -155.5t-210.5 -58q-88 0 -154.5 35.5zM557.5 89.5q82.5 50.5 130 136t47.5 186.5q0 119 -65.5 184t-179.5 65
q-101 0 -183.5 -50.5t-130 -136t-47.5 -186.5q0 -119 65.5 -184t179.5 -65q101 0 183.5 50.5zM363 809q0 15 8.5 20.5t25.5 5.5h240q13 0 20 -3t7 -12q0 -26 -34 -26h-240q-27 0 -27 15z" />
    <glyph glyph-name="Oslash" unicode="&#xd8;" horiz-adv-x="808" 
d="M743 569.5q35 -64.5 35 -146.5q0 -120 -55.5 -219t-151 -156.5t-211.5 -57.5q-72 0 -131 25l-45 -70q-4 -6 -10.5 -10t-13.5 -4t-13 5.5t-6 13.5q0 7 4 12l46 73q-59 37 -92 99.5t-33 141.5q0 121 55 220t150.5 156.5t211.5 57.5q66 0 123 -22l43 67q4 6 10.5 10t13.5 4
q8 0 13.5 -5.5t5.5 -13.5q0 -4 -4 -12l-43 -68q63 -36 98 -100.5zM144.5 159q25.5 -51 73.5 -81l361 567q-48 16 -101 16q-100 0 -182.5 -50.5t-129.5 -138t-47 -194.5q0 -68 25.5 -119zM548.5 89.5q82.5 50.5 129.5 138t47 194.5q0 70 -28 123t-79 82l-362 -569
q51 -19 110 -19q100 0 182.5 50.5z" />
    <glyph glyph-name="Oslashacute" unicode="&#x1fe;" horiz-adv-x="808" 
d="M743 569.5q35 -64.5 35 -146.5q0 -120 -55.5 -219t-151 -156.5t-211.5 -57.5q-72 0 -131 25l-45 -70q-4 -6 -10.5 -10t-13.5 -4t-13 5.5t-6 13.5q0 7 4 12l46 73q-59 37 -92 99.5t-33 141.5q0 121 55 220t150.5 156.5t211.5 57.5q66 0 123 -22l43 67q4 6 10.5 10t13.5 4
q8 0 13.5 -5.5t5.5 -13.5q0 -4 -4 -12l-43 -68q63 -36 98 -100.5zM144.5 159q25.5 -51 73.5 -81l361 567q-48 16 -101 16q-100 0 -182.5 -50.5t-129.5 -138t-47 -194.5q0 -68 25.5 -119zM548.5 89.5q82.5 50.5 129.5 138t47 194.5q0 70 -28 123t-79 82l-362 -569
q51 -19 110 -19q100 0 182.5 50.5zM481 806q0 7 5 15l88 139q16 24 30 24q6 0 13 -4q12 -7 12 -17q0 -8 -9 -20l-102 -137q-11 -14 -22 -14q-2 0 -8 2q-7 3 -7 12z" />
    <glyph glyph-name="Otilde" unicode="&#xd5;" horiz-adv-x="828" 
d="M216.5 25.5q-66.5 35.5 -103.5 102.5t-37 159q0 113 55.5 210.5t150.5 155t210 57.5q88 0 155 -36t104 -102.5t37 -157.5q0 -113 -55.5 -210.5t-151 -155.5t-210.5 -58q-88 0 -154.5 35.5zM557.5 89.5q82.5 50.5 130 136t47.5 186.5q0 119 -65.5 184t-179.5 65
q-101 0 -183.5 -50.5t-130 -136t-47.5 -186.5q0 -119 65.5 -184t179.5 -65q101 0 183.5 50.5zM356 817q0 4 4 16q12 33 40 54t60 21q24 0 40.5 -8.5t34.5 -24.5q18 -13 27.5 -18.5t22.5 -5.5q38 0 56 45q7 19 23 19q19 0 19 -15q0 -7 -3 -16q-12 -33 -40.5 -53.5
t-59.5 -20.5q-21 0 -36 8t-33 23q-18 13 -29.5 19.5t-26.5 6.5q-18 0 -33 -12t-23 -33q-7 -19 -23 -19q-20 0 -20 14z" />
    <glyph glyph-name="OE" unicode="&#x152;" horiz-adv-x="1242" 
d="M216 26q-67 36 -104 101t-37 149q0 122 54.5 221t149.5 156t212 57q89 0 157.5 -43t102.5 -122l8 45q10 56 41.5 83t87.5 27h316q27 0 27 -18q0 -14 -9 -21.5t-26 -7.5h-316q-26 0 -44 -16.5t-23 -43.5l-38 -212h297q27 0 27 -18q0 -14 -9 -21.5t-26 -7.5h-297l-40 -227
q-1 -4 -1 -13q0 -21 12.5 -34t34.5 -13h338q27 0 27 -18q0 -14 -9 -21.5t-26 -7.5h-332q-46 0 -72.5 23.5t-26.5 63.5q0 7 2 23l8 45q-64 -84 -140.5 -124.5t-171.5 -40.5q-87 0 -154 36zM552.5 89.5q79.5 50.5 125.5 139t46 195.5q0 110 -64 173.5t-174 63.5
q-102 0 -183.5 -50t-128 -137t-46.5 -196q0 -110 67 -174.5t181 -64.5q97 0 176.5 50.5z" />
    <glyph glyph-name="P" unicode="P" horiz-adv-x="718" 
d="M55.5 -0.5q-6.5 9.5 -4.5 22.5l100 568q20 110 136 110h171q116 0 177 -46.5t61 -135.5q0 -128 -81 -200.5t-225 -72.5h-247l-39 -223q-5 -32 -31 -32q-11 0 -17.5 9.5zM577 349q65 57 65 165q0 71 -45.5 105t-142.5 34h-182q-26 0 -44 -16.5t-23 -43.5l-53 -301h237
q123 0 188 57z" />
    <glyph glyph-name="Thorn" unicode="&#xde;" horiz-adv-x="614" 
d="M49.5 -4q-5.5 6 -5.5 17q0 6 1 9l116 657q5 32 31 32q23 0 23 -21q0 -7 -1 -11l-18 -101h206q83 0 132.5 -45.5t49.5 -121.5q0 -72 -32 -130t-88.5 -90.5t-127.5 -32.5h-214l-24 -136q-6 -32 -33 -32q-10 0 -15.5 6zM336 205q88 0 141 57t53 152q0 117 -136 117h-206
l-58 -326h206z" />
    <glyph glyph-name="Q" unicode="Q" horiz-adv-x="828" 
d="M608.5 -37q-5.5 3 -7.5 8q-11 28 -18 51q-4 9 -10 27q-88 -59 -205 -59q-78 0 -145 35.5t-106.5 101t-39.5 153.5q0 117 55 215.5t150.5 156.5t212.5 58q82 0 148.5 -35t105 -100t38.5 -153q0 -100 -45 -192t-124 -152l11 -35l13 -38q4 -10 4 -20q0 -12 -8 -18.5
t-18 -6.5q-6 0 -11.5 3zM287.5 198q61.5 33 130.5 33q62 0 110 -30.5t72 -81.5q64 54 99.5 135.5t35.5 167.5q0 76 -31.5 130t-88 81.5t-128.5 27.5q-105 0 -186.5 -53t-127 -142t-45.5 -195q0 -94 56 -158q42 52 103.5 85zM557 89q-21 45 -54.5 69t-91.5 24q-62 0 -111 -27
t-82 -71q63 -45 159 -45t180 50z" />
    <glyph glyph-name="R" unicode="R" horiz-adv-x="717" 
d="M151 590q9 51 40.5 80.5t95.5 29.5h172q119 0 178.5 -46t59.5 -123q0 -128 -80.5 -195t-242.5 -67l175 -235q8 -10 8 -19q0 -10 -12 -19q-9 -6 -16 -6q-13 0 -25 16l-196 263h-160l-44 -247q-6 -32 -33 -32q-21 0 -21 22q0 7 1 10zM394 316q121 0 185 53.5t64 153.5
q0 73 -49.5 101.5t-138.5 28.5h-183q-26 0 -44.5 -16.5t-22.5 -43.5l-49 -277h238z" />
    <glyph glyph-name="Racute" unicode="&#x154;" horiz-adv-x="717" 
d="M151 590q9 51 40.5 80.5t95.5 29.5h172q119 0 178.5 -46t59.5 -123q0 -128 -80.5 -195t-242.5 -67l175 -235q8 -10 8 -19q0 -10 -12 -19q-9 -6 -16 -6q-13 0 -25 16l-196 263h-160l-44 -247q-6 -32 -33 -32q-21 0 -21 22q0 7 1 10zM394 316q121 0 185 53.5t64 153.5
q0 73 -49.5 101.5t-138.5 28.5h-183q-26 0 -44.5 -16.5t-22.5 -43.5l-49 -277h238zM441 806q0 7 5 15l88 139q16 24 30 24q6 0 13 -4q12 -7 12 -17q0 -8 -9 -20l-102 -137q-11 -14 -22 -14q-2 0 -8 2q-7 3 -7 12z" />
    <glyph glyph-name="Rcaron" unicode="&#x158;" horiz-adv-x="717" 
d="M151 590q9 51 40.5 80.5t95.5 29.5h172q119 0 178.5 -46t59.5 -123q0 -128 -80.5 -195t-242.5 -67l175 -235q8 -10 8 -19q0 -10 -12 -19q-9 -6 -16 -6q-13 0 -25 16l-196 263h-160l-44 -247q-6 -32 -33 -32q-21 0 -21 22q0 7 1 10zM394 316q121 0 185 53.5t64 153.5
q0 73 -49.5 101.5t-138.5 28.5h-183q-26 0 -44.5 -16.5t-22.5 -43.5l-49 -277h238zM437 806l-84 126q-5 8 -5 15q0 12 16 22q6 5 15 5q12 0 21 -16l68 -117l109 117q15 17 29 17q5 0 12 -5q8 -7 8 -16q0 -11 -11 -22l-128 -126q-13 -15 -28 -15q-12 0 -22 15z" />
    <glyph glyph-name="uni0156" unicode="&#x156;" horiz-adv-x="717" 
d="M151 590q9 51 40.5 80.5t95.5 29.5h172q119 0 178.5 -46t59.5 -123q0 -128 -80.5 -195t-242.5 -67l175 -235q8 -10 8 -19q0 -10 -12 -19q-9 -6 -16 -6q-13 0 -25 16l-196 263h-160l-44 -247q-6 -32 -33 -32q-21 0 -21 22q0 7 1 10zM394 316q121 0 185 53.5t64 153.5
q0 73 -49.5 101.5t-138.5 28.5h-183q-26 0 -44.5 -16.5t-22.5 -43.5l-49 -277h238zM202 -274q0 10 19 23q67 45 75 85q-9 -3 -17 -3q-17 0 -29 11t-12 27q0 26 18.5 43t46.5 17q21 0 33 -13t12 -37q0 -38 -27 -78.5t-74 -73.5q-11 -8 -19.5 -13t-13.5 -5q-4 0 -9 7
q-3 6 -3 10z" />
    <glyph glyph-name="uni1E5A" unicode="&#x1e5a;" horiz-adv-x="717" 
d="M151 590q9 51 40.5 80.5t95.5 29.5h172q119 0 178.5 -46t59.5 -123q0 -128 -80.5 -195t-242.5 -67l175 -235q8 -10 8 -19q0 -10 -12 -19q-9 -6 -16 -6q-13 0 -25 16l-196 263h-160l-44 -247q-6 -32 -33 -32q-21 0 -21 22q0 7 1 10zM394 316q121 0 185 53.5t64 153.5
q0 73 -49.5 101.5t-138.5 28.5h-183q-26 0 -44.5 -16.5t-22.5 -43.5l-49 -277h238zM266.5 -145.5q-10.5 10.5 -10.5 25.5q0 18 16 33.5t35 15.5q14 0 24.5 -10.5t10.5 -25.5q0 -18 -15.5 -33.5t-34.5 -15.5q-15 0 -25.5 10.5z" />
    <glyph glyph-name="uni1E5C" unicode="&#x1e5c;" horiz-adv-x="717" 
d="M151 590q9 51 40.5 80.5t95.5 29.5h172q119 0 178.5 -46t59.5 -123q0 -128 -80.5 -195t-242.5 -67l175 -235q8 -10 8 -19q0 -10 -12 -19q-9 -6 -16 -6q-13 0 -25 16l-196 263h-160l-44 -247q-6 -32 -33 -32q-21 0 -21 22q0 7 1 10zM394 316q121 0 185 53.5t64 153.5
q0 73 -49.5 101.5t-138.5 28.5h-183q-26 0 -44.5 -16.5t-22.5 -43.5l-49 -277h238zM266.5 -145.5q-10.5 10.5 -10.5 25.5q0 18 16 33.5t35 15.5q14 0 24.5 -10.5t10.5 -25.5q0 -18 -15.5 -33.5t-34.5 -15.5q-15 0 -25.5 10.5zM313 809q0 15 8.5 20.5t25.5 5.5h240
q13 0 20 -3t7 -12q0 -26 -34 -26h-240q-27 0 -27 15z" />
    <glyph glyph-name="uni1E5E" unicode="&#x1e5e;" horiz-adv-x="717" 
d="M151 590q9 51 40.5 80.5t95.5 29.5h172q119 0 178.5 -46t59.5 -123q0 -128 -80.5 -195t-242.5 -67l175 -235q8 -10 8 -19q0 -10 -12 -19q-9 -6 -16 -6q-13 0 -25 16l-196 263h-160l-44 -247q-6 -32 -33 -32q-21 0 -21 22q0 7 1 10zM394 316q121 0 185 53.5t64 153.5
q0 73 -49.5 101.5t-138.5 28.5h-183q-26 0 -44.5 -16.5t-22.5 -43.5l-49 -277h238zM149 -119q0 15 8.5 20.5t25.5 5.5h240q13 0 20 -3t7 -12q0 -26 -34 -26h-240q-27 0 -27 15z" />
    <glyph glyph-name="S" unicode="S" horiz-adv-x="681" 
d="M198 6.5q-58 16.5 -99 44.5t-53 60q-2 4 -2 12q0 15 15 24q7 4 14 4q11 0 21 -16q32 -49 83.5 -72t130.5 -23q114 0 179 41.5t65 113.5q0 35 -16 57.5t-56.5 40t-119.5 37.5q-90 23 -140 47.5t-71.5 55.5t-21.5 77q0 58 34.5 103.5t96 71t140.5 25.5q62 0 119.5 -16.5
t96 -44t45.5 -58.5q1 -4 1 -10q0 -17 -17 -24q-7 -3 -13 -3q-15 0 -23 14q-23 42 -81.5 67t-132.5 25q-97 0 -154 -39t-57 -106q0 -35 14 -55t52 -36.5t121 -39.5q95 -27 145.5 -51t71.5 -54.5t21 -76.5q0 -62 -37 -110t-103 -75t-151 -27q-60 0 -118 16.5z" />
    <glyph glyph-name="Sacute" unicode="&#x15a;" horiz-adv-x="681" 
d="M198 6.5q-58 16.5 -99 44.5t-53 60q-2 4 -2 12q0 15 15 24q7 4 14 4q11 0 21 -16q32 -49 83.5 -72t130.5 -23q114 0 179 41.5t65 113.5q0 35 -16 57.5t-56.5 40t-119.5 37.5q-90 23 -140 47.5t-71.5 55.5t-21.5 77q0 58 34.5 103.5t96 71t140.5 25.5q62 0 119.5 -16.5
t96 -44t45.5 -58.5q1 -4 1 -10q0 -17 -17 -24q-7 -3 -13 -3q-15 0 -23 14q-23 42 -81.5 67t-132.5 25q-97 0 -154 -39t-57 -106q0 -35 14 -55t52 -36.5t121 -39.5q95 -27 145.5 -51t71.5 -54.5t21 -76.5q0 -62 -37 -110t-103 -75t-151 -27q-60 0 -118 16.5zM418 806
q0 7 5 15l88 139q16 24 30 24q6 0 13 -4q12 -7 12 -17q0 -8 -9 -20l-102 -137q-11 -14 -22 -14q-2 0 -8 2q-7 3 -7 12z" />
    <glyph glyph-name="Scaron" unicode="&#x160;" horiz-adv-x="681" 
d="M198 6.5q-58 16.5 -99 44.5t-53 60q-2 4 -2 12q0 15 15 24q7 4 14 4q11 0 21 -16q32 -49 83.5 -72t130.5 -23q114 0 179 41.5t65 113.5q0 35 -16 57.5t-56.5 40t-119.5 37.5q-90 23 -140 47.5t-71.5 55.5t-21.5 77q0 58 34.5 103.5t96 71t140.5 25.5q62 0 119.5 -16.5
t96 -44t45.5 -58.5q1 -4 1 -10q0 -17 -17 -24q-7 -3 -13 -3q-15 0 -23 14q-23 42 -81.5 67t-132.5 25q-97 0 -154 -39t-57 -106q0 -35 14 -55t52 -36.5t121 -39.5q95 -27 145.5 -51t71.5 -54.5t21 -76.5q0 -62 -37 -110t-103 -75t-151 -27q-60 0 -118 16.5zM414 806l-84 126
q-5 8 -5 15q0 12 16 22q6 5 15 5q12 0 21 -16l68 -117l109 117q15 17 29 17q5 0 12 -5q8 -7 8 -16q0 -11 -11 -22l-128 -126q-13 -15 -28 -15q-12 0 -22 15z" />
    <glyph glyph-name="Scedilla" unicode="&#x15e;" horiz-adv-x="681" 
d="M660 581q0 -17 -17 -24q-7 -3 -13 -3q-15 0 -23 14q-23 42 -81.5 67t-132.5 25q-97 0 -154 -39t-57 -106q0 -35 14 -55t52 -36.5t121 -39.5q95 -27 145.5 -51t71.5 -54.5t21 -76.5q0 -61 -36 -109t-101 -75t-148 -28l-1 -2l-33 -48q35 1 52 -13.5t17 -39.5
q0 -41 -30.5 -68t-76.5 -27q-31 0 -53.5 14t-32.5 33q-3 6 -3 12q0 9 11 17q8 5 13 5q9 0 14 -10q16 -31 58 -31q25 0 40 14t15 37q0 29 -32 29q-8 0 -13 -1q-12 -2 -19.5 3t-7.5 14q0 6 5 14l32 50q-83 8 -149 41.5t-82 77.5q-2 4 -2 12q0 15 15 24q7 4 14 4q11 0 21 -16
q32 -49 83.5 -72t130.5 -23q114 0 179 41.5t65 113.5q0 35 -16 57.5t-56.5 40t-119.5 37.5q-90 23 -140 47.5t-71.5 55.5t-21.5 77q0 58 34.5 103.5t96 71t140.5 25.5q62 0 119.5 -16.5t96 -44t45.5 -58.5q1 -4 1 -10z" />
    <glyph glyph-name="Scircumflex" unicode="&#x15c;" horiz-adv-x="681" 
d="M198 6.5q-58 16.5 -99 44.5t-53 60q-2 4 -2 12q0 15 15 24q7 4 14 4q11 0 21 -16q32 -49 83.5 -72t130.5 -23q114 0 179 41.5t65 113.5q0 35 -16 57.5t-56.5 40t-119.5 37.5q-90 23 -140 47.5t-71.5 55.5t-21.5 77q0 58 34.5 103.5t96 71t140.5 25.5q62 0 119.5 -16.5
t96 -44t45.5 -58.5q1 -4 1 -10q0 -17 -17 -24q-7 -3 -13 -3q-15 0 -23 14q-23 42 -81.5 67t-132.5 25q-97 0 -154 -39t-57 -106q0 -35 14 -55t52 -36.5t121 -39.5q95 -27 145.5 -51t71.5 -54.5t21 -76.5q0 -62 -37 -110t-103 -75t-151 -27q-60 0 -118 16.5zM301 812
q0 10 12 22l128 126q15 15 28 15q12 0 22 -15l83 -126q5 -8 5 -15q0 -13 -15 -22q-7 -5 -16 -5q-12 0 -21 16l-67 117l-109 -117q-14 -17 -28 -17q-8 0 -13 5q-9 8 -9 16z" />
    <glyph glyph-name="uni0218" unicode="&#x218;" horiz-adv-x="681" 
d="M198 6.5q-58 16.5 -99 44.5t-53 60q-2 4 -2 12q0 15 15 24q7 4 14 4q11 0 21 -16q32 -49 83.5 -72t130.5 -23q114 0 179 41.5t65 113.5q0 35 -16 57.5t-56.5 40t-119.5 37.5q-90 23 -140 47.5t-71.5 55.5t-21.5 77q0 58 34.5 103.5t96 71t140.5 25.5q62 0 119.5 -16.5
t96 -44t45.5 -58.5q1 -4 1 -10q0 -17 -17 -24q-7 -3 -13 -3q-15 0 -23 14q-23 42 -81.5 67t-132.5 25q-97 0 -154 -39t-57 -106q0 -35 14 -55t52 -36.5t121 -39.5q95 -27 145.5 -51t71.5 -54.5t21 -76.5q0 -62 -37 -110t-103 -75t-151 -27q-60 0 -118 16.5zM179 -274
q0 10 19 23q67 45 75 85q-9 -3 -17 -3q-17 0 -29 11t-12 27q0 26 18.5 43t46.5 17q21 0 33 -13t12 -37q0 -38 -27 -78.5t-74 -73.5q-11 -8 -19.5 -13t-13.5 -5q-4 0 -9 7q-3 6 -3 10z" />
    <glyph glyph-name="uni1E60" unicode="&#x1e60;" horiz-adv-x="681" 
d="M198 6.5q-58 16.5 -99 44.5t-53 60q-2 4 -2 12q0 15 15 24q7 4 14 4q11 0 21 -16q32 -49 83.5 -72t130.5 -23q114 0 179 41.5t65 113.5q0 35 -16 57.5t-56.5 40t-119.5 37.5q-90 23 -140 47.5t-71.5 55.5t-21.5 77q0 58 34.5 103.5t96 71t140.5 25.5q62 0 119.5 -16.5
t96 -44t45.5 -58.5q1 -4 1 -10q0 -17 -17 -24q-7 -3 -13 -3q-15 0 -23 14q-23 42 -81.5 67t-132.5 25q-97 0 -154 -39t-57 -106q0 -35 14 -55t52 -36.5t121 -39.5q95 -27 145.5 -51t71.5 -54.5t21 -76.5q0 -62 -37 -110t-103 -75t-151 -27q-60 0 -118 16.5zM414.5 822.5
q-10.5 10.5 -10.5 25.5q0 18 16 33.5t35 15.5q14 0 24.5 -10.5t10.5 -25.5q0 -18 -15.5 -33.5t-34.5 -15.5q-15 0 -25.5 10.5z" />
    <glyph glyph-name="uni1E62" unicode="&#x1e62;" horiz-adv-x="681" 
d="M198 6.5q-58 16.5 -99 44.5t-53 60q-2 4 -2 12q0 15 15 24q7 4 14 4q11 0 21 -16q32 -49 83.5 -72t130.5 -23q114 0 179 41.5t65 113.5q0 35 -16 57.5t-56.5 40t-119.5 37.5q-90 23 -140 47.5t-71.5 55.5t-21.5 77q0 58 34.5 103.5t96 71t140.5 25.5q62 0 119.5 -16.5
t96 -44t45.5 -58.5q1 -4 1 -10q0 -17 -17 -24q-7 -3 -13 -3q-15 0 -23 14q-23 42 -81.5 67t-132.5 25q-97 0 -154 -39t-57 -106q0 -35 14 -55t52 -36.5t121 -39.5q95 -27 145.5 -51t71.5 -54.5t21 -76.5q0 -62 -37 -110t-103 -75t-151 -27q-60 0 -118 16.5zM243.5 -145.5
q-10.5 10.5 -10.5 25.5q0 18 16 33.5t35 15.5q14 0 24.5 -10.5t10.5 -25.5q0 -18 -15.5 -33.5t-34.5 -15.5q-15 0 -25.5 10.5z" />
    <glyph glyph-name="uni1E9E" unicode="&#x1e9e;" horiz-adv-x="632" 
d="M229.5 6q-39.5 17 -57.5 43q-5 8 -5 14q0 11 13 20q11 6 15 6q9 0 21 -13q17 -18 45.5 -28.5t61.5 -10.5q94 0 144 49t50 140q0 115 -137 115h-52q-26 0 -26 20q0 14 9.5 19.5t33.5 5.5l161 145q1 7 1 20q0 49 -34.5 75t-98.5 26q-82 0 -135 -42.5t-66 -120.5l-82 -469
q-2 -8 -10.5 -14.5t-18.5 -6.5t-17 6.5t-5 14.5l84 477q16 93 85.5 148t172.5 55q81 0 129.5 -42t48.5 -110q0 -7 -2 -23l-162 -145q81 0 127 -41t46 -113q0 -109 -68.5 -173t-186.5 -64q-45 0 -84.5 17z" />
    <glyph glyph-name="uni018F" unicode="&#x18f;" horiz-adv-x="799" 
d="M136 54q-80 63 -80 174q0 73 28 110.5t81 37.5h548q6 36 6 68q0 105 -62.5 161t-180.5 56q-89 0 -157.5 -20t-120.5 -61q-19 -16 -31 -16q-7 0 -13.5 6.5t-6.5 13.5q0 10 13 23q52 49 137.5 76t186.5 27q136 0 210.5 -72t74.5 -203q0 -130 -52 -231t-145.5 -157
t-214.5 -56q-141 0 -221 63zM591.5 116q89.5 76 113.5 213h-537q-30 0 -44 -23.5t-14 -75.5q0 -93 65.5 -141.5t190.5 -48.5q136 0 225.5 76z" />
    <glyph glyph-name="T" unicode="T" horiz-adv-x="709" 
d="M288 13l1 9l111 631h-243q-26 0 -26 19q0 28 34 28h539q26 0 26 -19q0 -28 -34 -28h-243l-111 -631q-6 -32 -33 -32q-21 0 -21 23z" />
    <glyph glyph-name="Tbar" unicode="&#x166;" horiz-adv-x="709" 
d="M730 681q0 -28 -34 -28h-243l-49 -279h123q14 0 20.5 -4t6.5 -13q0 -28 -35 -28h-123l-54 -307q-6 -32 -33 -32q-21 0 -21 23l1 9l54 307h-114q-27 0 -27 17q0 28 35 28h114l49 279h-243q-26 0 -26 19q0 28 34 28h539q26 0 26 -19z" />
    <glyph glyph-name="Tcaron" unicode="&#x164;" horiz-adv-x="709" 
d="M288 13l1 9l111 631h-243q-26 0 -26 19q0 28 34 28h539q26 0 26 -19q0 -28 -34 -28h-243l-111 -631q-6 -32 -33 -32q-21 0 -21 23zM428 806l-84 126q-5 8 -5 15q0 12 16 22q6 5 15 5q12 0 21 -16l68 -117l109 117q15 17 29 17q5 0 12 -5q8 -7 8 -16q0 -11 -11 -22
l-128 -126q-13 -15 -28 -15q-12 0 -22 15z" />
    <glyph glyph-name="uni0162" unicode="&#x162;" horiz-adv-x="709" 
d="M730 681q0 -28 -34 -28h-243l-111 -631q-3 -17 -13 -25q0 -3 -4 -9l-33 -48q35 1 52 -13.5t17 -39.5q0 -41 -30.5 -68t-76.5 -27q-31 0 -53.5 14t-32.5 33q-3 6 -3 12q0 9 11 17q8 5 13 5q9 0 15 -11q17 -30 57 -30q25 0 40 14t15 37q0 29 -32 29q-8 0 -13 -1
q-12 -2 -19.5 3t-7.5 14q0 6 5 14l33 52l7 11l-1 7l1 10l111 631h-243q-26 0 -26 19q0 28 34 28h539q26 0 26 -19z" />
    <glyph glyph-name="uni021A" unicode="&#x21a;" horiz-adv-x="709" 
d="M288 13l1 9l111 631h-243q-26 0 -26 19q0 28 34 28h539q26 0 26 -19q0 -28 -34 -28h-243l-111 -631q-6 -32 -33 -32q-21 0 -21 23zM193 -274q0 10 19 23q67 45 75 85q-9 -3 -17 -3q-17 0 -29 11t-12 27q0 26 18.5 43t46.5 17q21 0 33 -13t12 -37q0 -38 -27 -78.5
t-74 -73.5q-11 -8 -19.5 -13t-13.5 -5q-4 0 -9 7q-3 6 -3 10z" />
    <glyph glyph-name="uni1E6C" unicode="&#x1e6c;" horiz-adv-x="709" 
d="M288 13l1 9l111 631h-243q-26 0 -26 19q0 28 34 28h539q26 0 26 -19q0 -28 -34 -28h-243l-111 -631q-6 -32 -33 -32q-21 0 -21 23zM257.5 -145.5q-10.5 10.5 -10.5 25.5q0 18 16 33.5t35 15.5q14 0 24.5 -10.5t10.5 -25.5q0 -18 -15.5 -33.5t-34.5 -15.5
q-15 0 -25.5 10.5z" />
    <glyph glyph-name="uni1E6E" unicode="&#x1e6e;" horiz-adv-x="709" 
d="M288 13l1 9l111 631h-243q-26 0 -26 19q0 28 34 28h539q26 0 26 -19q0 -28 -34 -28h-243l-111 -631q-6 -32 -33 -32q-21 0 -21 23zM140 -119q0 15 8.5 20.5t25.5 5.5h240q13 0 20 -3t7 -12q0 -26 -34 -26h-240q-27 0 -27 15z" />
    <glyph glyph-name="U" unicode="U" horiz-adv-x="753" 
d="M153.5 48q-64.5 58 -64.5 161q0 32 6 66l72 403q6 32 31 32q11 0 17 -6t6 -17q0 -6 -1 -9l-72 -406q-6 -36 -6 -67q0 -84 49 -125t147 -41q234 0 276 233l72 406q6 32 32 32q22 0 22 -22q0 -6 -1 -10l-72 -403q-25 -139 -110 -212t-219 -73q-120 0 -184.5 58z" />
    <glyph glyph-name="Uacute" unicode="&#xda;" horiz-adv-x="753" 
d="M153.5 48q-64.5 58 -64.5 161q0 32 6 66l72 403q6 32 31 32q11 0 17 -6t6 -17q0 -6 -1 -9l-72 -406q-6 -36 -6 -67q0 -84 49 -125t147 -41q234 0 276 233l72 406q6 32 32 32q22 0 22 -22q0 -6 -1 -10l-72 -403q-25 -139 -110 -212t-219 -73q-120 0 -184.5 58zM454 806
q0 7 5 15l88 139q16 24 30 24q6 0 13 -4q12 -7 12 -17q0 -8 -9 -20l-102 -137q-11 -14 -22 -14q-2 0 -8 2q-7 3 -7 12z" />
    <glyph glyph-name="Ubreve" unicode="&#x16c;" horiz-adv-x="753" 
d="M153.5 48q-64.5 58 -64.5 161q0 32 6 66l72 403q6 32 31 32q11 0 17 -6t6 -17q0 -6 -1 -9l-72 -406q-6 -36 -6 -67q0 -84 49 -125t147 -41q234 0 276 233l72 406q6 32 32 32q22 0 22 -22q0 -6 -1 -10l-72 -403q-25 -139 -110 -212t-219 -73q-120 0 -184.5 58zM384.5 824
q-30.5 32 -30.5 80q0 59 32 59q20 0 20 -20q0 -54 4.5 -75.5t18.5 -28t50 -6.5q47 0 74 26.5t35 71.5q6 32 30 32q20 0 20 -20q0 -38 -24 -73t-62.5 -56.5t-79.5 -21.5q-57 0 -87.5 32z" />
    <glyph glyph-name="uni01D3" unicode="&#x1d3;" horiz-adv-x="753" 
d="M153.5 48q-64.5 58 -64.5 161q0 32 6 66l72 403q6 32 31 32q11 0 17 -6t6 -17q0 -6 -1 -9l-72 -406q-6 -36 -6 -67q0 -84 49 -125t147 -41q234 0 276 233l72 406q6 32 32 32q22 0 22 -22q0 -6 -1 -10l-72 -403q-25 -139 -110 -212t-219 -73q-120 0 -184.5 58zM450 806
l-84 126q-5 8 -5 15q0 12 16 22q6 5 15 5q12 0 21 -16l68 -117l109 117q15 17 29 17q5 0 12 -5q8 -7 8 -16q0 -11 -11 -22l-128 -126q-13 -15 -28 -15q-12 0 -22 15z" />
    <glyph glyph-name="Ucircumflex" unicode="&#xdb;" horiz-adv-x="753" 
d="M153.5 48q-64.5 58 -64.5 161q0 32 6 66l72 403q6 32 31 32q11 0 17 -6t6 -17q0 -6 -1 -9l-72 -406q-6 -36 -6 -67q0 -84 49 -125t147 -41q234 0 276 233l72 406q6 32 32 32q22 0 22 -22q0 -6 -1 -10l-72 -403q-25 -139 -110 -212t-219 -73q-120 0 -184.5 58zM337 812
q0 10 12 22l128 126q15 15 28 15q12 0 22 -15l83 -126q5 -8 5 -15q0 -13 -15 -22q-7 -5 -16 -5q-12 0 -21 16l-67 117l-109 -117q-14 -17 -28 -17q-8 0 -13 5q-9 8 -9 16z" />
    <glyph glyph-name="Udieresis" unicode="&#xdc;" horiz-adv-x="753" 
d="M153.5 48q-64.5 58 -64.5 161q0 32 6 66l72 403q6 32 31 32q11 0 17 -6t6 -17q0 -6 -1 -9l-72 -406q-6 -36 -6 -67q0 -84 49 -125t147 -41q234 0 276 233l72 406q6 32 32 32q22 0 22 -22q0 -6 -1 -10l-72 -403q-25 -139 -110 -212t-219 -73q-120 0 -184.5 58z
M353.5 822.5q-10.5 10.5 -10.5 25.5q0 18 16 33.5t35 15.5q14 0 24.5 -10.5t10.5 -25.5q0 -18 -15.5 -33.5t-34.5 -15.5q-15 0 -25.5 10.5zM549.5 822.5q-10.5 10.5 -10.5 25.5q0 18 16 33.5t35 15.5q14 0 24.5 -10.5t10.5 -25.5q0 -18 -15.5 -33.5t-34.5 -15.5
q-15 0 -25.5 10.5z" />
    <glyph glyph-name="uni01D7" unicode="&#x1d7;" horiz-adv-x="753" 
d="M153.5 48q-64.5 58 -64.5 161q0 32 6 66l72 403q6 32 31 32q11 0 17 -6t6 -17q0 -6 -1 -9l-72 -406q-6 -36 -6 -67q0 -84 49 -125t147 -41q234 0 276 233l72 406q6 32 32 32q22 0 22 -22q0 -6 -1 -10l-72 -403q-25 -139 -110 -212t-219 -73q-120 0 -184.5 58zM485 923
q0 7 5 15l71 117q14 24 29 24q6 0 13 -4q12 -7 12 -17q0 -8 -9 -20l-83 -115q-11 -14 -22 -14q-2 0 -8 2q-8 4 -8 12zM353.5 822.5q-10.5 10.5 -10.5 25.5q0 18 16 33.5t35 15.5q14 0 24.5 -10.5t10.5 -25.5q0 -18 -15.5 -33.5t-34.5 -15.5q-15 0 -25.5 10.5zM549.5 822.5
q-10.5 10.5 -10.5 25.5q0 18 16 33.5t35 15.5q14 0 24.5 -10.5t10.5 -25.5q0 -18 -15.5 -33.5t-34.5 -15.5q-15 0 -25.5 10.5z" />
    <glyph glyph-name="uni01D9" unicode="&#x1d9;" horiz-adv-x="753" 
d="M153.5 48q-64.5 58 -64.5 161q0 32 6 66l72 403q6 32 31 32q11 0 17 -6t6 -17q0 -6 -1 -9l-72 -406q-6 -36 -6 -67q0 -84 49 -125t147 -41q234 0 276 233l72 406q6 32 32 32q22 0 22 -22q0 -6 -1 -10l-72 -403q-25 -139 -110 -212t-219 -73q-120 0 -184.5 58zM481 914.5
q-5 3.5 -11 11.5l-86 109q-5 6 -5 14q0 14 15 23q6 5 15 5q10 0 22 -16l70 -100l106 100q19 17 29 17q5 0 12 -5q9 -7 9 -18q0 -10 -11 -20l-126 -109q-13 -15 -27 -15q-7 0 -12 3.5zM352.5 822.5q-10.5 10.5 -10.5 25.5q0 18 16 33.5t34 15.5q15 0 25.5 -10.5t10.5 -25.5
q0 -18 -16 -33.5t-35 -15.5q-14 0 -24.5 10.5zM548.5 822.5q-10.5 10.5 -10.5 25.5q0 18 16 33.5t34 15.5q15 0 25.5 -10.5t10.5 -25.5q0 -18 -16 -33.5t-35 -15.5q-14 0 -24.5 10.5z" />
    <glyph glyph-name="uni01DB" unicode="&#x1db;" horiz-adv-x="753" 
d="M153.5 48q-64.5 58 -64.5 161q0 32 6 66l72 403q6 32 31 32q11 0 17 -6t6 -17q0 -6 -1 -9l-72 -406q-6 -36 -6 -67q0 -84 49 -125t147 -41q234 0 276 233l72 406q6 32 32 32q22 0 22 -22q0 -6 -1 -10l-72 -403q-25 -139 -110 -212t-219 -73q-120 0 -184.5 58zM486 909
q-12 0 -17 14l-43 115q-3 8 -3 14q0 14 19 23q8 4 14 4q8 0 13 -6t8 -18l29 -117q1 -3 1 -8q0 -14 -12 -19q-6 -2 -9 -2zM352.5 822.5q-10.5 10.5 -10.5 25.5q0 18 16 33.5t34 15.5q15 0 25.5 -10.5t10.5 -25.5q0 -18 -16 -33.5t-35 -15.5q-14 0 -24.5 10.5zM548.5 822.5
q-10.5 10.5 -10.5 25.5q0 18 16 33.5t34 15.5q15 0 25.5 -10.5t10.5 -25.5q0 -18 -16 -33.5t-35 -15.5q-14 0 -24.5 10.5z" />
    <glyph glyph-name="uni01D5" unicode="&#x1d5;" horiz-adv-x="753" 
d="M153.5 48q-64.5 58 -64.5 161q0 32 6 66l72 403q6 32 31 32q11 0 17 -6t6 -17q0 -6 -1 -9l-72 -406q-6 -36 -6 -67q0 -84 49 -125t147 -41q234 0 276 233l72 406q6 32 32 32q22 0 22 -22q0 -6 -1 -10l-72 -403q-25 -139 -110 -212t-219 -73q-120 0 -184.5 58z
M351.5 822.5q-10.5 10.5 -10.5 25.5q0 18 16 33.5t35 15.5q14 0 24.5 -10.5t10.5 -25.5q0 -18 -15.5 -33.5t-34.5 -15.5q-15 0 -25.5 10.5zM547.5 822.5q-10.5 10.5 -10.5 25.5q0 18 16 33.5t35 15.5q14 0 24.5 -10.5t10.5 -25.5q0 -18 -15.5 -33.5t-34.5 -15.5
q-15 0 -25.5 10.5zM357 982q0 15 8.5 20.5t25.5 5.5h240q13 0 20 -3t7 -12q0 -26 -34 -26h-240q-27 0 -27 15z" />
    <glyph glyph-name="uni1EE4" unicode="&#x1ee4;" horiz-adv-x="753" 
d="M153.5 48q-64.5 58 -64.5 161q0 32 6 66l72 403q6 32 31 32q11 0 17 -6t6 -17q0 -6 -1 -9l-72 -406q-6 -36 -6 -67q0 -84 49 -125t147 -41q234 0 276 233l72 406q6 32 32 32q22 0 22 -22q0 -6 -1 -10l-72 -403q-25 -139 -110 -212t-219 -73q-120 0 -184.5 58z
M279.5 -145.5q-10.5 10.5 -10.5 25.5q0 18 16 33.5t35 15.5q14 0 24.5 -10.5t10.5 -25.5q0 -18 -15.5 -33.5t-34.5 -15.5q-15 0 -25.5 10.5z" />
    <glyph glyph-name="Ugrave" unicode="&#xd9;" horiz-adv-x="753" 
d="M153.5 48q-64.5 58 -64.5 161q0 32 6 66l72 403q6 32 31 32q11 0 17 -6t6 -17q0 -6 -1 -9l-72 -406q-6 -36 -6 -67q0 -84 49 -125t147 -41q234 0 276 233l72 406q6 32 32 32q22 0 22 -22q0 -6 -1 -10l-72 -403q-25 -139 -110 -212t-219 -73q-120 0 -184.5 58zM474 792
q-11 0 -17 14l-53 137q-3 8 -3 14q0 14 19 23q8 4 14 4q15 0 21 -24l40 -139q1 -2 1 -8q0 -14 -13 -19q-6 -2 -9 -2z" />
    <glyph glyph-name="uni1EE6" unicode="&#x1ee6;" horiz-adv-x="753" 
d="M153.5 48q-64.5 58 -64.5 161q0 32 6 66l72 403q6 32 31 32q11 0 17 -6t6 -17q0 -6 -1 -9l-72 -406q-6 -36 -6 -67q0 -84 49 -125t147 -41q234 0 276 233l72 406q6 32 32 32q22 0 22 -22q0 -6 -1 -10l-72 -403q-25 -139 -110 -212t-219 -73q-120 0 -184.5 58zM445 776
q0 6 1 9l2 9q3 17 15 28.5t33 25.5q21 15 31 26t10 26q0 28 -37 28q-40 0 -63 -27q-12 -15 -21 -15t-14 5t-5 12q0 9 5 15q16 21 44.5 36t60.5 15q38 0 57 -17t19 -44q0 -28 -13 -43.5t-37 -31.5q-17 -11 -25.5 -19t-8.5 -21v-8q-5 -13 -12.5 -19t-20.5 -6q-21 0 -21 16z
" />
    <glyph glyph-name="Uhorn" unicode="&#x1af;" horiz-adv-x="764" 
d="M893 759q0 -36 -22 -70.5t-57.5 -56.5t-75.5 -23h-11l-60 -334q-25 -139 -110 -212t-219 -73q-120 0 -184.5 58t-64.5 161q0 32 6 66l72 403q6 32 31 32q11 0 17 -6t6 -17q0 -6 -1 -9l-72 -406q-6 -36 -6 -67q0 -84 49 -125t147 -41q234 0 276 233l72 406q6 32 32 32
q22 0 22 -22q0 -6 -1 -10l-5 -25l12 1q40 4 64 28.5t31 65.5q5 32 32 32q20 0 20 -21z" />
    <glyph glyph-name="uni1EE8" unicode="&#x1ee8;" horiz-adv-x="764" 
d="M893 759q0 -36 -22 -70.5t-57.5 -56.5t-75.5 -23h-11l-60 -334q-25 -139 -110 -212t-219 -73q-120 0 -184.5 58t-64.5 161q0 32 6 66l72 403q6 32 31 32q11 0 17 -6t6 -17q0 -6 -1 -9l-72 -406q-6 -36 -6 -67q0 -84 49 -125t147 -41q234 0 276 233l72 406q6 32 32 32
q22 0 22 -22q0 -6 -1 -10l-5 -25l12 1q40 4 64 28.5t31 65.5q5 32 32 32q20 0 20 -21zM454 806q0 7 5 15l88 139q16 24 30 24q6 0 13 -4q12 -7 12 -17q0 -8 -9 -20l-102 -137q-11 -14 -22 -14q-2 0 -8 2q-7 3 -7 12z" />
    <glyph glyph-name="uni1EF0" unicode="&#x1ef0;" horiz-adv-x="764" 
d="M893 759q0 -36 -22 -70.5t-57.5 -56.5t-75.5 -23h-11l-60 -334q-25 -139 -110 -212t-219 -73q-120 0 -184.5 58t-64.5 161q0 32 6 66l72 403q6 32 31 32q11 0 17 -6t6 -17q0 -6 -1 -9l-72 -406q-6 -36 -6 -67q0 -84 49 -125t147 -41q234 0 276 233l72 406q6 32 32 32
q22 0 22 -22q0 -6 -1 -10l-5 -25l12 1q40 4 64 28.5t31 65.5q5 32 32 32q20 0 20 -21zM279.5 -145.5q-10.5 10.5 -10.5 25.5q0 18 16 33.5t35 15.5q14 0 24.5 -10.5t10.5 -25.5q0 -18 -15.5 -33.5t-34.5 -15.5q-15 0 -25.5 10.5z" />
    <glyph glyph-name="uni1EEA" unicode="&#x1eea;" horiz-adv-x="764" 
d="M893 759q0 -36 -22 -70.5t-57.5 -56.5t-75.5 -23h-11l-60 -334q-25 -139 -110 -212t-219 -73q-120 0 -184.5 58t-64.5 161q0 32 6 66l72 403q6 32 31 32q11 0 17 -6t6 -17q0 -6 -1 -9l-72 -406q-6 -36 -6 -67q0 -84 49 -125t147 -41q234 0 276 233l72 406q6 32 32 32
q22 0 22 -22q0 -6 -1 -10l-5 -25l12 1q40 4 64 28.5t31 65.5q5 32 32 32q20 0 20 -21zM474 792q-11 0 -17 14l-53 137q-3 8 -3 14q0 14 19 23q8 4 14 4q15 0 21 -24l40 -139q1 -2 1 -8q0 -14 -13 -19q-6 -2 -9 -2z" />
    <glyph glyph-name="uni1EEC" unicode="&#x1eec;" horiz-adv-x="764" 
d="M893 759q0 -36 -22 -70.5t-57.5 -56.5t-75.5 -23h-11l-60 -334q-25 -139 -110 -212t-219 -73q-120 0 -184.5 58t-64.5 161q0 32 6 66l72 403q6 32 31 32q11 0 17 -6t6 -17q0 -6 -1 -9l-72 -406q-6 -36 -6 -67q0 -84 49 -125t147 -41q234 0 276 233l72 406q6 32 32 32
q22 0 22 -22q0 -6 -1 -10l-5 -25l12 1q40 4 64 28.5t31 65.5q5 32 32 32q20 0 20 -21zM445 776q0 6 1 9l2 9q3 17 15 28.5t33 25.5q21 15 31 26t10 26q0 28 -37 28q-40 0 -63 -27q-12 -15 -21 -15t-14 5t-5 12q0 9 5 15q16 21 44.5 36t60.5 15q38 0 57 -17t19 -44
q0 -28 -13 -43.5t-37 -31.5q-17 -11 -25.5 -19t-8.5 -21v-8q-5 -13 -12.5 -19t-20.5 -6q-21 0 -21 16z" />
    <glyph glyph-name="uni1EEE" unicode="&#x1eee;" horiz-adv-x="764" 
d="M893 759q0 -36 -22 -70.5t-57.5 -56.5t-75.5 -23h-11l-60 -334q-25 -139 -110 -212t-219 -73q-120 0 -184.5 58t-64.5 161q0 32 6 66l72 403q6 32 31 32q11 0 17 -6t6 -17q0 -6 -1 -9l-72 -406q-6 -36 -6 -67q0 -84 49 -125t147 -41q234 0 276 233l72 406q6 32 32 32
q22 0 22 -22q0 -6 -1 -10l-5 -25l12 1q40 4 64 28.5t31 65.5q5 32 32 32q20 0 20 -21zM321 827q0 4 4 16q12 33 40 54t60 21q24 0 40.5 -8.5t34.5 -24.5q17 -13 27 -18.5t23 -5.5q38 0 56 45q7 19 23 19q19 0 19 -15q0 -7 -3 -16q-12 -33 -40.5 -53.5t-59.5 -20.5
q-21 0 -36 8t-33 23q-18 13 -29.5 19.5t-26.5 6.5q-18 0 -33 -12t-23 -33q-7 -19 -23 -19q-20 0 -20 14z" />
    <glyph glyph-name="Uhungarumlaut" unicode="&#x170;" horiz-adv-x="753" 
d="M153.5 48q-64.5 58 -64.5 161q0 32 6 66l72 403q6 32 31 32q11 0 17 -6t6 -17q0 -6 -1 -9l-72 -406q-6 -36 -6 -67q0 -84 49 -125t147 -41q234 0 276 233l72 406q6 32 32 32q22 0 22 -22q0 -6 -1 -10l-72 -403q-25 -139 -110 -212t-219 -73q-120 0 -184.5 58zM362 798
q0 7 7 16l120 149q9 11 15.5 16t13.5 5q6 0 13 -4q14 -8 14 -18q0 -8 -9 -19l-133 -147q-17 -19 -32 -12q-9 5 -9 14zM532 798q0 7 7 16l120 149q9 11 15.5 16t13.5 5q6 0 13 -4q14 -8 14 -18q0 -8 -9 -19l-133 -147q-17 -19 -32 -12q-9 5 -9 14z" />
    <glyph glyph-name="Umacron" unicode="&#x16a;" horiz-adv-x="753" 
d="M153.5 48q-64.5 58 -64.5 161q0 32 6 66l72 403q6 32 31 32q11 0 17 -6t6 -17q0 -6 -1 -9l-72 -406q-6 -36 -6 -67q0 -84 49 -125t147 -41q234 0 276 233l72 406q6 32 32 32q22 0 22 -22q0 -6 -1 -10l-72 -403q-25 -139 -110 -212t-219 -73q-120 0 -184.5 58zM326 809
q0 15 8.5 20.5t25.5 5.5h240q13 0 20 -3t7 -12q0 -26 -34 -26h-240q-27 0 -27 15z" />
    <glyph glyph-name="Uogonek" unicode="&#x172;" horiz-adv-x="753" 
d="M740 688q0 -6 -1 -10l-72 -403q-23 -132 -102 -205t-202 -79q-50 -34 -75.5 -61.5t-25.5 -60.5q0 -16 12 -26.5t35 -10.5q33 0 63 23q11 7 15 7q7 0 12 -7q4 -6 4 -10q0 -10 -11 -19q-40 -34 -90 -34q-41 0 -63.5 20t-22.5 50q0 63 86 129q-103 9 -158 66t-55 152
q0 32 6 66l72 403q6 32 31 32q11 0 17 -6t6 -17q0 -6 -1 -9l-72 -406q-6 -36 -6 -67q0 -84 49 -125t147 -41q234 0 276 233l72 406q6 32 32 32q22 0 22 -22z" />
    <glyph glyph-name="Uring" unicode="&#x16e;" horiz-adv-x="753" 
d="M153.5 48q-64.5 58 -64.5 161q0 32 6 66l72 403q6 32 31 32q11 0 17 -6t6 -17q0 -6 -1 -9l-72 -406q-6 -36 -6 -67q0 -84 49 -125t147 -41q234 0 276 233l72 406q6 32 32 32q22 0 22 -22q0 -6 -1 -10l-72 -403q-25 -139 -110 -212t-219 -73q-120 0 -184.5 58zM398.5 779
q-25.5 23 -25.5 58q0 32 17.5 59t47 42.5t64.5 15.5q42 0 67 -23t25 -58q0 -31 -17 -58t-46.5 -43t-63.5 -16q-43 0 -68.5 23zM530.5 814.5q22.5 21.5 22.5 53.5q0 23 -15.5 36.5t-41.5 13.5q-35 0 -57.5 -21.5t-22.5 -54.5q0 -23 15.5 -36t42.5 -13q34 0 56.5 21.5z" />
    <glyph glyph-name="Utilde" unicode="&#x168;" horiz-adv-x="753" 
d="M153.5 48q-64.5 58 -64.5 161q0 32 6 66l72 403q6 32 31 32q11 0 17 -6t6 -17q0 -6 -1 -9l-72 -406q-6 -36 -6 -67q0 -84 49 -125t147 -41q234 0 276 233l72 406q6 32 32 32q22 0 22 -22q0 -6 -1 -10l-72 -403q-25 -139 -110 -212t-219 -73q-120 0 -184.5 58zM319 817
q0 4 4 16q12 33 40 54t60 21q24 0 40.5 -8.5t34.5 -24.5q18 -13 27.5 -18.5t22.5 -5.5q38 0 56 45q7 19 23 19q19 0 19 -15q0 -7 -3 -16q-12 -33 -40.5 -53.5t-59.5 -20.5q-21 0 -36 8t-33 23q-18 13 -29.5 19.5t-26.5 6.5q-18 0 -33 -12t-23 -33q-7 -19 -23 -19
q-20 0 -20 14z" />
    <glyph glyph-name="V" unicode="V" horiz-adv-x="727" 
d="M240 36.5q-30 46.5 -42 151.5l-56 487q-4 35 27 35q15 0 19.5 -5.5t6.5 -24.5l55 -486q9 -83 26.5 -119.5t48.5 -36.5q32 0 63 36.5t70 119.5l227 486q9 19 15.5 24.5t20.5 5.5q20 0 20 -16q0 -9 -5 -19l-228 -487q-50 -107 -92 -152.5t-93 -45.5q-53 0 -83 46.5z" />
    <glyph glyph-name="W" unicode="W" horiz-adv-x="953" 
d="M173 17.5q-20 27.5 -21 76.5l-10 581q0 19 6.5 27t20.5 8q15 0 20.5 -6.5t5.5 -23.5l8 -585q0 -31 7.5 -44t26.5 -13t31 13t23 44l178 528q29 87 89 87q31 0 45.5 -21.5t13.5 -65.5l-8 -528q-1 -31 7 -44t27 -13t31 12.5t23 44.5l214 585q7 18 14 24t22 6q19 0 19 -16
q0 -8 -4 -19l-214 -581q-40 -104 -114 -104q-34 0 -52 27t-17 77l7 528q0 22 -4.5 31t-15.5 9t-19 -9t-15 -31l-179 -528q-36 -104 -111 -104q-35 0 -55 27.5z" />
    <glyph glyph-name="Wacute" unicode="&#x1e82;" horiz-adv-x="953" 
d="M173 17.5q-20 27.5 -21 76.5l-10 581q0 19 6.5 27t20.5 8q15 0 20.5 -6.5t5.5 -23.5l8 -585q0 -31 7.5 -44t26.5 -13t31 13t23 44l178 528q29 87 89 87q31 0 45.5 -21.5t13.5 -65.5l-8 -528q-1 -31 7 -44t27 -13t31 12.5t23 44.5l214 585q7 18 14 24t22 6q19 0 19 -16
q0 -8 -4 -19l-214 -581q-40 -104 -114 -104q-34 0 -52 27t-17 77l7 528q0 22 -4.5 31t-15.5 9t-19 -9t-15 -31l-179 -528q-36 -104 -111 -104q-35 0 -55 27.5zM554 806q0 7 5 15l88 139q16 24 30 24q6 0 13 -4q12 -7 12 -17q0 -8 -9 -20l-102 -137q-11 -14 -22 -14
q-2 0 -8 2q-7 3 -7 12z" />
    <glyph glyph-name="Wcircumflex" unicode="&#x174;" horiz-adv-x="953" 
d="M173 17.5q-20 27.5 -21 76.5l-10 581q0 19 6.5 27t20.5 8q15 0 20.5 -6.5t5.5 -23.5l8 -585q0 -31 7.5 -44t26.5 -13t31 13t23 44l178 528q29 87 89 87q31 0 45.5 -21.5t13.5 -65.5l-8 -528q-1 -31 7 -44t27 -13t31 12.5t23 44.5l214 585q7 18 14 24t22 6q19 0 19 -16
q0 -8 -4 -19l-214 -581q-40 -104 -114 -104q-34 0 -52 27t-17 77l7 528q0 22 -4.5 31t-15.5 9t-19 -9t-15 -31l-179 -528q-36 -104 -111 -104q-35 0 -55 27.5zM437 812q0 10 12 22l128 126q15 15 28 15q12 0 22 -15l83 -126q5 -8 5 -15q0 -13 -15 -22q-7 -5 -16 -5
q-12 0 -21 16l-67 117l-109 -117q-14 -17 -28 -17q-8 0 -13 5q-9 8 -9 16z" />
    <glyph glyph-name="Wdieresis" unicode="&#x1e84;" horiz-adv-x="953" 
d="M173 17.5q-20 27.5 -21 76.5l-10 581q0 19 6.5 27t20.5 8q15 0 20.5 -6.5t5.5 -23.5l8 -585q0 -31 7.5 -44t26.5 -13t31 13t23 44l178 528q29 87 89 87q31 0 45.5 -21.5t13.5 -65.5l-8 -528q-1 -31 7 -44t27 -13t31 12.5t23 44.5l214 585q7 18 14 24t22 6q19 0 19 -16
q0 -8 -4 -19l-214 -581q-40 -104 -114 -104q-34 0 -52 27t-17 77l7 528q0 22 -4.5 31t-15.5 9t-19 -9t-15 -31l-179 -528q-36 -104 -111 -104q-35 0 -55 27.5zM453.5 822.5q-10.5 10.5 -10.5 25.5q0 18 16 33.5t35 15.5q14 0 24.5 -10.5t10.5 -25.5q0 -18 -15.5 -33.5
t-34.5 -15.5q-15 0 -25.5 10.5zM649.5 822.5q-10.5 10.5 -10.5 25.5q0 18 16 33.5t35 15.5q14 0 24.5 -10.5t10.5 -25.5q0 -18 -15.5 -33.5t-34.5 -15.5q-15 0 -25.5 10.5z" />
    <glyph glyph-name="Wgrave" unicode="&#x1e80;" horiz-adv-x="953" 
d="M173 17.5q-20 27.5 -21 76.5l-10 581q0 19 6.5 27t20.5 8q15 0 20.5 -6.5t5.5 -23.5l8 -585q0 -31 7.5 -44t26.5 -13t31 13t23 44l178 528q29 87 89 87q31 0 45.5 -21.5t13.5 -65.5l-8 -528q-1 -31 7 -44t27 -13t31 12.5t23 44.5l214 585q7 18 14 24t22 6q19 0 19 -16
q0 -8 -4 -19l-214 -581q-40 -104 -114 -104q-34 0 -52 27t-17 77l7 528q0 22 -4.5 31t-15.5 9t-19 -9t-15 -31l-179 -528q-36 -104 -111 -104q-35 0 -55 27.5zM574 792q-11 0 -17 14l-53 137q-3 8 -3 14q0 14 19 23q8 4 14 4q15 0 21 -24l40 -139q1 -2 1 -8q0 -14 -13 -19
q-6 -2 -9 -2z" />
    <glyph glyph-name="X" unicode="X" horiz-adv-x="725" 
d="M725 687q0 -11 -9 -20l-301 -311l200 -324q4 -7 4 -14q0 -14 -12 -22q-7 -6 -15 -6q-11 0 -20 16l-193 313l-302 -313q-16 -16 -32 -16q-9 0 -15 6t-6 15q0 11 9 21l320 330l-188 305q-4 7 -4 14q0 13 11 22q8 6 15 6q12 0 21 -16l181 -294l285 294q14 15 30 15
q9 0 14 -5q7 -6 7 -16z" />
    <glyph glyph-name="Y" unicode="Y" horiz-adv-x="693" 
d="M705 687l-1 -9l-24 -133q-25 -140 -107 -223t-203 -91l-36 -209q-6 -32 -33 -32q-21 0 -21 21q0 7 1 11l36 209q-95 9 -150 74.5t-55 169.5q0 34 6 70l24 133q5 32 31 32q23 0 23 -24l-1 -8l-24 -136q-8 -45 -8 -78q0 -91 48 -138t141 -47q107 0 180 69.5t95 193.5
l24 136q2 16 10.5 24t21.5 8q22 0 22 -23z" />
    <glyph glyph-name="Yacute" unicode="&#xdd;" horiz-adv-x="693" 
d="M705 687l-1 -9l-24 -133q-25 -140 -107 -223t-203 -91l-36 -209q-6 -32 -33 -32q-21 0 -21 21q0 7 1 11l36 209q-95 9 -150 74.5t-55 169.5q0 34 6 70l24 133q5 32 31 32q23 0 23 -24l-1 -8l-24 -136q-8 -45 -8 -78q0 -91 48 -138t141 -47q107 0 180 69.5t95 193.5
l24 136q2 16 10.5 24t21.5 8q22 0 22 -23zM424 806q0 7 5 15l88 139q16 24 30 24q6 0 13 -4q12 -7 12 -17q0 -8 -9 -20l-102 -137q-11 -14 -22 -14q-2 0 -8 2q-7 3 -7 12z" />
    <glyph glyph-name="Ycircumflex" unicode="&#x176;" horiz-adv-x="693" 
d="M705 687l-1 -9l-24 -133q-25 -140 -107 -223t-203 -91l-36 -209q-6 -32 -33 -32q-21 0 -21 21q0 7 1 11l36 209q-95 9 -150 74.5t-55 169.5q0 34 6 70l24 133q5 32 31 32q23 0 23 -24l-1 -8l-24 -136q-8 -45 -8 -78q0 -91 48 -138t141 -47q107 0 180 69.5t95 193.5
l24 136q2 16 10.5 24t21.5 8q22 0 22 -23zM307 812q0 10 12 22l128 126q15 15 28 15q12 0 22 -15l83 -126q5 -8 5 -15q0 -13 -15 -22q-7 -5 -16 -5q-12 0 -21 16l-67 117l-109 -117q-14 -17 -28 -17q-8 0 -13 5q-9 8 -9 16z" />
    <glyph glyph-name="Ydieresis" unicode="&#x178;" horiz-adv-x="693" 
d="M705 687l-1 -9l-24 -133q-25 -140 -107 -223t-203 -91l-36 -209q-6 -32 -33 -32q-21 0 -21 21q0 7 1 11l36 209q-95 9 -150 74.5t-55 169.5q0 34 6 70l24 133q5 32 31 32q23 0 23 -24l-1 -8l-24 -136q-8 -45 -8 -78q0 -91 48 -138t141 -47q107 0 180 69.5t95 193.5
l24 136q2 16 10.5 24t21.5 8q22 0 22 -23zM323.5 822.5q-10.5 10.5 -10.5 25.5q0 18 16 33.5t35 15.5q14 0 24.5 -10.5t10.5 -25.5q0 -18 -15.5 -33.5t-34.5 -15.5q-15 0 -25.5 10.5zM519.5 822.5q-10.5 10.5 -10.5 25.5q0 18 16 33.5t35 15.5q14 0 24.5 -10.5t10.5 -25.5
q0 -18 -15.5 -33.5t-34.5 -15.5q-15 0 -25.5 10.5z" />
    <glyph glyph-name="uni1E8E" unicode="&#x1e8e;" horiz-adv-x="693" 
d="M705 687l-1 -9l-24 -133q-25 -140 -107 -223t-203 -91l-36 -209q-6 -32 -33 -32q-21 0 -21 21q0 7 1 11l36 209q-95 9 -150 74.5t-55 169.5q0 34 6 70l24 133q5 32 31 32q23 0 23 -24l-1 -8l-24 -136q-8 -45 -8 -78q0 -91 48 -138t141 -47q107 0 180 69.5t95 193.5
l24 136q2 16 10.5 24t21.5 8q22 0 22 -23zM420.5 822.5q-10.5 10.5 -10.5 25.5q0 18 16 33.5t35 15.5q14 0 24.5 -10.5t10.5 -25.5q0 -18 -15.5 -33.5t-34.5 -15.5q-15 0 -25.5 10.5z" />
    <glyph glyph-name="uni1EF4" unicode="&#x1ef4;" horiz-adv-x="693" 
d="M705 687l-1 -9l-24 -133q-25 -140 -107 -223t-203 -91l-36 -209q-6 -32 -33 -32q-21 0 -21 21q0 7 1 11l36 209q-95 9 -150 74.5t-55 169.5q0 34 6 70l24 133q5 32 31 32q23 0 23 -24l-1 -8l-24 -136q-8 -45 -8 -78q0 -91 48 -138t141 -47q107 0 180 69.5t95 193.5
l24 136q2 16 10.5 24t21.5 8q22 0 22 -23zM249.5 -145.5q-10.5 10.5 -10.5 25.5q0 18 16 33.5t35 15.5q14 0 24.5 -10.5t10.5 -25.5q0 -18 -15.5 -33.5t-34.5 -15.5q-15 0 -25.5 10.5z" />
    <glyph glyph-name="Ygrave" unicode="&#x1ef2;" horiz-adv-x="693" 
d="M705 687l-1 -9l-24 -133q-25 -140 -107 -223t-203 -91l-36 -209q-6 -32 -33 -32q-21 0 -21 21q0 7 1 11l36 209q-95 9 -150 74.5t-55 169.5q0 34 6 70l24 133q5 32 31 32q23 0 23 -24l-1 -8l-24 -136q-8 -45 -8 -78q0 -91 48 -138t141 -47q107 0 180 69.5t95 193.5
l24 136q2 16 10.5 24t21.5 8q22 0 22 -23zM444 792q-11 0 -17 14l-53 137q-3 8 -3 14q0 14 19 23q8 4 14 4q15 0 21 -24l40 -139q1 -2 1 -8q0 -14 -13 -19q-6 -2 -9 -2z" />
    <glyph glyph-name="uni1EF6" unicode="&#x1ef6;" horiz-adv-x="693" 
d="M705 687l-1 -9l-24 -133q-25 -140 -107 -223t-203 -91l-36 -209q-6 -32 -33 -32q-21 0 -21 21q0 7 1 11l36 209q-95 9 -150 74.5t-55 169.5q0 34 6 70l24 133q5 32 31 32q23 0 23 -24l-1 -8l-24 -136q-8 -45 -8 -78q0 -91 48 -138t141 -47q107 0 180 69.5t95 193.5
l24 136q2 16 10.5 24t21.5 8q22 0 22 -23zM415 776q0 6 1 9l2 9q3 17 15 28.5t33 25.5q21 15 31 26t10 26q0 28 -37 28q-40 0 -63 -27q-12 -15 -21 -15t-14 5t-5 12q0 9 5 15q16 21 44.5 36t60.5 15q38 0 57 -17t19 -44q0 -28 -13 -43.5t-37 -31.5q-17 -11 -25.5 -19
t-8.5 -21v-8q-5 -13 -12.5 -19t-20.5 -6q-21 0 -21 16z" />
    <glyph glyph-name="uni1EF8" unicode="&#x1ef8;" horiz-adv-x="693" 
d="M705 687l-1 -9l-24 -133q-25 -140 -107 -223t-203 -91l-36 -209q-6 -32 -33 -32q-21 0 -21 21q0 7 1 11l36 209q-95 9 -150 74.5t-55 169.5q0 34 6 70l24 133q5 32 31 32q23 0 23 -24l-1 -8l-24 -136q-8 -45 -8 -78q0 -91 48 -138t141 -47q107 0 180 69.5t95 193.5
l24 136q2 16 10.5 24t21.5 8q22 0 22 -23zM289 817q0 4 4 16q12 33 40 54t60 21q24 0 40.5 -8.5t34.5 -24.5q18 -13 27.5 -18.5t22.5 -5.5q38 0 56 45q7 19 23 19q19 0 19 -15q0 -7 -3 -16q-12 -33 -40.5 -53.5t-59.5 -20.5q-21 0 -36 8t-33 23q-18 13 -29.5 19.5t-26.5 6.5
q-18 0 -33 -12t-23 -33q-7 -19 -23 -19q-20 0 -20 14z" />
    <glyph glyph-name="Z" unicode="Z" horiz-adv-x="710" 
d="M59 21q-23 21 -23 54q0 36 17 60t62 57l483 351q26 19 38 37.5t12 41.5q0 14 -9.5 22.5t-27.5 8.5h-425q-26 0 -26 22q0 12 8.5 18.5t25.5 6.5h425q39 0 61.5 -20t22.5 -54t-17.5 -60t-60.5 -57l-483 -352q-30 -21 -42 -37t-12 -39q0 -15 10.5 -24.5t29.5 -9.5h452
q27 0 27 -18q0 -29 -35 -29h-452q-38 0 -61 21z" />
    <glyph glyph-name="Zacute" unicode="&#x179;" horiz-adv-x="710" 
d="M59 21q-23 21 -23 54q0 36 17 60t62 57l483 351q26 19 38 37.5t12 41.5q0 14 -9.5 22.5t-27.5 8.5h-425q-26 0 -26 22q0 12 8.5 18.5t25.5 6.5h425q39 0 61.5 -20t22.5 -54t-17.5 -60t-60.5 -57l-483 -352q-30 -21 -42 -37t-12 -39q0 -15 10.5 -24.5t29.5 -9.5h452
q27 0 27 -18q0 -29 -35 -29h-452q-38 0 -61 21zM433 806q0 7 5 15l88 139q16 24 30 24q6 0 13 -4q12 -7 12 -17q0 -8 -9 -20l-102 -137q-11 -14 -22 -14q-2 0 -8 2q-7 3 -7 12z" />
    <glyph glyph-name="Zcaron" unicode="&#x17d;" horiz-adv-x="710" 
d="M59 21q-23 21 -23 54q0 36 17 60t62 57l483 351q26 19 38 37.5t12 41.5q0 14 -9.5 22.5t-27.5 8.5h-425q-26 0 -26 22q0 12 8.5 18.5t25.5 6.5h425q39 0 61.5 -20t22.5 -54t-17.5 -60t-60.5 -57l-483 -352q-30 -21 -42 -37t-12 -39q0 -15 10.5 -24.5t29.5 -9.5h452
q27 0 27 -18q0 -29 -35 -29h-452q-38 0 -61 21zM429 806l-84 126q-5 8 -5 15q0 12 16 22q6 5 15 5q12 0 21 -16l68 -117l109 117q15 17 29 17q5 0 12 -5q8 -7 8 -16q0 -11 -11 -22l-128 -126q-13 -15 -28 -15q-12 0 -22 15z" />
    <glyph glyph-name="Zdotaccent" unicode="&#x17b;" horiz-adv-x="710" 
d="M59 21q-23 21 -23 54q0 36 17 60t62 57l483 351q26 19 38 37.5t12 41.5q0 14 -9.5 22.5t-27.5 8.5h-425q-26 0 -26 22q0 12 8.5 18.5t25.5 6.5h425q39 0 61.5 -20t22.5 -54t-17.5 -60t-60.5 -57l-483 -352q-30 -21 -42 -37t-12 -39q0 -15 10.5 -24.5t29.5 -9.5h452
q27 0 27 -18q0 -29 -35 -29h-452q-38 0 -61 21zM429.5 822.5q-10.5 10.5 -10.5 25.5q0 18 16 33.5t35 15.5q14 0 24.5 -10.5t10.5 -25.5q0 -18 -15.5 -33.5t-34.5 -15.5q-15 0 -25.5 10.5z" />
    <glyph glyph-name="uni1E92" unicode="&#x1e92;" horiz-adv-x="710" 
d="M59 21q-23 21 -23 54q0 36 17 60t62 57l483 351q26 19 38 37.5t12 41.5q0 14 -9.5 22.5t-27.5 8.5h-425q-26 0 -26 22q0 12 8.5 18.5t25.5 6.5h425q39 0 61.5 -20t22.5 -54t-17.5 -60t-60.5 -57l-483 -352q-30 -21 -42 -37t-12 -39q0 -15 10.5 -24.5t29.5 -9.5h452
q27 0 27 -18q0 -29 -35 -29h-452q-38 0 -61 21zM258.5 -145.5q-10.5 10.5 -10.5 25.5q0 18 16 33.5t35 15.5q14 0 24.5 -10.5t10.5 -25.5q0 -18 -15.5 -33.5t-34.5 -15.5q-15 0 -25.5 10.5z" />
    <glyph glyph-name="a" unicode="a" horiz-adv-x="588" 
d="M86.5 27.5q-50.5 37.5 -50.5 100.5q0 88 66 139t179 51q59 0 108.5 -18t68.5 -46l13 73q3 17 3 31q0 49 -34 71.5t-107 22.5q-92 0 -179 -47q-14 -8 -21 -8q-19 0 -19 19q0 15 10 22q38 28 97 45t118 17q90 0 137.5 -37t47.5 -106q0 -16 -3 -34l-53 -301
q-4 -17 -10.5 -24.5t-18.5 -7.5t-17.5 8.5t-3.5 23.5l8 45q-80 -77 -206 -77q-83 0 -133.5 37.5zM340 56q49 18 76.5 49.5t27.5 71.5q0 45 -44.5 69t-127.5 24q-86 0 -134.5 -37.5t-48.5 -103.5q0 -91 140 -91q62 0 111 18z" />
    <glyph glyph-name="aacute" unicode="&#xe1;" horiz-adv-x="588" 
d="M86.5 27.5q-50.5 37.5 -50.5 100.5q0 88 66 139t179 51q59 0 108.5 -18t68.5 -46l13 73q3 17 3 31q0 49 -34 71.5t-107 22.5q-92 0 -179 -47q-14 -8 -21 -8q-19 0 -19 19q0 15 10 22q38 28 97 45t118 17q90 0 137.5 -37t47.5 -106q0 -16 -3 -34l-53 -301
q-4 -17 -10.5 -24.5t-18.5 -7.5t-17.5 8.5t-3.5 23.5l8 45q-80 -77 -206 -77q-83 0 -133.5 37.5zM340 56q49 18 76.5 49.5t27.5 71.5q0 45 -44.5 69t-127.5 24q-86 0 -134.5 -37.5t-48.5 -103.5q0 -91 140 -91q62 0 111 18zM354 596q0 7 5 15l88 139q16 24 30 24q6 0 13 -4
q12 -7 12 -17q0 -8 -9 -20l-102 -137q-11 -14 -22 -14q-2 0 -8 2q-7 3 -7 12z" />
    <glyph glyph-name="abreve" unicode="&#x103;" horiz-adv-x="588" 
d="M86.5 27.5q-50.5 37.5 -50.5 100.5q0 88 66 139t179 51q59 0 108.5 -18t68.5 -46l13 73q3 17 3 31q0 49 -34 71.5t-107 22.5q-92 0 -179 -47q-14 -8 -21 -8q-19 0 -19 19q0 15 10 22q38 28 97 45t118 17q90 0 137.5 -37t47.5 -106q0 -16 -3 -34l-53 -301
q-4 -17 -10.5 -24.5t-18.5 -7.5t-17.5 8.5t-3.5 23.5l8 45q-80 -77 -206 -77q-83 0 -133.5 37.5zM340 56q49 18 76.5 49.5t27.5 71.5q0 45 -44.5 69t-127.5 24q-86 0 -134.5 -37.5t-48.5 -103.5q0 -91 140 -91q62 0 111 18zM284.5 614q-30.5 32 -30.5 80q0 59 32 59
q20 0 20 -20q0 -54 4.5 -75.5t18.5 -28t50 -6.5q47 0 74 26.5t35 71.5q6 32 30 32q20 0 20 -20q0 -38 -24 -73t-62.5 -56.5t-79.5 -21.5q-57 0 -87.5 32z" />
    <glyph glyph-name="uni1EAF" unicode="&#x1eaf;" horiz-adv-x="588" 
d="M86.5 27.5q-50.5 37.5 -50.5 100.5q0 88 66 139t179 51q59 0 108.5 -18t68.5 -46l13 73q3 17 3 31q0 49 -34 71.5t-107 22.5q-92 0 -179 -47q-14 -8 -21 -8q-19 0 -19 19q0 15 10 22q38 28 97 45t118 17q90 0 137.5 -37t47.5 -106q0 -16 -3 -34l-53 -301
q-4 -17 -10.5 -24.5t-18.5 -7.5t-17.5 8.5t-3.5 23.5l8 45q-80 -77 -206 -77q-83 0 -133.5 37.5zM340 56q49 18 76.5 49.5t27.5 71.5q0 45 -44.5 69t-127.5 24q-86 0 -134.5 -37.5t-48.5 -103.5q0 -91 140 -91q62 0 111 18zM370 708q0 7 8 17l78 101q16 19 28 19q5 0 13 -4
q11 -7 11 -16t-10 -21l-92 -98q-10 -12 -19 -12q-5 0 -9 3q-8 5 -8 11zM278 599.5q-31 29.5 -31 68.5q0 45 31 45q20 0 20 -18q0 -37 6 -54t22 -23.5t50 -6.5q47 0 73 21t31 50q3 17 9.5 24t20.5 7q20 0 20 -18q0 -29 -21.5 -58t-58.5 -48t-82 -19q-59 0 -90 29.5z" />
    <glyph glyph-name="uni1EB7" unicode="&#x1eb7;" horiz-adv-x="588" 
d="M86.5 27.5q-50.5 37.5 -50.5 100.5q0 88 66 139t179 51q59 0 108.5 -18t68.5 -46l13 73q3 17 3 31q0 49 -34 71.5t-107 22.5q-92 0 -179 -47q-14 -8 -21 -8q-19 0 -19 19q0 15 10 22q38 28 97 45t118 17q90 0 137.5 -37t47.5 -106q0 -16 -3 -34l-53 -301
q-4 -17 -10.5 -24.5t-18.5 -7.5t-17.5 8.5t-3.5 23.5l8 45q-80 -77 -206 -77q-83 0 -133.5 37.5zM340 56q49 18 76.5 49.5t27.5 71.5q0 45 -44.5 69t-127.5 24q-86 0 -134.5 -37.5t-48.5 -103.5q0 -91 140 -91q62 0 111 18zM162.5 -145.5q-10.5 10.5 -10.5 25.5
q0 18 16 33.5t35 15.5q14 0 24.5 -10.5t10.5 -25.5q0 -18 -15.5 -33.5t-34.5 -15.5q-15 0 -25.5 10.5zM284.5 614q-30.5 32 -30.5 80q0 59 32 59q20 0 20 -20q0 -54 4.5 -75.5t18.5 -28t50 -6.5q47 0 74 26.5t35 71.5q6 32 30 32q20 0 20 -20q0 -38 -24 -73t-62.5 -56.5
t-79.5 -21.5q-57 0 -87.5 32z" />
    <glyph glyph-name="uni1EB1" unicode="&#x1eb1;" horiz-adv-x="588" 
d="M86.5 27.5q-50.5 37.5 -50.5 100.5q0 88 66 139t179 51q59 0 108.5 -18t68.5 -46l13 73q3 17 3 31q0 49 -34 71.5t-107 22.5q-92 0 -179 -47q-14 -8 -21 -8q-19 0 -19 19q0 15 10 22q38 28 97 45t118 17q90 0 137.5 -37t47.5 -106q0 -16 -3 -34l-53 -301
q-4 -17 -10.5 -24.5t-18.5 -7.5t-17.5 8.5t-3.5 23.5l8 45q-80 -77 -206 -77q-83 0 -133.5 37.5zM340 56q49 18 76.5 49.5t27.5 71.5q0 45 -44.5 69t-127.5 24q-86 0 -134.5 -37.5t-48.5 -103.5q0 -91 140 -91q62 0 111 18zM395 694q-10 0 -16 12l-56 98q-4 8 -4 14
q0 15 17 23q10 4 14 4q12 0 22 -19l43 -101q2 -6 2 -10q0 -13 -12 -18q-6 -3 -10 -3zM279 599.5q-31 29.5 -31 68.5q0 45 31 45q20 0 20 -18q0 -37 6 -54t22 -23.5t50 -6.5q47 0 73 21t31 50q3 17 9.5 24t20.5 7q20 0 20 -18q0 -29 -21.5 -58t-58.5 -48t-82 -19
q-59 0 -90 29.5z" />
    <glyph glyph-name="uni1EB3" unicode="&#x1eb3;" horiz-adv-x="588" 
d="M86.5 27.5q-50.5 37.5 -50.5 100.5q0 88 66 139t179 51q59 0 108.5 -18t68.5 -46l13 73q3 17 3 31q0 49 -34 71.5t-107 22.5q-92 0 -179 -47q-14 -8 -21 -8q-19 0 -19 19q0 15 10 22q38 28 97 45t118 17q90 0 137.5 -37t47.5 -106q0 -16 -3 -34l-53 -301
q-4 -17 -10.5 -24.5t-18.5 -7.5t-17.5 8.5t-3.5 23.5l8 45q-80 -77 -206 -77q-83 0 -133.5 37.5zM340 56q49 18 76.5 49.5t27.5 71.5q0 45 -44.5 69t-127.5 24q-86 0 -134.5 -37.5t-48.5 -103.5q0 -91 140 -91q62 0 111 18zM372 685.5q-4 5.5 -2 17.5l1 8q2 17 13.5 28
t31.5 24q20 14 29 23t9 23q0 26 -35 26t-54 -21q-5 -6 -9.5 -10t-9.5 -4q-3 0 -9 3q-10 6 -10 14t5 13q15 19 39.5 31t54.5 12q36 0 53 -15.5t17 -40.5q0 -26 -11.5 -40t-34.5 -30q-15 -9 -23 -17t-8 -20v-7q-5 -12 -12 -17.5t-19 -5.5t-16 5.5zM279 599.5
q-31 29.5 -31 68.5q0 45 31 45q20 0 20 -18q0 -37 6 -54t22 -23.5t50 -6.5q47 0 73 21t31 50q3 17 9.5 24t20.5 7q20 0 20 -18q0 -29 -21.5 -58t-58.5 -48t-82 -19q-59 0 -90 29.5z" />
    <glyph glyph-name="uni1EB5" unicode="&#x1eb5;" horiz-adv-x="588" 
d="M86.5 27.5q-50.5 37.5 -50.5 100.5q0 88 66 139t179 51q59 0 108.5 -18t68.5 -46l13 73q3 17 3 31q0 49 -34 71.5t-107 22.5q-92 0 -179 -47q-14 -8 -21 -8q-19 0 -19 19q0 15 10 22q38 28 97 45t118 17q90 0 137.5 -37t47.5 -106q0 -16 -3 -34l-53 -301
q-4 -17 -10.5 -24.5t-18.5 -7.5t-17.5 8.5t-3.5 23.5l8 45q-80 -77 -206 -77q-83 0 -133.5 37.5zM340 56q49 18 76.5 49.5t27.5 71.5q0 45 -44.5 69t-127.5 24q-86 0 -134.5 -37.5t-48.5 -103.5q0 -91 140 -91q62 0 111 18zM252 773q0 6 3 16q9 30 36.5 50.5t58.5 20.5
q22 0 37 -8t35 -23q14 -12 24.5 -18t23.5 -6q18 0 31.5 11.5t21.5 30.5t21 19q5 0 8 -1q11 -3 11 -12q0 -5 -3 -16q-9 -30 -36.5 -50.5t-58.5 -20.5q-20 0 -33.5 7t-32.5 22q-15 13 -26.5 19.5t-26.5 6.5q-18 0 -32 -12t-22 -31q-7 -18 -21 -18q-19 0 -19 13zM279 599.5
q-31 29.5 -31 68.5q0 45 31 45q20 0 20 -18q0 -37 6 -54t22 -23.5t50 -6.5q47 0 73 21t31 50q3 17 9.5 24t20.5 7q20 0 20 -18q0 -29 -21.5 -58t-58.5 -48t-82 -19q-59 0 -90 29.5z" />
    <glyph glyph-name="uni01CE" unicode="&#x1ce;" horiz-adv-x="588" 
d="M86.5 27.5q-50.5 37.5 -50.5 100.5q0 88 66 139t179 51q59 0 108.5 -18t68.5 -46l13 73q3 17 3 31q0 49 -34 71.5t-107 22.5q-92 0 -179 -47q-14 -8 -21 -8q-19 0 -19 19q0 15 10 22q38 28 97 45t118 17q90 0 137.5 -37t47.5 -106q0 -16 -3 -34l-53 -301
q-4 -17 -10.5 -24.5t-18.5 -7.5t-17.5 8.5t-3.5 23.5l8 45q-80 -77 -206 -77q-83 0 -133.5 37.5zM340 56q49 18 76.5 49.5t27.5 71.5q0 45 -44.5 69t-127.5 24q-86 0 -134.5 -37.5t-48.5 -103.5q0 -91 140 -91q62 0 111 18zM350 596l-84 126q-5 8 -5 15q0 12 16 22q6 5 15 5
q12 0 21 -16l68 -117l109 117q15 17 29 17q5 0 12 -5q8 -7 8 -16q0 -11 -11 -22l-128 -126q-13 -15 -28 -15q-12 0 -22 15z" />
    <glyph glyph-name="acircumflex" unicode="&#xe2;" horiz-adv-x="588" 
d="M86.5 27.5q-50.5 37.5 -50.5 100.5q0 88 66 139t179 51q59 0 108.5 -18t68.5 -46l13 73q3 17 3 31q0 49 -34 71.5t-107 22.5q-92 0 -179 -47q-14 -8 -21 -8q-19 0 -19 19q0 15 10 22q38 28 97 45t118 17q90 0 137.5 -37t47.5 -106q0 -16 -3 -34l-53 -301
q-4 -17 -10.5 -24.5t-18.5 -7.5t-17.5 8.5t-3.5 23.5l8 45q-80 -77 -206 -77q-83 0 -133.5 37.5zM340 56q49 18 76.5 49.5t27.5 71.5q0 45 -44.5 69t-127.5 24q-86 0 -134.5 -37.5t-48.5 -103.5q0 -91 140 -91q62 0 111 18zM237 602q0 10 12 22l128 126q15 15 28 15
q12 0 22 -15l83 -126q5 -8 5 -15q0 -13 -15 -22q-7 -5 -16 -5q-12 0 -21 16l-67 117l-109 -117q-14 -17 -28 -17q-8 0 -13 5q-9 8 -9 16z" />
    <glyph glyph-name="uni1EA5" unicode="&#x1ea5;" horiz-adv-x="588" 
d="M86.5 27.5q-50.5 37.5 -50.5 100.5q0 88 66 139t179 51q59 0 108.5 -18t68.5 -46l13 73q3 17 3 31q0 49 -34 71.5t-107 22.5q-92 0 -179 -47q-14 -8 -21 -8q-19 0 -19 19q0 15 10 22q38 28 97 45t118 17q90 0 137.5 -37t47.5 -106q0 -16 -3 -34l-53 -301
q-4 -17 -10.5 -24.5t-18.5 -7.5t-17.5 8.5t-3.5 23.5l8 45q-80 -77 -206 -77q-83 0 -133.5 37.5zM340 56q49 18 76.5 49.5t27.5 71.5q0 45 -44.5 69t-127.5 24q-86 0 -134.5 -37.5t-48.5 -103.5q0 -91 140 -91q62 0 111 18zM483 724q0 8 7 17l78 101q16 19 29 19q4 0 12 -4
q12 -7 12 -16q0 -10 -11 -21l-91 -98q-10 -12 -20 -12q-4 0 -9 3q-7 4 -7 11zM237 603q0 11 12 21l125 109q17 15 27 15q7 0 12 -3.5t11 -11.5l86 -108q5 -6 5 -15q0 -14 -15 -23q-8 -5 -14 -5q-11 0 -23 17l-70 99l-106 -100q-16 -16 -28 -16q-6 0 -13 5q-9 8 -9 16z" />
    <glyph glyph-name="uni1EAD" unicode="&#x1ead;" horiz-adv-x="588" 
d="M86.5 27.5q-50.5 37.5 -50.5 100.5q0 88 66 139t179 51q59 0 108.5 -18t68.5 -46l13 73q3 17 3 31q0 49 -34 71.5t-107 22.5q-92 0 -179 -47q-14 -8 -21 -8q-19 0 -19 19q0 15 10 22q38 28 97 45t118 17q90 0 137.5 -37t47.5 -106q0 -16 -3 -34l-53 -301
q-4 -17 -10.5 -24.5t-18.5 -7.5t-17.5 8.5t-3.5 23.5l8 45q-80 -77 -206 -77q-83 0 -133.5 37.5zM340 56q49 18 76.5 49.5t27.5 71.5q0 45 -44.5 69t-127.5 24q-86 0 -134.5 -37.5t-48.5 -103.5q0 -91 140 -91q62 0 111 18zM162.5 -145.5q-10.5 10.5 -10.5 25.5
q0 18 16 33.5t35 15.5q14 0 24.5 -10.5t10.5 -25.5q0 -18 -15.5 -33.5t-34.5 -15.5q-15 0 -25.5 10.5zM237 602q0 10 12 22l128 126q15 15 28 15q12 0 22 -15l83 -126q5 -8 5 -15q0 -13 -15 -22q-7 -5 -16 -5q-12 0 -21 16l-67 117l-109 -117q-14 -17 -28 -17q-8 0 -13 5
q-9 8 -9 16z" />
    <glyph glyph-name="uni1EA7" unicode="&#x1ea7;" horiz-adv-x="588" 
d="M86.5 27.5q-50.5 37.5 -50.5 100.5q0 88 66 139t179 51q59 0 108.5 -18t68.5 -46l13 73q3 17 3 31q0 49 -34 71.5t-107 22.5q-92 0 -179 -47q-14 -8 -21 -8q-19 0 -19 19q0 15 10 22q38 28 97 45t118 17q90 0 137.5 -37t47.5 -106q0 -16 -3 -34l-53 -301
q-4 -17 -10.5 -24.5t-18.5 -7.5t-17.5 8.5t-3.5 23.5l8 45q-80 -77 -206 -77q-83 0 -133.5 37.5zM340 56q49 18 76.5 49.5t27.5 71.5q0 45 -44.5 69t-127.5 24q-86 0 -134.5 -37.5t-48.5 -103.5q0 -91 140 -91q62 0 111 18zM538 710q-9 0 -15 12l-57 98q-4 8 -4 14
q0 14 18 23q10 4 14 4q14 0 22 -19l42 -101q2 -6 2 -11q0 -10 -12 -17q-6 -3 -10 -3zM237 603q0 11 12 21l125 109q17 15 27 15q8 0 12.5 -3t10.5 -11l87 -109q5 -7 5 -14q0 -13 -16 -24q-8 -5 -14 -5q-11 0 -23 17l-70 99l-106 -100q-16 -16 -28 -16q-6 0 -13 5q-9 8 -9 16
z" />
    <glyph glyph-name="uni1EA9" unicode="&#x1ea9;" horiz-adv-x="588" 
d="M86.5 27.5q-50.5 37.5 -50.5 100.5q0 88 66 139t179 51q59 0 108.5 -18t68.5 -46l13 73q3 17 3 31q0 49 -34 71.5t-107 22.5q-92 0 -179 -47q-14 -8 -21 -8q-19 0 -19 19q0 15 10 22q38 28 97 45t118 17q90 0 137.5 -37t47.5 -106q0 -16 -3 -34l-53 -301
q-4 -17 -10.5 -24.5t-18.5 -7.5t-17.5 8.5t-3.5 23.5l8 45q-80 -77 -206 -77q-83 0 -133.5 37.5zM340 56q49 18 76.5 49.5t27.5 71.5q0 45 -44.5 69t-127.5 24q-86 0 -134.5 -37.5t-48.5 -103.5q0 -91 140 -91q62 0 111 18zM470 722q0 5 1 8l2 8q4 15 14.5 25.5t29.5 24.5
q19 13 28.5 23.5t9.5 24.5q0 26 -35 26q-19 0 -31.5 -5.5t-22.5 -16.5q-10 -13 -19 -13q-5 0 -9 3q-10 5 -10 13q0 7 6 14q15 19 38.5 31t54.5 12q36 0 53 -15.5t17 -40.5q0 -27 -12 -41.5t-35 -28.5q-16 -11 -23.5 -18.5t-9.5 -18.5l-1 -7q-2 -12 -8 -17.5t-19 -5.5
q-19 0 -19 15zM237 603q0 11 12 21l125 109q17 15 27 15q8 0 12.5 -3t10.5 -11l87 -109q5 -7 5 -14q0 -13 -16 -24q-8 -5 -14 -5q-11 0 -23 17l-70 99l-106 -100q-16 -16 -28 -16q-6 0 -13 5q-9 8 -9 16z" />
    <glyph glyph-name="uni1EAB" unicode="&#x1eab;" horiz-adv-x="588" 
d="M86.5 27.5q-50.5 37.5 -50.5 100.5q0 88 66 139t179 51q59 0 108.5 -18t68.5 -46l13 73q3 17 3 31q0 49 -34 71.5t-107 22.5q-92 0 -179 -47q-14 -8 -21 -8q-19 0 -19 19q0 15 10 22q38 28 97 45t118 17q90 0 137.5 -37t47.5 -106q0 -16 -3 -34l-53 -301
q-4 -17 -10.5 -24.5t-18.5 -7.5t-17.5 8.5t-3.5 23.5l8 45q-80 -77 -206 -77q-83 0 -133.5 37.5zM340 56q49 18 76.5 49.5t27.5 71.5q0 45 -44.5 69t-127.5 24q-86 0 -134.5 -37.5t-48.5 -103.5q0 -91 140 -91q62 0 111 18zM268.5 769.5q-3.5 3.5 -3.5 10.5l2 13
q10 32 37 52.5t59 20.5q22 0 37 -8t35 -23q14 -12 24 -18t23 -6q36 0 54 43q7 18 21 18q19 0 19 -14q0 -5 -3 -14q-9 -31 -37 -51.5t-59 -20.5q-20 0 -33.5 7t-32.5 22q-15 13 -26.5 19.5t-26.5 6.5q-17 0 -31 -11.5t-22 -30.5q-7 -19 -22 -19q-11 0 -14.5 3.5zM237 604
q0 11 12 21l125 109q9 8 14.5 11.5t12.5 3.5q15 0 23 -15l86 -109q5 -6 5 -15q0 -12 -15 -23q-8 -5 -14 -5q-11 0 -23 17l-70 100l-106 -100q-16 -16 -28 -16q-6 0 -13 5q-9 8 -9 16z" />
    <glyph glyph-name="adieresis" unicode="&#xe4;" horiz-adv-x="588" 
d="M86.5 27.5q-50.5 37.5 -50.5 100.5q0 88 66 139t179 51q59 0 108.5 -18t68.5 -46l13 73q3 17 3 31q0 49 -34 71.5t-107 22.5q-92 0 -179 -47q-14 -8 -21 -8q-19 0 -19 19q0 15 10 22q38 28 97 45t118 17q90 0 137.5 -37t47.5 -106q0 -16 -3 -34l-53 -301
q-4 -17 -10.5 -24.5t-18.5 -7.5t-17.5 8.5t-3.5 23.5l8 45q-80 -77 -206 -77q-83 0 -133.5 37.5zM340 56q49 18 76.5 49.5t27.5 71.5q0 45 -44.5 69t-127.5 24q-86 0 -134.5 -37.5t-48.5 -103.5q0 -91 140 -91q62 0 111 18zM253.5 612.5q-10.5 10.5 -10.5 25.5q0 18 16 33.5
t35 15.5q14 0 24.5 -10.5t10.5 -25.5q0 -18 -15.5 -33.5t-34.5 -15.5q-15 0 -25.5 10.5zM449.5 612.5q-10.5 10.5 -10.5 25.5q0 18 16 33.5t35 15.5q14 0 24.5 -10.5t10.5 -25.5q0 -18 -15.5 -33.5t-34.5 -15.5q-15 0 -25.5 10.5z" />
    <glyph glyph-name="uni1EA1" unicode="&#x1ea1;" horiz-adv-x="588" 
d="M86.5 27.5q-50.5 37.5 -50.5 100.5q0 88 66 139t179 51q59 0 108.5 -18t68.5 -46l13 73q3 17 3 31q0 49 -34 71.5t-107 22.5q-92 0 -179 -47q-14 -8 -21 -8q-19 0 -19 19q0 15 10 22q38 28 97 45t118 17q90 0 137.5 -37t47.5 -106q0 -16 -3 -34l-53 -301
q-4 -17 -10.5 -24.5t-18.5 -7.5t-17.5 8.5t-3.5 23.5l8 45q-80 -77 -206 -77q-83 0 -133.5 37.5zM340 56q49 18 76.5 49.5t27.5 71.5q0 45 -44.5 69t-127.5 24q-86 0 -134.5 -37.5t-48.5 -103.5q0 -91 140 -91q62 0 111 18zM162.5 -145.5q-10.5 10.5 -10.5 25.5
q0 18 16 33.5t35 15.5q14 0 24.5 -10.5t10.5 -25.5q0 -18 -15.5 -33.5t-34.5 -15.5q-15 0 -25.5 10.5z" />
    <glyph glyph-name="agrave" unicode="&#xe0;" horiz-adv-x="588" 
d="M86.5 27.5q-50.5 37.5 -50.5 100.5q0 88 66 139t179 51q59 0 108.5 -18t68.5 -46l13 73q3 17 3 31q0 49 -34 71.5t-107 22.5q-92 0 -179 -47q-14 -8 -21 -8q-19 0 -19 19q0 15 10 22q38 28 97 45t118 17q90 0 137.5 -37t47.5 -106q0 -16 -3 -34l-53 -301
q-4 -17 -10.5 -24.5t-18.5 -7.5t-17.5 8.5t-3.5 23.5l8 45q-80 -77 -206 -77q-83 0 -133.5 37.5zM340 56q49 18 76.5 49.5t27.5 71.5q0 45 -44.5 69t-127.5 24q-86 0 -134.5 -37.5t-48.5 -103.5q0 -91 140 -91q62 0 111 18zM374 582q-11 0 -17 14l-53 137q-3 8 -3 14
q0 14 19 23q8 4 14 4q15 0 21 -24l40 -139q1 -2 1 -8q0 -14 -13 -19q-6 -2 -9 -2z" />
    <glyph glyph-name="uni1EA3" unicode="&#x1ea3;" horiz-adv-x="588" 
d="M86.5 27.5q-50.5 37.5 -50.5 100.5q0 88 66 139t179 51q59 0 108.5 -18t68.5 -46l13 73q3 17 3 31q0 49 -34 71.5t-107 22.5q-92 0 -179 -47q-14 -8 -21 -8q-19 0 -19 19q0 15 10 22q38 28 97 45t118 17q90 0 137.5 -37t47.5 -106q0 -16 -3 -34l-53 -301
q-4 -17 -10.5 -24.5t-18.5 -7.5t-17.5 8.5t-3.5 23.5l8 45q-80 -77 -206 -77q-83 0 -133.5 37.5zM340 56q49 18 76.5 49.5t27.5 71.5q0 45 -44.5 69t-127.5 24q-86 0 -134.5 -37.5t-48.5 -103.5q0 -91 140 -91q62 0 111 18zM345 566q0 6 1 9l2 9q3 17 15 28.5t33 25.5
q21 15 31 26t10 26q0 28 -37 28q-40 0 -63 -27q-12 -15 -21 -15t-14 5t-5 12q0 9 5 15q16 21 44.5 36t60.5 15q38 0 57 -17t19 -44q0 -28 -13 -43.5t-37 -31.5q-17 -11 -25.5 -19t-8.5 -21v-8q-5 -13 -12.5 -19t-20.5 -6q-21 0 -21 16z" />
    <glyph glyph-name="uni0251" unicode="&#x251;" horiz-adv-x="676" 
d="M109 43q-61 53 -61 145q0 89 41.5 160.5t114.5 111.5t164 40q67 0 119 -28.5t85 -82.5q11 39 32 83q14 29 33 29q25 0 25 -19q0 -5 -5 -17q-29 -60 -37 -101l-43 -247q-3 -16 -3 -36q0 -21 5 -59q1 -14 -7 -23t-22 -9q-18 0 -24 29q-5 31 -4 84q-47 -57 -107.5 -85
t-138.5 -28q-106 0 -167 53zM421.5 69.5q60.5 31.5 94.5 87t34 125.5q0 76 -52.5 123t-137.5 47q-75 0 -134 -33.5t-92.5 -93t-33.5 -135.5q0 -75 47 -113.5t138 -38.5q76 0 136.5 31.5z" />
    <glyph glyph-name="amacron" unicode="&#x101;" horiz-adv-x="588" 
d="M86.5 27.5q-50.5 37.5 -50.5 100.5q0 88 66 139t179 51q59 0 108.5 -18t68.5 -46l13 73q3 17 3 31q0 49 -34 71.5t-107 22.5q-92 0 -179 -47q-14 -8 -21 -8q-19 0 -19 19q0 15 10 22q38 28 97 45t118 17q90 0 137.5 -37t47.5 -106q0 -16 -3 -34l-53 -301
q-4 -17 -10.5 -24.5t-18.5 -7.5t-17.5 8.5t-3.5 23.5l8 45q-80 -77 -206 -77q-83 0 -133.5 37.5zM340 56q49 18 76.5 49.5t27.5 71.5q0 45 -44.5 69t-127.5 24q-86 0 -134.5 -37.5t-48.5 -103.5q0 -91 140 -91q62 0 111 18zM226 599q0 15 8.5 20.5t25.5 5.5h240q13 0 20 -3
t7 -12q0 -26 -34 -26h-240q-27 0 -27 15z" />
    <glyph glyph-name="aogonek" unicode="&#x105;" horiz-adv-x="588" 
d="M371.5 -70.5q-25.5 -27.5 -25.5 -60.5q0 -16 12 -26.5t35 -10.5q33 0 63 23q11 7 15 7q7 0 12 -7q4 -6 4 -10q0 -10 -11 -19q-40 -34 -90 -34q-41 0 -63.5 20t-22.5 50q0 44 34 81t82 70l1 1l1 8l8 45q-80 -77 -206 -77q-83 0 -133.5 37.5t-50.5 100.5q0 88 66 139
t179 51q59 0 108.5 -18t68.5 -46l13 73q3 17 3 31q0 49 -34 71.5t-107 22.5q-92 0 -179 -47q-14 -8 -21 -8q-19 0 -19 19q0 15 10 22q38 28 97 45t118 17q90 0 137.5 -37t47.5 -106q0 -16 -3 -34l-53 -301l-3 -11q0 -2 -3 -7q-4 -10 -15 -13q-50 -34 -75.5 -61.5zM340 56
q49 18 76.5 49.5t27.5 71.5q0 45 -44.5 69t-127.5 24q-86 0 -134.5 -37.5t-48.5 -103.5q0 -91 140 -91q62 0 111 18z" />
    <glyph glyph-name="aring" unicode="&#xe5;" horiz-adv-x="588" 
d="M86.5 27.5q-50.5 37.5 -50.5 100.5q0 88 66 139t179 51q59 0 108.5 -18t68.5 -46l13 73q3 17 3 31q0 49 -34 71.5t-107 22.5q-92 0 -179 -47q-14 -8 -21 -8q-19 0 -19 19q0 15 10 22q38 28 97 45t118 17q90 0 137.5 -37t47.5 -106q0 -16 -3 -34l-53 -301
q-4 -17 -10.5 -24.5t-18.5 -7.5t-17.5 8.5t-3.5 23.5l8 45q-80 -77 -206 -77q-83 0 -133.5 37.5zM340 56q49 18 76.5 49.5t27.5 71.5q0 45 -44.5 69t-127.5 24q-86 0 -134.5 -37.5t-48.5 -103.5q0 -91 140 -91q62 0 111 18zM298.5 569q-25.5 23 -25.5 58q0 32 17.5 59
t47 42.5t64.5 15.5q42 0 67 -23t25 -58q0 -31 -17 -58t-46.5 -43t-63.5 -16q-43 0 -68.5 23zM430.5 604.5q22.5 21.5 22.5 53.5q0 23 -15.5 36.5t-41.5 13.5q-35 0 -57.5 -21.5t-22.5 -54.5q0 -23 15.5 -36t42.5 -13q34 0 56.5 21.5z" />
    <glyph glyph-name="aringacute" unicode="&#x1fb;" horiz-adv-x="588" 
d="M390 783q0 5 5 12l88 111q16 19 30 19q6 0 13 -3q12 -6 12 -13q0 -8 -9 -17l-102 -109q-12 -12 -22 -12q-2 0 -8 2q-7 3 -7 10zM298.5 569q-25.5 23 -25.5 58q0 32 17.5 59t47 42.5t64.5 15.5q42 0 67 -23t25 -58q0 -31 -17 -58t-46.5 -43t-63.5 -16q-43 0 -68.5 23z
M430.5 604.5q22.5 21.5 22.5 53.5q0 23 -15.5 36.5t-41.5 13.5q-35 0 -57.5 -21.5t-22.5 -54.5q0 -23 15.5 -36t42.5 -13q34 0 56.5 21.5zM86.5 27.5q-50.5 37.5 -50.5 100.5q0 88 66 139t179 51q59 0 108.5 -18t68.5 -46l13 73q3 17 3 31q0 49 -34 71.5t-107 22.5
q-92 0 -179 -47q-14 -8 -21 -8q-19 0 -19 19q0 15 10 22q38 28 97 45t118 17q90 0 137.5 -37t47.5 -106q0 -16 -3 -34l-53 -301q-4 -17 -10.5 -24.5t-18.5 -7.5t-17.5 8.5t-3.5 23.5l8 45q-80 -77 -206 -77q-83 0 -133.5 37.5zM340 56q49 18 76.5 49.5t27.5 71.5
q0 45 -44.5 69t-127.5 24q-86 0 -134.5 -37.5t-48.5 -103.5q0 -91 140 -91q62 0 111 18z" />
    <glyph glyph-name="atilde" unicode="&#xe3;" horiz-adv-x="588" 
d="M86.5 27.5q-50.5 37.5 -50.5 100.5q0 88 66 139t179 51q59 0 108.5 -18t68.5 -46l13 73q3 17 3 31q0 49 -34 71.5t-107 22.5q-92 0 -179 -47q-14 -8 -21 -8q-19 0 -19 19q0 15 10 22q38 28 97 45t118 17q90 0 137.5 -37t47.5 -106q0 -16 -3 -34l-53 -301
q-4 -17 -10.5 -24.5t-18.5 -7.5t-17.5 8.5t-3.5 23.5l8 45q-80 -77 -206 -77q-83 0 -133.5 37.5zM340 56q49 18 76.5 49.5t27.5 71.5q0 45 -44.5 69t-127.5 24q-86 0 -134.5 -37.5t-48.5 -103.5q0 -91 140 -91q62 0 111 18zM219 607q0 4 4 16q12 33 40 54t60 21
q24 0 40.5 -8.5t34.5 -24.5q18 -13 27.5 -18.5t22.5 -5.5q38 0 56 45q7 19 23 19q19 0 19 -15q0 -7 -3 -16q-12 -33 -40.5 -53.5t-59.5 -20.5q-21 0 -36 8t-33 23q-18 13 -29.5 19.5t-26.5 6.5q-18 0 -33 -12t-23 -33q-7 -19 -23 -19q-20 0 -20 14z" />
    <glyph glyph-name="ae" unicode="&#xe6;" horiz-adv-x="1017" 
d="M84.5 27.5q-48.5 37.5 -48.5 101.5q0 58 30 103.5t84.5 70.5t125.5 25q59 0 106 -17.5t70 -48.5l9 51q2 14 2 26q0 53 -36 83t-99 30q-44 0 -85.5 -12t-91.5 -39q-11 -5 -17 -5q-10 0 -18 9q-5 7 -5 15q0 11 10 18q44 29 100.5 45.5t112.5 16.5q66 0 112 -32t59 -87
q37 56 102 87.5t142 31.5q67 0 118 -21t79.5 -59.5t28.5 -88.5t-25 -79t-69 -29h-382q-4 -16 -4 -42q0 -68 46.5 -105t132.5 -37q62 0 108.5 15.5t92.5 50.5q15 14 26 14q6 0 11 -5q8 -8 8 -16q0 -11 -10 -19q-47 -43 -109.5 -65.5t-135.5 -22.5q-70 0 -125 29t-78 78
q-42 -55 -102 -81.5t-144 -26.5q-83 0 -131.5 37.5zM875 268q26 0 37 14t11 48q0 58 -48 90t-134 32q-93 0 -155 -49t-77 -135h366zM333.5 57q48.5 19 76.5 52t28 74q0 47 -43.5 72t-125.5 25t-131 -40t-49 -108q0 -94 136 -94q60 0 108.5 19z" />
    <glyph glyph-name="aeacute" unicode="&#x1fd;" horiz-adv-x="1017" 
d="M84.5 27.5q-48.5 37.5 -48.5 101.5q0 58 30 103.5t84.5 70.5t125.5 25q59 0 106 -17.5t70 -48.5l9 51q2 14 2 26q0 53 -36 83t-99 30q-44 0 -85.5 -12t-91.5 -39q-11 -5 -17 -5q-10 0 -18 9q-5 7 -5 15q0 11 10 18q44 29 100.5 45.5t112.5 16.5q66 0 112 -32t59 -87
q37 56 102 87.5t142 31.5q67 0 118 -21t79.5 -59.5t28.5 -88.5t-25 -79t-69 -29h-382q-4 -16 -4 -42q0 -68 46.5 -105t132.5 -37q62 0 108.5 15.5t92.5 50.5q15 14 26 14q6 0 11 -5q8 -8 8 -16q0 -11 -10 -19q-47 -43 -109.5 -65.5t-135.5 -22.5q-70 0 -125 29t-78 78
q-42 -55 -102 -81.5t-144 -26.5q-83 0 -131.5 37.5zM875 268q26 0 37 14t11 48q0 58 -48 90t-134 32q-93 0 -155 -49t-77 -135h366zM333.5 57q48.5 19 76.5 52t28 74q0 47 -43.5 72t-125.5 25t-131 -40t-49 -108q0 -94 136 -94q60 0 108.5 19zM536 596q0 7 5 15l88 139
q16 24 30 24q6 0 13 -4q12 -7 12 -17q0 -8 -9 -20l-102 -137q-11 -14 -22 -14q-2 0 -8 2q-7 3 -7 12z" />
    <glyph glyph-name="b" unicode="b" horiz-adv-x="684" 
d="M45 12l1 10l124 705q6 32 31 32q11 0 16.5 -8.5t3.5 -23.5l-58 -338q101 111 244 111q105 0 166 -54.5t61 -148.5q0 -89 -40.5 -159t-112.5 -109t-164 -39q-71 0 -125.5 30t-80.5 83l-14 -81q-2 -16 -10.5 -24t-21.5 -8q-20 0 -20 22zM459 70.5q58 32.5 90.5 91
t32.5 133.5q0 76 -47.5 116.5t-135.5 40.5q-73 0 -134.5 -33.5t-97 -91t-35.5 -126.5q0 -77 51 -120t143 -43q75 0 133 32.5z" />
    <glyph glyph-name="c" unicode="c" horiz-adv-x="592" 
d="M156 15.5q-51 25.5 -78.5 73t-27.5 109.5q0 89 38.5 157.5t108.5 106.5t161 38q149 0 203 -80q4 -5 4 -13q0 -11 -13 -22q-7 -5 -14 -5q-13 0 -22 12q-24 33 -61 46.5t-102 13.5q-74 0 -130.5 -31.5t-88 -89t-31.5 -131.5q0 -80 45 -121t132 -41q115 0 184 63
q13 11 23 11q9 0 16 -7q6 -6 6 -14q0 -12 -12 -21q-50 -41 -104.5 -60.5t-118.5 -19.5q-67 0 -118 25.5z" />
    <glyph glyph-name="cacute" unicode="&#x107;" horiz-adv-x="592" 
d="M156 15.5q-51 25.5 -78.5 73t-27.5 109.5q0 89 38.5 157.5t108.5 106.5t161 38q149 0 203 -80q4 -5 4 -13q0 -11 -13 -22q-7 -5 -14 -5q-13 0 -22 12q-24 33 -61 46.5t-102 13.5q-74 0 -130.5 -31.5t-88 -89t-31.5 -131.5q0 -80 45 -121t132 -41q115 0 184 63
q13 11 23 11q9 0 16 -7q6 -6 6 -14q0 -12 -12 -21q-50 -41 -104.5 -60.5t-118.5 -19.5q-67 0 -118 25.5zM372 596q0 7 5 15l88 139q16 24 30 24q6 0 13 -4q12 -7 12 -17q0 -8 -9 -20l-102 -137q-11 -14 -22 -14q-2 0 -8 2q-7 3 -7 12z" />
    <glyph glyph-name="ccaron" unicode="&#x10d;" horiz-adv-x="592" 
d="M156 15.5q-51 25.5 -78.5 73t-27.5 109.5q0 89 38.5 157.5t108.5 106.5t161 38q149 0 203 -80q4 -5 4 -13q0 -11 -13 -22q-7 -5 -14 -5q-13 0 -22 12q-24 33 -61 46.5t-102 13.5q-74 0 -130.5 -31.5t-88 -89t-31.5 -131.5q0 -80 45 -121t132 -41q115 0 184 63
q13 11 23 11q9 0 16 -7q6 -6 6 -14q0 -12 -12 -21q-50 -41 -104.5 -60.5t-118.5 -19.5q-67 0 -118 25.5zM368 596l-84 126q-5 8 -5 15q0 12 16 22q6 5 15 5q12 0 21 -16l68 -117l109 117q15 17 29 17q5 0 12 -5q8 -7 8 -16q0 -11 -11 -22l-128 -126q-13 -15 -28 -15
q-12 0 -22 15z" />
    <glyph glyph-name="ccedilla" unicode="&#xe7;" horiz-adv-x="592" 
d="M565 407q0 -11 -13 -22q-7 -5 -14 -5q-13 0 -22 12q-24 33 -61 46.5t-102 13.5q-74 0 -130.5 -31.5t-88 -89t-31.5 -131.5q0 -80 45 -121t132 -41q115 0 184 63q13 11 23 11q9 0 16 -7q6 -6 6 -14q0 -12 -12 -21q-90 -73 -197 -79l-2 -3l-33 -48q35 1 52 -13.5t17 -39.5
q0 -41 -30.5 -68t-76.5 -27q-31 0 -53.5 14t-32.5 33q-3 6 -3 12q0 9 11 17q8 5 13 5q9 0 14 -10q16 -31 58 -31q25 0 40 14t15 37q0 29 -32 29q-8 0 -13 -1q-12 -2 -19.5 3t-7.5 14q0 6 5 14l31 49q-93 6 -148 62t-55 145t38.5 157.5t108.5 106.5t161 38q149 0 203 -80
q4 -5 4 -13z" />
    <glyph glyph-name="ccircumflex" unicode="&#x109;" horiz-adv-x="592" 
d="M156 15.5q-51 25.5 -78.5 73t-27.5 109.5q0 89 38.5 157.5t108.5 106.5t161 38q149 0 203 -80q4 -5 4 -13q0 -11 -13 -22q-7 -5 -14 -5q-13 0 -22 12q-24 33 -61 46.5t-102 13.5q-74 0 -130.5 -31.5t-88 -89t-31.5 -131.5q0 -80 45 -121t132 -41q115 0 184 63
q13 11 23 11q9 0 16 -7q6 -6 6 -14q0 -12 -12 -21q-50 -41 -104.5 -60.5t-118.5 -19.5q-67 0 -118 25.5zM255 602q0 10 12 22l128 126q15 15 28 15q12 0 22 -15l83 -126q5 -8 5 -15q0 -13 -15 -22q-7 -5 -16 -5q-12 0 -21 16l-67 117l-109 -117q-14 -17 -28 -17q-8 0 -13 5
q-9 8 -9 16z" />
    <glyph glyph-name="cdotaccent" unicode="&#x10b;" horiz-adv-x="592" 
d="M156 15.5q-51 25.5 -78.5 73t-27.5 109.5q0 89 38.5 157.5t108.5 106.5t161 38q149 0 203 -80q4 -5 4 -13q0 -11 -13 -22q-7 -5 -14 -5q-13 0 -22 12q-24 33 -61 46.5t-102 13.5q-74 0 -130.5 -31.5t-88 -89t-31.5 -131.5q0 -80 45 -121t132 -41q115 0 184 63
q13 11 23 11q9 0 16 -7q6 -6 6 -14q0 -12 -12 -21q-50 -41 -104.5 -60.5t-118.5 -19.5q-67 0 -118 25.5zM368.5 612.5q-10.5 10.5 -10.5 25.5q0 18 16 33.5t35 15.5q14 0 24.5 -10.5t10.5 -25.5q0 -18 -15.5 -33.5t-34.5 -15.5q-15 0 -25.5 10.5z" />
    <glyph glyph-name="d" unicode="d" horiz-adv-x="685" 
d="M109 42q-60 52 -60 152q0 84 41.5 154t114.5 111t163 41q71 0 119 -28.5t85 -92.5l61 348q6 32 31 32q21 0 21 -22q0 -7 -1 -10l-124 -705q-6 -32 -30 -32q-11 0 -16.5 6.5t-5.5 17.5l1 8l14 81q-47 -58 -106 -85.5t-137 -27.5q-111 0 -171 52zM426 71.5
q62 33.5 93.5 87.5t31.5 116q0 82 -53.5 129.5t-141.5 47.5q-73 0 -131.5 -34t-91 -92.5t-32.5 -129.5q0 -81 44.5 -119.5t132.5 -38.5q86 0 148 33.5z" />
    <glyph glyph-name="eth" unicode="&#xf0;" horiz-adv-x="642" 
d="M632 714q5 -5 5 -12q0 -11 -11 -19l-77 -67q64 -71 64 -181q0 -125 -46.5 -226.5t-127.5 -160t-181 -58.5q-95 0 -152 54t-57 143q0 80 37.5 144t104.5 100.5t150 36.5q76 0 131.5 -38t80.5 -106l2 1q11 64 11 106q0 48 -13 85t-41 67l-66 -58q-7 -7 -18 -7
q-8 0 -12.5 4.5t-4.5 11.5q0 10 10 20l63 55q-42 32 -116 61q-10 4 -10 14q0 7 7 19q8 12 20 12q9 0 19 -5q73 -29 118 -68l81 70q11 7 16 7q8 0 13 -5zM389.5 69q56.5 30 90 81.5t33.5 110.5q0 45 -23 81t-64 56.5t-92 20.5q-68 0 -121 -30t-82.5 -83.5t-29.5 -123.5
t42 -106.5t124 -36.5q66 0 122.5 30z" />
    <glyph glyph-name="dcaron" unicode="&#x10f;" horiz-adv-x="769" 
d="M109 42q-60 52 -60 152q0 84 41.5 154t114.5 111t163 41q71 0 119 -28.5t85 -92.5l61 348q6 32 31 32q21 0 21 -22q0 -7 -1 -10l-124 -705q-6 -32 -30 -32q-11 0 -16.5 6.5t-5.5 17.5l1 8l14 81q-47 -58 -106 -85.5t-137 -27.5q-111 0 -171 52zM426 71.5
q62 33.5 93.5 87.5t31.5 116q0 82 -53.5 129.5t-141.5 47.5q-73 0 -131.5 -34t-91 -92.5t-32.5 -129.5q0 -81 44.5 -119.5t132.5 -38.5q86 0 148 33.5zM712 553q0 6 4.5 11t14.5 12q66 48 73 84q-9 -3 -16 -3q-17 0 -29 11t-12 27q0 25 18.5 42t45.5 17q21 0 33 -12.5
t12 -36.5q0 -38 -26.5 -77t-73.5 -73q-3 -2 -14.5 -10t-17.5 -8q-4 0 -9 7q-3 5 -3 9z" />
    <glyph glyph-name="dcroat" unicode="&#x111;" horiz-adv-x="725" 
d="M754 610q0 -28 -35 -28h-61l-98 -560q-6 -32 -30 -32q-11 0 -16.5 6.5t-5.5 17.5l1 8l14 81q-47 -58 -106 -85.5t-137 -27.5q-111 0 -171 52t-60 152q0 84 41.5 154t114.5 111t163 41q71 0 119 -28.5t85 -92.5l36 203h-129q-27 0 -27 17q0 16 9 22t26 6h128l18 100
q6 32 31 32q21 0 21 -22q0 -7 -1 -10l-18 -100h61q27 0 27 -17zM426 71.5q62 33.5 93.5 87.5t31.5 116q0 82 -53.5 129.5t-141.5 47.5q-73 0 -131.5 -34t-91 -92.5t-32.5 -129.5q0 -81 44.5 -119.5t132.5 -38.5q86 0 148 33.5z" />
    <glyph glyph-name="uni1E0D" unicode="&#x1e0d;" horiz-adv-x="685" 
d="M109 42q-60 52 -60 152q0 84 41.5 154t114.5 111t163 41q71 0 119 -28.5t85 -92.5l61 348q6 32 31 32q21 0 21 -22q0 -7 -1 -10l-124 -705q-6 -32 -30 -32q-11 0 -16.5 6.5t-5.5 17.5l1 8l14 81q-47 -58 -106 -85.5t-137 -27.5q-111 0 -171 52zM426 71.5
q62 33.5 93.5 87.5t31.5 116q0 82 -53.5 129.5t-141.5 47.5q-73 0 -131.5 -34t-91 -92.5t-32.5 -129.5q0 -81 44.5 -119.5t132.5 -38.5q86 0 148 33.5zM245.5 -145.5q-10.5 10.5 -10.5 25.5q0 18 16 33.5t35 15.5q14 0 24.5 -10.5t10.5 -25.5q0 -18 -15.5 -33.5t-34.5 -15.5
q-15 0 -25.5 10.5z" />
    <glyph glyph-name="uni1E0F" unicode="&#x1e0f;" horiz-adv-x="685" 
d="M109 42q-60 52 -60 152q0 84 41.5 154t114.5 111t163 41q71 0 119 -28.5t85 -92.5l61 348q6 32 31 32q21 0 21 -22q0 -7 -1 -10l-124 -705q-6 -32 -30 -32q-11 0 -16.5 6.5t-5.5 17.5l1 8l14 81q-47 -58 -106 -85.5t-137 -27.5q-111 0 -171 52zM426 71.5
q62 33.5 93.5 87.5t31.5 116q0 82 -53.5 129.5t-141.5 47.5q-73 0 -131.5 -34t-91 -92.5t-32.5 -129.5q0 -81 44.5 -119.5t132.5 -38.5q86 0 148 33.5zM128 -119q0 15 8.5 20.5t25.5 5.5h240q13 0 20 -3t7 -12q0 -26 -34 -26h-240q-27 0 -27 15z" />
    <glyph glyph-name="e" unicode="e" horiz-adv-x="634" 
d="M110.5 47.5q-59.5 56.5 -59.5 158.5q0 87 39 153.5t109 103.5t161 37q68 0 120.5 -21.5t82 -60.5t29.5 -89q0 -47 -26 -76.5t-68 -29.5h-393q-2 -22 -2 -31q0 -75 47.5 -114t139.5 -39q59 0 102.5 14.5t89.5 48.5q18 14 26 14q5 0 12 -5q8 -5 8 -14q0 -10 -11 -21
q-35 -38 -100.5 -61.5t-138.5 -23.5q-108 0 -167.5 56.5zM492 268q23 0 35.5 15t12.5 42q0 59 -49 93t-134 34q-100 0 -163.5 -48t-79.5 -136h378z" />
    <glyph glyph-name="eacute" unicode="&#xe9;" horiz-adv-x="634" 
d="M110.5 47.5q-59.5 56.5 -59.5 158.5q0 87 39 153.5t109 103.5t161 37q68 0 120.5 -21.5t82 -60.5t29.5 -89q0 -47 -26 -76.5t-68 -29.5h-393q-2 -22 -2 -31q0 -75 47.5 -114t139.5 -39q59 0 102.5 14.5t89.5 48.5q18 14 26 14q5 0 12 -5q8 -5 8 -14q0 -10 -11 -21
q-35 -38 -100.5 -61.5t-138.5 -23.5q-108 0 -167.5 56.5zM492 268q23 0 35.5 15t12.5 42q0 59 -49 93t-134 34q-100 0 -163.5 -48t-79.5 -136h378zM366 596q0 7 5 15l88 139q16 24 30 24q6 0 13 -4q12 -7 12 -17q0 -8 -9 -20l-102 -137q-11 -14 -22 -14q-2 0 -8 2
q-7 3 -7 12z" />
    <glyph glyph-name="ebreve" unicode="&#x115;" horiz-adv-x="634" 
d="M110.5 47.5q-59.5 56.5 -59.5 158.5q0 87 39 153.5t109 103.5t161 37q68 0 120.5 -21.5t82 -60.5t29.5 -89q0 -47 -26 -76.5t-68 -29.5h-393q-2 -22 -2 -31q0 -75 47.5 -114t139.5 -39q59 0 102.5 14.5t89.5 48.5q18 14 26 14q5 0 12 -5q8 -5 8 -14q0 -10 -11 -21
q-35 -38 -100.5 -61.5t-138.5 -23.5q-108 0 -167.5 56.5zM492 268q23 0 35.5 15t12.5 42q0 59 -49 93t-134 34q-100 0 -163.5 -48t-79.5 -136h378zM296.5 614q-30.5 32 -30.5 80q0 59 32 59q20 0 20 -20q0 -54 4.5 -75.5t18.5 -28t50 -6.5q47 0 74 26.5t35 71.5q6 32 30 32
q20 0 20 -20q0 -38 -24 -73t-62.5 -56.5t-79.5 -21.5q-57 0 -87.5 32z" />
    <glyph glyph-name="ecaron" unicode="&#x11b;" horiz-adv-x="634" 
d="M110.5 47.5q-59.5 56.5 -59.5 158.5q0 87 39 153.5t109 103.5t161 37q68 0 120.5 -21.5t82 -60.5t29.5 -89q0 -47 -26 -76.5t-68 -29.5h-393q-2 -22 -2 -31q0 -75 47.5 -114t139.5 -39q59 0 102.5 14.5t89.5 48.5q18 14 26 14q5 0 12 -5q8 -5 8 -14q0 -10 -11 -21
q-35 -38 -100.5 -61.5t-138.5 -23.5q-108 0 -167.5 56.5zM492 268q23 0 35.5 15t12.5 42q0 59 -49 93t-134 34q-100 0 -163.5 -48t-79.5 -136h378zM362 596l-84 126q-5 8 -5 15q0 12 16 22q6 5 15 5q12 0 21 -16l68 -117l109 117q15 17 29 17q5 0 12 -5q8 -7 8 -16
q0 -11 -11 -22l-128 -126q-13 -15 -28 -15q-12 0 -22 15z" />
    <glyph glyph-name="ecircumflex" unicode="&#xea;" horiz-adv-x="634" 
d="M110.5 47.5q-59.5 56.5 -59.5 158.5q0 87 39 153.5t109 103.5t161 37q68 0 120.5 -21.5t82 -60.5t29.5 -89q0 -47 -26 -76.5t-68 -29.5h-393q-2 -22 -2 -31q0 -75 47.5 -114t139.5 -39q59 0 102.5 14.5t89.5 48.5q18 14 26 14q5 0 12 -5q8 -5 8 -14q0 -10 -11 -21
q-35 -38 -100.5 -61.5t-138.5 -23.5q-108 0 -167.5 56.5zM492 268q23 0 35.5 15t12.5 42q0 59 -49 93t-134 34q-100 0 -163.5 -48t-79.5 -136h378zM249 602q0 10 12 22l128 126q15 15 28 15q12 0 22 -15l83 -126q5 -8 5 -15q0 -13 -15 -22q-7 -5 -16 -5q-12 0 -21 16
l-67 117l-109 -117q-14 -17 -28 -17q-8 0 -13 5q-9 8 -9 16z" />
    <glyph glyph-name="uni1EBF" unicode="&#x1ebf;" horiz-adv-x="634" 
d="M110.5 47.5q-59.5 56.5 -59.5 158.5q0 87 39 153.5t109 103.5t161 37q68 0 120.5 -21.5t82 -60.5t29.5 -89q0 -47 -26 -76.5t-68 -29.5h-393q-2 -22 -2 -31q0 -75 47.5 -114t139.5 -39q59 0 102.5 14.5t89.5 48.5q18 14 26 14q5 0 12 -5q8 -5 8 -14q0 -10 -11 -21
q-35 -38 -100.5 -61.5t-138.5 -23.5q-108 0 -167.5 56.5zM492 268q23 0 35.5 15t12.5 42q0 59 -49 93t-134 34q-100 0 -163.5 -48t-79.5 -136h378zM495 724q0 8 7 17l78 101q16 19 29 19q4 0 12 -4q12 -7 12 -16q0 -10 -11 -21l-91 -98q-10 -12 -20 -12q-4 0 -9 3
q-7 4 -7 11zM249 603q0 11 12 21l125 109q17 15 27 15q7 0 12 -3.5t11 -11.5l86 -108q5 -6 5 -15q0 -14 -15 -23q-8 -5 -14 -5q-11 0 -23 17l-70 99l-106 -100q-16 -16 -28 -16q-6 0 -13 5q-9 8 -9 16z" />
    <glyph glyph-name="uni1EC7" unicode="&#x1ec7;" horiz-adv-x="634" 
d="M110.5 47.5q-59.5 56.5 -59.5 158.5q0 87 39 153.5t109 103.5t161 37q68 0 120.5 -21.5t82 -60.5t29.5 -89q0 -47 -26 -76.5t-68 -29.5h-393q-2 -22 -2 -31q0 -75 47.5 -114t139.5 -39q59 0 102.5 14.5t89.5 48.5q18 14 26 14q5 0 12 -5q8 -5 8 -14q0 -10 -11 -21
q-35 -38 -100.5 -61.5t-138.5 -23.5q-108 0 -167.5 56.5zM492 268q23 0 35.5 15t12.5 42q0 59 -49 93t-134 34q-100 0 -163.5 -48t-79.5 -136h378zM234.5 -145.5q-10.5 10.5 -10.5 25.5q0 18 16 33.5t35 15.5q14 0 24.5 -10.5t10.5 -25.5q0 -18 -15.5 -33.5t-34.5 -15.5
q-15 0 -25.5 10.5zM249 602q0 10 12 22l128 126q15 15 28 15q12 0 22 -15l83 -126q5 -8 5 -15q0 -13 -15 -22q-7 -5 -16 -5q-12 0 -21 16l-67 117l-109 -117q-14 -17 -28 -17q-8 0 -13 5q-9 8 -9 16z" />
    <glyph glyph-name="uni1EC1" unicode="&#x1ec1;" horiz-adv-x="634" 
d="M110.5 47.5q-59.5 56.5 -59.5 158.5q0 87 39 153.5t109 103.5t161 37q68 0 120.5 -21.5t82 -60.5t29.5 -89q0 -47 -26 -76.5t-68 -29.5h-393q-2 -22 -2 -31q0 -75 47.5 -114t139.5 -39q59 0 102.5 14.5t89.5 48.5q18 14 26 14q5 0 12 -5q8 -5 8 -14q0 -10 -11 -21
q-35 -38 -100.5 -61.5t-138.5 -23.5q-108 0 -167.5 56.5zM492 268q23 0 35.5 15t12.5 42q0 59 -49 93t-134 34q-100 0 -163.5 -48t-79.5 -136h378zM550 710q-9 0 -15 12l-57 98q-4 8 -4 14q0 14 18 23q10 4 14 4q14 0 22 -19l42 -101q2 -6 2 -11q0 -10 -12 -17q-6 -3 -10 -3
zM249 603q0 11 12 21l125 109q17 15 27 15q8 0 12.5 -3t10.5 -11l87 -109q5 -7 5 -14q0 -13 -16 -24q-8 -5 -14 -5q-11 0 -23 17l-70 99l-106 -100q-16 -16 -28 -16q-6 0 -13 5q-9 8 -9 16z" />
    <glyph glyph-name="uni1EC3" unicode="&#x1ec3;" horiz-adv-x="634" 
d="M110.5 47.5q-59.5 56.5 -59.5 158.5q0 87 39 153.5t109 103.5t161 37q68 0 120.5 -21.5t82 -60.5t29.5 -89q0 -47 -26 -76.5t-68 -29.5h-393q-2 -22 -2 -31q0 -75 47.5 -114t139.5 -39q59 0 102.5 14.5t89.5 48.5q18 14 26 14q5 0 12 -5q8 -5 8 -14q0 -10 -11 -21
q-35 -38 -100.5 -61.5t-138.5 -23.5q-108 0 -167.5 56.5zM492 268q23 0 35.5 15t12.5 42q0 59 -49 93t-134 34q-100 0 -163.5 -48t-79.5 -136h378zM482 722q0 5 1 8l2 8q4 15 14.5 25.5t29.5 24.5q19 13 28.5 23.5t9.5 24.5q0 26 -35 26q-19 0 -31.5 -5.5t-22.5 -16.5
q-10 -13 -19 -13q-5 0 -9 3q-10 5 -10 13q0 7 6 14q15 19 38.5 31t54.5 12q36 0 53 -15.5t17 -40.5q0 -27 -12 -41.5t-35 -28.5q-16 -11 -23.5 -18.5t-9.5 -18.5l-1 -7q-2 -12 -8 -17.5t-19 -5.5q-19 0 -19 15zM249 603q0 11 12 21l125 109q17 15 27 15q8 0 12.5 -3
t10.5 -11l87 -109q5 -7 5 -14q0 -13 -16 -24q-8 -5 -14 -5q-11 0 -23 17l-70 99l-106 -100q-16 -16 -28 -16q-6 0 -13 5q-9 8 -9 16z" />
    <glyph glyph-name="uni1EC5" unicode="&#x1ec5;" horiz-adv-x="634" 
d="M110.5 47.5q-59.5 56.5 -59.5 158.5q0 87 39 153.5t109 103.5t161 37q68 0 120.5 -21.5t82 -60.5t29.5 -89q0 -47 -26 -76.5t-68 -29.5h-393q-2 -22 -2 -31q0 -75 47.5 -114t139.5 -39q59 0 102.5 14.5t89.5 48.5q18 14 26 14q5 0 12 -5q8 -5 8 -14q0 -10 -11 -21
q-35 -38 -100.5 -61.5t-138.5 -23.5q-108 0 -167.5 56.5zM492 268q23 0 35.5 15t12.5 42q0 59 -49 93t-134 34q-100 0 -163.5 -48t-79.5 -136h378zM280.5 769.5q-3.5 3.5 -3.5 10.5l2 13q10 32 37 52.5t59 20.5q22 0 37 -8t35 -23q14 -12 24 -18t23 -6q36 0 54 43
q7 18 21 18q19 0 19 -14q0 -5 -3 -14q-9 -31 -37 -51.5t-59 -20.5q-20 0 -33.5 7t-32.5 22q-15 13 -26.5 19.5t-26.5 6.5q-17 0 -31 -11.5t-22 -30.5q-7 -19 -22 -19q-11 0 -14.5 3.5zM249 604q0 11 12 21l125 109q9 8 14.5 11.5t12.5 3.5q15 0 23 -15l86 -109q5 -6 5 -15
q0 -12 -15 -23q-8 -5 -14 -5q-11 0 -23 17l-70 100l-106 -100q-16 -16 -28 -16q-6 0 -13 5q-9 8 -9 16z" />
    <glyph glyph-name="edieresis" unicode="&#xeb;" horiz-adv-x="634" 
d="M110.5 47.5q-59.5 56.5 -59.5 158.5q0 87 39 153.5t109 103.5t161 37q68 0 120.5 -21.5t82 -60.5t29.5 -89q0 -47 -26 -76.5t-68 -29.5h-393q-2 -22 -2 -31q0 -75 47.5 -114t139.5 -39q59 0 102.5 14.5t89.5 48.5q18 14 26 14q5 0 12 -5q8 -5 8 -14q0 -10 -11 -21
q-35 -38 -100.5 -61.5t-138.5 -23.5q-108 0 -167.5 56.5zM492 268q23 0 35.5 15t12.5 42q0 59 -49 93t-134 34q-100 0 -163.5 -48t-79.5 -136h378zM265.5 612.5q-10.5 10.5 -10.5 25.5q0 18 16 33.5t35 15.5q14 0 24.5 -10.5t10.5 -25.5q0 -18 -15.5 -33.5t-34.5 -15.5
q-15 0 -25.5 10.5zM461.5 612.5q-10.5 10.5 -10.5 25.5q0 18 16 33.5t35 15.5q14 0 24.5 -10.5t10.5 -25.5q0 -18 -15.5 -33.5t-34.5 -15.5q-15 0 -25.5 10.5z" />
    <glyph glyph-name="edotaccent" unicode="&#x117;" horiz-adv-x="634" 
d="M110.5 47.5q-59.5 56.5 -59.5 158.5q0 87 39 153.5t109 103.5t161 37q68 0 120.5 -21.5t82 -60.5t29.5 -89q0 -47 -26 -76.5t-68 -29.5h-393q-2 -22 -2 -31q0 -75 47.5 -114t139.5 -39q59 0 102.5 14.5t89.5 48.5q18 14 26 14q5 0 12 -5q8 -5 8 -14q0 -10 -11 -21
q-35 -38 -100.5 -61.5t-138.5 -23.5q-108 0 -167.5 56.5zM492 268q23 0 35.5 15t12.5 42q0 59 -49 93t-134 34q-100 0 -163.5 -48t-79.5 -136h378zM362.5 612.5q-10.5 10.5 -10.5 25.5q0 18 16 33.5t35 15.5q14 0 24.5 -10.5t10.5 -25.5q0 -18 -15.5 -33.5t-34.5 -15.5
q-15 0 -25.5 10.5z" />
    <glyph glyph-name="uni1EB9" unicode="&#x1eb9;" horiz-adv-x="634" 
d="M110.5 47.5q-59.5 56.5 -59.5 158.5q0 87 39 153.5t109 103.5t161 37q68 0 120.5 -21.5t82 -60.5t29.5 -89q0 -47 -26 -76.5t-68 -29.5h-393q-2 -22 -2 -31q0 -75 47.5 -114t139.5 -39q59 0 102.5 14.5t89.5 48.5q18 14 26 14q5 0 12 -5q8 -5 8 -14q0 -10 -11 -21
q-35 -38 -100.5 -61.5t-138.5 -23.5q-108 0 -167.5 56.5zM492 268q23 0 35.5 15t12.5 42q0 59 -49 93t-134 34q-100 0 -163.5 -48t-79.5 -136h378zM234.5 -145.5q-10.5 10.5 -10.5 25.5q0 18 16 33.5t35 15.5q14 0 24.5 -10.5t10.5 -25.5q0 -18 -15.5 -33.5t-34.5 -15.5
q-15 0 -25.5 10.5z" />
    <glyph glyph-name="egrave" unicode="&#xe8;" horiz-adv-x="634" 
d="M110.5 47.5q-59.5 56.5 -59.5 158.5q0 87 39 153.5t109 103.5t161 37q68 0 120.5 -21.5t82 -60.5t29.5 -89q0 -47 -26 -76.5t-68 -29.5h-393q-2 -22 -2 -31q0 -75 47.5 -114t139.5 -39q59 0 102.5 14.5t89.5 48.5q18 14 26 14q5 0 12 -5q8 -5 8 -14q0 -10 -11 -21
q-35 -38 -100.5 -61.5t-138.5 -23.5q-108 0 -167.5 56.5zM492 268q23 0 35.5 15t12.5 42q0 59 -49 93t-134 34q-100 0 -163.5 -48t-79.5 -136h378zM386 582q-11 0 -17 14l-53 137q-3 8 -3 14q0 14 19 23q8 4 14 4q15 0 21 -24l40 -139q1 -2 1 -8q0 -14 -13 -19q-6 -2 -9 -2z
" />
    <glyph glyph-name="uni1EBB" unicode="&#x1ebb;" horiz-adv-x="634" 
d="M110.5 47.5q-59.5 56.5 -59.5 158.5q0 87 39 153.5t109 103.5t161 37q68 0 120.5 -21.5t82 -60.5t29.5 -89q0 -47 -26 -76.5t-68 -29.5h-393q-2 -22 -2 -31q0 -75 47.5 -114t139.5 -39q59 0 102.5 14.5t89.5 48.5q18 14 26 14q5 0 12 -5q8 -5 8 -14q0 -10 -11 -21
q-35 -38 -100.5 -61.5t-138.5 -23.5q-108 0 -167.5 56.5zM492 268q23 0 35.5 15t12.5 42q0 59 -49 93t-134 34q-100 0 -163.5 -48t-79.5 -136h378zM357 566q0 6 1 9l2 9q3 17 15 28.5t33 25.5q21 15 31 26t10 26q0 28 -37 28q-40 0 -63 -27q-12 -15 -21 -15t-14 5t-5 12
q0 9 5 15q16 21 44.5 36t60.5 15q38 0 57 -17t19 -44q0 -28 -13 -43.5t-37 -31.5q-17 -11 -25.5 -19t-8.5 -21v-8q-5 -13 -12.5 -19t-20.5 -6q-21 0 -21 16z" />
    <glyph glyph-name="emacron" unicode="&#x113;" horiz-adv-x="634" 
d="M110.5 47.5q-59.5 56.5 -59.5 158.5q0 87 39 153.5t109 103.5t161 37q68 0 120.5 -21.5t82 -60.5t29.5 -89q0 -47 -26 -76.5t-68 -29.5h-393q-2 -22 -2 -31q0 -75 47.5 -114t139.5 -39q59 0 102.5 14.5t89.5 48.5q18 14 26 14q5 0 12 -5q8 -5 8 -14q0 -10 -11 -21
q-35 -38 -100.5 -61.5t-138.5 -23.5q-108 0 -167.5 56.5zM492 268q23 0 35.5 15t12.5 42q0 59 -49 93t-134 34q-100 0 -163.5 -48t-79.5 -136h378zM238 599q0 15 8.5 20.5t25.5 5.5h240q13 0 20 -3t7 -12q0 -26 -34 -26h-240q-27 0 -27 15z" />
    <glyph glyph-name="eogonek" unicode="&#x119;" horiz-adv-x="634" 
d="M105 223q-2 -22 -2 -31q0 -75 47.5 -114t139.5 -39q59 0 102.5 14.5t89.5 48.5q18 14 26 14q5 0 12 -5q8 -5 8 -14q0 -10 -11 -21q-32 -35 -91 -58t-126 -26q-51 -35 -76.5 -62.5t-25.5 -60.5q0 -16 12 -26.5t35 -10.5q33 0 63 23q11 7 15 7q7 0 12 -7q4 -6 4 -10
q0 -10 -11 -19q-40 -34 -90 -34q-41 0 -63.5 20t-22.5 50q0 63 88 131q-90 10 -139.5 65t-49.5 148q0 87 39 153.5t109 103.5t161 37q68 0 120.5 -21.5t82 -60.5t29.5 -89q0 -47 -26 -76.5t-68 -29.5h-393zM193.5 404q-63.5 -48 -79.5 -136h378q23 0 35.5 15t12.5 42
q0 59 -49 93t-134 34q-100 0 -163.5 -48z" />
    <glyph glyph-name="uni1EBD" unicode="&#x1ebd;" horiz-adv-x="634" 
d="M110.5 47.5q-59.5 56.5 -59.5 158.5q0 87 39 153.5t109 103.5t161 37q68 0 120.5 -21.5t82 -60.5t29.5 -89q0 -47 -26 -76.5t-68 -29.5h-393q-2 -22 -2 -31q0 -75 47.5 -114t139.5 -39q59 0 102.5 14.5t89.5 48.5q18 14 26 14q5 0 12 -5q8 -5 8 -14q0 -10 -11 -21
q-35 -38 -100.5 -61.5t-138.5 -23.5q-108 0 -167.5 56.5zM492 268q23 0 35.5 15t12.5 42q0 59 -49 93t-134 34q-100 0 -163.5 -48t-79.5 -136h378zM231 607q0 4 4 16q12 33 40 54t60 21q24 0 40.5 -8.5t34.5 -24.5q18 -13 27.5 -18.5t22.5 -5.5q38 0 56 45q7 19 23 19
q19 0 19 -15q0 -7 -3 -16q-12 -33 -40.5 -53.5t-59.5 -20.5q-21 0 -36 8t-33 23q-18 13 -29.5 19.5t-26.5 6.5q-18 0 -33 -12t-23 -33q-7 -19 -23 -19q-20 0 -20 14z" />
    <glyph glyph-name="uni0259" unicode="&#x259;" horiz-adv-x="643" 
d="M154.5 14.5q-52.5 23.5 -81.5 66.5t-29 100q0 41 24 64t68 23h402q1 10 1 29q0 79 -43.5 117t-139.5 38q-62 0 -109 -16.5t-92 -53.5q-14 -11 -24 -11q-6 0 -14 6q-8 8 -8 15q0 9 11 20q47 43 109 65.5t135 22.5q107 0 167 -50.5t61 -142.5q4 -90 -34.5 -162.5t-112 -113
t-169.5 -40.5q-69 0 -121.5 23.5zM398.5 62q52.5 23 86.5 65t43 96h-386q-21 0 -33 -10t-12 -27q0 -72 47.5 -109.5t138.5 -37.5q63 0 115.5 23z" />
    <glyph glyph-name="f" unicode="f" horiz-adv-x="427" 
d="M469 689q0 -10 -9 -18.5t-20 -8.5q-5 0 -18 7q-37 22 -79 22q-44 0 -71 -23t-35 -65l-18 -103h151q27 0 27 -19q0 -13 -9 -19.5t-26 -6.5h-151l-76 -433q-6 -32 -31 -32q-21 0 -21 22l1 10l77 433h-59q-14 0 -20.5 4.5t-6.5 14.5q0 12 9.5 19t25.5 7h58l18 99
q12 67 53 103.5t104 36.5q36 0 70.5 -11t49.5 -26q6 -7 6 -13z" />
    <glyph glyph-name="g" unicode="g" horiz-adv-x="684" 
d="M55 -177q-9 9 -9 20q0 10 7 17t18 7q12 0 21 -12q21 -30 61.5 -45.5t97.5 -15.5q106 0 169.5 47t79.5 138l21 116q-100 -111 -247 -111q-68 0 -119.5 25.5t-79.5 72t-28 107.5q0 90 40.5 160t113.5 109t167 39q69 0 122 -29.5t82 -84.5l16 88q2 12 11 20.5t19 8.5
q11 0 17 -8t4 -21l-88 -492q-20 -110 -98.5 -170t-202.5 -60q-121 0 -195 74zM418 65.5q61 33.5 95.5 92t34.5 130.5q0 76 -48.5 118.5t-135.5 42.5q-79 0 -139 -32.5t-93 -92t-33 -137.5q0 -75 47.5 -115t136.5 -40q74 0 135 33.5z" />
    <glyph glyph-name="gbreve" unicode="&#x11f;" horiz-adv-x="684" 
d="M55 -177q-9 9 -9 20q0 10 7 17t18 7q12 0 21 -12q21 -30 61.5 -45.5t97.5 -15.5q106 0 169.5 47t79.5 138l21 116q-100 -111 -247 -111q-68 0 -119.5 25.5t-79.5 72t-28 107.5q0 90 40.5 160t113.5 109t167 39q69 0 122 -29.5t82 -84.5l16 88q2 12 11 20.5t19 8.5
q11 0 17 -8t4 -21l-88 -492q-20 -110 -98.5 -170t-202.5 -60q-121 0 -195 74zM418 65.5q61 33.5 95.5 92t34.5 130.5q0 76 -48.5 118.5t-135.5 42.5q-79 0 -139 -32.5t-93 -92t-33 -137.5q0 -75 47.5 -115t136.5 -40q74 0 135 33.5zM294.5 617q-30.5 32 -30.5 80q0 59 32 59
q20 0 20 -20q0 -54 4.5 -75.5t18.5 -28t50 -6.5q47 0 74 26.5t35 71.5q6 32 30 32q20 0 20 -20q0 -38 -24 -73t-62.5 -56.5t-79.5 -21.5q-57 0 -87.5 32z" />
    <glyph glyph-name="gcaron" unicode="&#x1e7;" horiz-adv-x="684" 
d="M55 -177q-9 9 -9 20q0 10 7 17t18 7q12 0 21 -12q21 -30 61.5 -45.5t97.5 -15.5q106 0 169.5 47t79.5 138l21 116q-100 -111 -247 -111q-68 0 -119.5 25.5t-79.5 72t-28 107.5q0 90 40.5 160t113.5 109t167 39q69 0 122 -29.5t82 -84.5l16 88q2 12 11 20.5t19 8.5
q11 0 17 -8t4 -21l-88 -492q-20 -110 -98.5 -170t-202.5 -60q-121 0 -195 74zM418 65.5q61 33.5 95.5 92t34.5 130.5q0 76 -48.5 118.5t-135.5 42.5q-79 0 -139 -32.5t-93 -92t-33 -137.5q0 -75 47.5 -115t136.5 -40q74 0 135 33.5zM360 599l-84 126q-5 8 -5 15q0 12 16 22
q6 5 15 5q12 0 21 -16l68 -117l109 117q15 17 29 17q5 0 12 -5q8 -7 8 -16q0 -11 -11 -22l-128 -126q-13 -15 -28 -15q-12 0 -22 15z" />
    <glyph glyph-name="gcircumflex" unicode="&#x11d;" horiz-adv-x="684" 
d="M55 -177q-9 9 -9 20q0 10 7 17t18 7q12 0 21 -12q21 -30 61.5 -45.5t97.5 -15.5q106 0 169.5 47t79.5 138l21 116q-100 -111 -247 -111q-68 0 -119.5 25.5t-79.5 72t-28 107.5q0 90 40.5 160t113.5 109t167 39q69 0 122 -29.5t82 -84.5l16 88q2 12 11 20.5t19 8.5
q11 0 17 -8t4 -21l-88 -492q-20 -110 -98.5 -170t-202.5 -60q-121 0 -195 74zM418 65.5q61 33.5 95.5 92t34.5 130.5q0 76 -48.5 118.5t-135.5 42.5q-79 0 -139 -32.5t-93 -92t-33 -137.5q0 -75 47.5 -115t136.5 -40q74 0 135 33.5zM247 605q0 10 12 22l128 126q15 15 28 15
q12 0 22 -15l83 -126q5 -8 5 -15q0 -13 -15 -22q-7 -5 -16 -5q-12 0 -21 16l-67 117l-109 -117q-14 -17 -28 -17q-8 0 -13 5q-9 8 -9 16z" />
    <glyph glyph-name="uni0123" unicode="&#x123;" horiz-adv-x="684" 
d="M55 -177q-9 9 -9 20q0 10 7 17t18 7q12 0 21 -12q21 -30 61.5 -45.5t97.5 -15.5q106 0 169.5 47t79.5 138l21 116q-100 -111 -247 -111q-68 0 -119.5 25.5t-79.5 72t-28 107.5q0 90 40.5 160t113.5 109t167 39q69 0 122 -29.5t82 -84.5l16 88q2 12 11 20.5t19 8.5
q11 0 17 -8t4 -21l-88 -492q-20 -110 -98.5 -170t-202.5 -60q-121 0 -195 74zM418 65.5q61 33.5 95.5 92t34.5 130.5q0 76 -48.5 118.5t-135.5 42.5q-79 0 -139 -32.5t-93 -92t-33 -137.5q0 -75 47.5 -115t136.5 -40q74 0 135 33.5zM339 579.5q-12 12.5 -12 36.5
q0 77 101 151q22 16 30 16q5 0 10 -6q3 -4 3 -9q0 -8 -18 -22q-68 -50 -75 -85q9 3 17 3q17 0 29 -11t12 -27q0 -25 -18.5 -42t-45.5 -17q-21 0 -33 12.5z" />
    <glyph glyph-name="gdotaccent" unicode="&#x121;" horiz-adv-x="684" 
d="M55 -177q-9 9 -9 20q0 10 7 17t18 7q12 0 21 -12q21 -30 61.5 -45.5t97.5 -15.5q106 0 169.5 47t79.5 138l21 116q-100 -111 -247 -111q-68 0 -119.5 25.5t-79.5 72t-28 107.5q0 90 40.5 160t113.5 109t167 39q69 0 122 -29.5t82 -84.5l16 88q2 12 11 20.5t19 8.5
q11 0 17 -8t4 -21l-88 -492q-20 -110 -98.5 -170t-202.5 -60q-121 0 -195 74zM418 65.5q61 33.5 95.5 92t34.5 130.5q0 76 -48.5 118.5t-135.5 42.5q-79 0 -139 -32.5t-93 -92t-33 -137.5q0 -75 47.5 -115t136.5 -40q74 0 135 33.5zM360.5 615.5q-10.5 10.5 -10.5 25.5
q0 18 16 33.5t35 15.5q14 0 24.5 -10.5t10.5 -25.5q0 -18 -15.5 -33.5t-34.5 -15.5q-15 0 -25.5 10.5z" />
    <glyph glyph-name="uni1E21" unicode="&#x1e21;" horiz-adv-x="684" 
d="M55 -177q-9 9 -9 20q0 10 7 17t18 7q12 0 21 -12q21 -30 61.5 -45.5t97.5 -15.5q106 0 169.5 47t79.5 138l21 116q-100 -111 -247 -111q-68 0 -119.5 25.5t-79.5 72t-28 107.5q0 90 40.5 160t113.5 109t167 39q69 0 122 -29.5t82 -84.5l16 88q2 12 11 20.5t19 8.5
q11 0 17 -8t4 -21l-88 -492q-20 -110 -98.5 -170t-202.5 -60q-121 0 -195 74zM418 65.5q61 33.5 95.5 92t34.5 130.5q0 76 -48.5 118.5t-135.5 42.5q-79 0 -139 -32.5t-93 -92t-33 -137.5q0 -75 47.5 -115t136.5 -40q74 0 135 33.5zM236 602q0 15 8.5 20.5t25.5 5.5h240
q13 0 20 -3t7 -12q0 -26 -34 -26h-240q-27 0 -27 15z" />
    <glyph glyph-name="h" unicode="h" horiz-adv-x="620" 
d="M45 11q0 7 1 11l124 705q6 32 31 32q21 0 21 -21q0 -7 -1 -11l-58 -330q39 49 100 76t126 27q79 0 121.5 -38.5t42.5 -110.5q0 -25 -4 -48l-49 -281q-6 -32 -32 -32q-20 0 -20 21q0 7 1 11l49 281q5 30 5 49q0 52 -29.5 76t-92.5 24q-93 0 -160 -54.5t-83 -142.5
l-41 -233q-6 -32 -32 -32q-20 0 -20 21z" />
    <glyph glyph-name="hbar" unicode="&#x127;" horiz-adv-x="659" 
d="M559.5 461.5q42.5 -38.5 42.5 -110.5q0 -25 -4 -48l-49 -281q-6 -32 -32 -32q-20 0 -20 21q0 7 1 11l49 281q5 30 5 49q0 52 -29.5 76t-92.5 24q-93 0 -160 -54.5t-83 -142.5l-41 -233q-6 -32 -32 -32q-20 0 -20 21q0 7 1 11l99 563h-69q-27 0 -27 17q0 16 9 22t26 6h69
l17 97q6 32 31 32q21 0 21 -21q0 -7 -1 -11l-17 -97h110q27 0 27 -17q0 -28 -35 -28h-110l-33 -188q39 49 100 76t126 27q79 0 121.5 -38.5z" />
    <glyph glyph-name="uni1E2B" unicode="&#x1e2b;" horiz-adv-x="620" 
d="M45 11q0 7 1 11l124 705q6 32 31 32q21 0 21 -21q0 -7 -1 -11l-58 -330q39 49 100 76t126 27q79 0 121.5 -38.5t42.5 -110.5q0 -25 -4 -48l-49 -281q-6 -32 -32 -32q-20 0 -20 21q0 7 1 11l49 281q5 30 5 49q0 52 -29.5 76t-92.5 24q-93 0 -160 -54.5t-83 -142.5
l-41 -233q-6 -32 -32 -32q-20 0 -20 21zM137.5 -211q-30.5 32 -30.5 80q0 59 32 59q20 0 20 -20q0 -54 4.5 -75.5t18.5 -28t50 -6.5q47 0 74 26.5t35 71.5q6 32 30 32q20 0 20 -20q0 -38 -24 -73t-62.5 -56.5t-79.5 -21.5q-57 0 -87.5 32z" />
    <glyph glyph-name="hcircumflex" unicode="&#x125;" horiz-adv-x="620" 
d="M45 11q0 7 1 11l124 705q6 32 31 32q21 0 21 -21q0 -7 -1 -11l-58 -330q39 49 100 76t126 27q79 0 121.5 -38.5t42.5 -110.5q0 -25 -4 -48l-49 -281q-6 -32 -32 -32q-20 0 -20 21q0 7 1 11l49 281q5 30 5 49q0 52 -29.5 76t-92.5 24q-93 0 -160 -54.5t-83 -142.5
l-41 -233q-6 -32 -32 -32q-20 0 -20 21zM180 861q0 10 12 22l128 126q15 15 28 15q12 0 22 -15l83 -126q5 -8 5 -15q0 -13 -15 -22q-7 -5 -16 -5q-12 0 -21 16l-67 117l-109 -117q-14 -17 -28 -17q-8 0 -13 5q-9 8 -9 16z" />
    <glyph glyph-name="uni1E25" unicode="&#x1e25;" horiz-adv-x="620" 
d="M45 11q0 7 1 11l124 705q6 32 31 32q21 0 21 -21q0 -7 -1 -11l-58 -330q39 49 100 76t126 27q79 0 121.5 -38.5t42.5 -110.5q0 -25 -4 -48l-49 -281q-6 -32 -32 -32q-20 0 -20 21q0 7 1 11l49 281q5 30 5 49q0 52 -29.5 76t-92.5 24q-93 0 -160 -54.5t-83 -142.5
l-41 -233q-6 -32 -32 -32q-20 0 -20 21zM213.5 -145.5q-10.5 10.5 -10.5 25.5q0 18 16 33.5t35 15.5q14 0 24.5 -10.5t10.5 -25.5q0 -18 -15.5 -33.5t-34.5 -15.5q-15 0 -25.5 10.5z" />
    <glyph glyph-name="i" unicode="i" horiz-adv-x="256" 
d="M167.5 626.5q-10.5 10.5 -10.5 25.5q0 18 16 33t34 15q15 0 26.5 -11t11.5 -25q0 -17 -17 -32.5t-35 -15.5q-15 0 -25.5 10.5zM62 13l1 9l79 446q5 32 30 32q22 0 22 -20q0 -8 -1 -12l-79 -446q-6 -32 -32 -32q-20 0 -20 23z" />
    <glyph glyph-name="dotlessi" unicode="&#x131;" horiz-adv-x="256" 
d="M62 10q0 8 1 12l79 446q5 32 30 32q22 0 22 -23l-1 -9l-79 -446q-6 -32 -32 -32q-20 0 -20 20z" />
    <glyph glyph-name="iacute" unicode="&#xed;" horiz-adv-x="256" 
d="M62 10q0 8 1 12l79 446q5 32 30 32q22 0 22 -23l-1 -9l-79 -446q-6 -32 -32 -32q-20 0 -20 20zM166 576q0 7 5 15l88 139q16 24 30 24q6 0 13 -4q12 -7 12 -17q0 -8 -9 -20l-102 -137q-11 -14 -22 -14q-2 0 -8 2q-7 3 -7 12z" />
    <glyph glyph-name="ibreve" unicode="&#x12d;" horiz-adv-x="256" 
d="M62 10q0 8 1 12l79 446q5 32 30 32q22 0 22 -23l-1 -9l-79 -446q-6 -32 -32 -32q-20 0 -20 20zM96.5 594q-30.5 32 -30.5 80q0 59 32 59q20 0 20 -20q0 -54 4.5 -75.5t18.5 -28t50 -6.5q47 0 74 26.5t35 71.5q6 32 30 32q20 0 20 -20q0 -38 -24 -73t-62.5 -56.5
t-79.5 -21.5q-57 0 -87.5 32z" />
    <glyph glyph-name="uni01D0" unicode="&#x1d0;" horiz-adv-x="256" 
d="M62 10q0 8 1 12l79 446q5 32 30 32q22 0 22 -23l-1 -9l-79 -446q-6 -32 -32 -32q-20 0 -20 20zM162 576l-84 126q-5 8 -5 15q0 12 16 22q6 5 15 5q12 0 21 -16l68 -117l109 117q15 17 29 17q5 0 12 -5q8 -7 8 -16q0 -11 -11 -22l-128 -126q-14 -15 -28 -15q-12 0 -22 15z
" />
    <glyph glyph-name="icircumflex" unicode="&#xee;" horiz-adv-x="256" 
d="M62 10q0 8 1 12l79 446q5 32 30 32q22 0 22 -23l-1 -9l-79 -446q-6 -32 -32 -32q-20 0 -20 20zM49 582q0 10 12 22l128 126q15 15 28 15q12 0 22 -15l83 -126q5 -8 5 -15q0 -13 -15 -22q-8 -5 -16 -5q-12 0 -21 16l-67 117l-109 -117q-14 -17 -28 -17q-8 0 -13 5
q-9 8 -9 16z" />
    <glyph glyph-name="idieresis" unicode="&#xef;" horiz-adv-x="256" 
d="M62 10q0 8 1 12l79 446q5 32 30 32q22 0 22 -23l-1 -9l-79 -446q-6 -32 -32 -32q-20 0 -20 20zM65.5 592.5q-10.5 10.5 -10.5 25.5q0 18 16 33.5t35 15.5q14 0 24.5 -10.5t10.5 -25.5q0 -18 -15.5 -33.5t-34.5 -15.5q-15 0 -25.5 10.5zM261.5 592.5
q-10.5 10.5 -10.5 25.5q0 18 16 33.5t35 15.5q14 0 24.5 -10.5t10.5 -25.5q0 -18 -15.5 -33.5t-34.5 -15.5q-15 0 -25.5 10.5z" />
    <glyph glyph-name="uni1ECB" unicode="&#x1ecb;" horiz-adv-x="256" 
d="M167.5 626.5q-10.5 10.5 -10.5 25.5q0 18 16 33t34 15q15 0 26.5 -11t11.5 -25q0 -17 -17 -32.5t-35 -15.5q-15 0 -25.5 10.5zM62 13l1 9l79 446q5 32 30 32q22 0 22 -20q0 -8 -1 -12l-79 -446q-6 -32 -32 -32q-20 0 -20 23zM30.5 -145.5q-10.5 10.5 -10.5 25.5
q0 18 16 33.5t35 15.5q14 0 24.5 -10.5t10.5 -25.5q0 -18 -15.5 -33.5t-34.5 -15.5q-15 0 -25.5 10.5z" />
    <glyph glyph-name="igrave" unicode="&#xec;" horiz-adv-x="256" 
d="M62 10q0 8 1 12l79 446q5 32 30 32q22 0 22 -23l-1 -9l-79 -446q-6 -32 -32 -32q-20 0 -20 20zM186 562q-11 0 -17 14l-53 137q-3 8 -3 14q0 14 19 23q8 4 14 4q15 0 21 -24l40 -139q1 -2 1 -8q0 -14 -13 -19q-6 -2 -9 -2z" />
    <glyph glyph-name="uni1EC9" unicode="&#x1ec9;" horiz-adv-x="256" 
d="M62 10q0 8 1 12l79 446q5 32 30 32q22 0 22 -23l-1 -9l-79 -446q-6 -32 -32 -32q-20 0 -20 20zM157 546q0 6 1 9l2 9q3 17 15 28.5t33 25.5q21 15 31 26t10 26q0 28 -37 28q-40 0 -63 -27q-12 -15 -21 -15t-14 5t-5 12q0 9 5 15q16 21 44.5 36t60.5 15q38 0 57 -17
t19 -44q0 -28 -13 -43.5t-37 -31.5q-17 -11 -25.5 -19t-8.5 -21v-8q-5 -13 -12.5 -19t-20.5 -6q-21 0 -21 16z" />
    <glyph glyph-name="ij" unicode="&#x133;" horiz-adv-x="472" 
d="M162.5 596.5q-10.5 10.5 -10.5 24.5q0 18 16 33.5t34 15.5q15 0 26 -11t11 -26q0 -17 -16.5 -32t-35.5 -15q-14 0 -24.5 10.5zM377.5 596.5q-10.5 10.5 -10.5 24.5q0 18 16 33.5t34 15.5q15 0 26 -11t11 -26q0 -17 -16.5 -32t-35.5 -15q-14 0 -24.5 10.5zM62 12l1 10
l79 446q5 32 30 32q12 0 17 -4.5t5 -15.5q0 -7 -1 -12l-79 -446q-6 -32 -32 -32q-20 0 -20 22zM95.5 -286.5q-6.5 5.5 -6.5 14.5q0 13 8.5 21t22.5 8q44 0 69.5 10.5t39.5 35.5t22 73l106 592q5 32 30 32q12 0 17 -4.5t5 -15.5q0 -7 -1 -12l-106 -592q-16 -89 -60.5 -128.5
t-129.5 -39.5q-10 0 -16.5 5.5z" />
    <glyph glyph-name="imacron" unicode="&#x12b;" horiz-adv-x="256" 
d="M62 10q0 8 1 12l79 446q5 32 30 32q22 0 22 -23l-1 -9l-79 -446q-6 -32 -32 -32q-20 0 -20 20zM34 559q0 15 8.5 20.5t25.5 5.5h240q13 0 20 -3t7 -12q0 -26 -34 -26h-240q-27 0 -27 15z" />
    <glyph glyph-name="iogonek" unicode="&#x12f;" horiz-adv-x="256" 
d="M233.5 689q11.5 -11 11.5 -25q0 -17 -17 -32.5t-35 -15.5q-15 0 -25.5 10.5t-10.5 25.5q0 18 16 33t34 15q15 0 26.5 -11zM194 480q0 -8 -1 -12l-79 -446q-6 -29 -27 -32q-48 -33 -72.5 -60t-24.5 -59q0 -16 12 -26.5t35 -10.5q33 0 63 23q10 7 15 7q7 0 12 -7
q4 -6 4 -10q0 -10 -11 -19q-40 -34 -90 -34q-41 0 -63.5 20t-22.5 50q0 44 34 81t82 70l2 2q1 1 1 5l79 446q5 32 30 32q22 0 22 -20z" />
    <glyph glyph-name="itilde" unicode="&#x129;" horiz-adv-x="256" 
d="M62 10q0 8 1 12l79 446q5 32 30 32q22 0 22 -23l-1 -9l-79 -446q-6 -32 -32 -32q-20 0 -20 20zM33 597q0 4 4 16q12 33 40 54t60 21q24 0 40.5 -8.5t34.5 -24.5q17 -13 27 -18.5t23 -5.5q38 0 56 45q7 19 23 19q19 0 19 -15q0 -7 -3 -16q-12 -33 -40.5 -53.5t-59.5 -20.5
q-21 0 -36 8t-33 23q-18 13 -29.5 19.5t-26.5 6.5q-18 0 -33 -12t-23 -33q-7 -19 -23 -19q-20 0 -20 14z" />
    <glyph glyph-name="j" unicode="j" horiz-adv-x="326" 
d="M238.5 636.5q-10.5 10.5 -10.5 24.5q0 18 16 33.5t34 15.5q15 0 26 -11t11 -26q0 -17 -16.5 -32t-35.5 -15q-14 0 -24.5 10.5zM-50.5 -286.5q-6.5 5.5 -6.5 14.5q0 13 8.5 21t22.5 8q44 0 69.5 10.5t39.5 35.5t22 73l106 592q5 32 30 32q12 0 17 -4.5t5 -15.5
q0 -7 -1 -12l-106 -592q-16 -90 -60 -129t-130 -39q-10 0 -16.5 5.5z" />
    <glyph glyph-name="uni0237" unicode="&#x237;" horiz-adv-x="308" 
d="M-50.5 -286.5q-6.5 5.5 -6.5 14.5q0 13 9 21t22 8q44 0 69.5 10.5t39.5 36t22 72.5l106 592q5 32 30 32q22 0 22 -23l-1 -9l-106 -592q-15 -83 -57 -125.5t-133 -42.5q-10 0 -16.5 5.5z" />
    <glyph glyph-name="jcircumflex" unicode="&#x135;" horiz-adv-x="308" 
d="M-50.5 -286.5q-6.5 5.5 -6.5 14.5q0 13 9 21t22 8q44 0 69.5 10.5t39.5 36t22 72.5l106 592q5 32 30 32q22 0 22 -23l-1 -9l-106 -592q-15 -83 -57 -125.5t-133 -42.5q-10 0 -16.5 5.5zM116 582q0 10 12 22l128 126q15 15 28 15q12 0 22 -15l83 -126q5 -8 5 -15
q0 -13 -15 -22q-8 -5 -16 -5q-12 0 -21 16l-67 117l-109 -117q-14 -17 -28 -17q-8 0 -13 5q-9 8 -9 16z" />
    <glyph glyph-name="k" unicode="k" horiz-adv-x="572" 
d="M45 11q0 7 1 11l124 705q6 32 31 32q21 0 21 -21q0 -7 -1 -11l-81 -460l369 229q7 4 15 4q12 0 17 -11q2 -6 2 -8q0 -14 -17 -25l-207 -128q78 -58 116.5 -133.5t40.5 -173.5q0 -14 -7 -22.5t-18 -8.5q-24 0 -24 21q-5 110 -38 175t-112 116l-147 -92l-33 -188
q-6 -32 -32 -32q-20 0 -20 21z" />
    <glyph glyph-name="uni0137" unicode="&#x137;" horiz-adv-x="572" 
d="M45 11q0 7 1 11l124 705q6 32 31 32q21 0 21 -21q0 -7 -1 -11l-81 -460l369 229q7 4 15 4q12 0 17 -11q2 -6 2 -8q0 -14 -17 -25l-207 -128q78 -58 116.5 -133.5t40.5 -173.5q0 -14 -7 -22.5t-18 -8.5q-24 0 -24 21q-5 110 -38 175t-112 116l-147 -92l-33 -188
q-6 -32 -32 -32q-20 0 -20 21zM136 -274q0 10 19 23q67 45 75 85q-9 -3 -17 -3q-17 0 -29 11t-12 27q0 26 18.5 43t46.5 17q21 0 33 -13t12 -37q0 -38 -27 -78.5t-74 -73.5q-11 -8 -19.5 -13t-13.5 -5q-4 0 -9 7q-3 6 -3 10z" />
    <glyph glyph-name="kgreenlandic" unicode="&#x138;" horiz-adv-x="585" 
d="M45 11q0 7 1 11l79 446q5 32 30 32q22 0 22 -23l-1 -9l-38 -213l393 242q5 3 11 3t11 -3t7 -9q3 -4 3 -10q0 -15 -15 -23l-231 -143q85 -60 127.5 -132t44.5 -159q0 -13 -8 -22t-20 -9q-24 0 -24 21q-4 91 -42.5 151.5t-129.5 118.5l-137 -83l-31 -176q-6 -32 -32 -32
q-20 0 -20 21z" />
    <glyph glyph-name="l" unicode="l" horiz-adv-x="262" 
d="M65 11q0 7 1 11l124 705q6 32 31 32q21 0 21 -21q0 -7 -1 -11l-124 -705q-6 -32 -32 -32q-20 0 -20 21z" />
    <glyph glyph-name="lacute" unicode="&#x13a;" horiz-adv-x="262" 
d="M65 11q0 7 1 11l124 705q6 32 31 32q21 0 21 -21q0 -7 -1 -11l-124 -705q-6 -32 -32 -32q-20 0 -20 21zM218 855q0 7 5 15l88 139q16 24 30 24q6 0 13 -4q12 -7 12 -17q0 -8 -9 -20l-102 -137q-11 -14 -22 -14q-2 0 -8 2q-7 3 -7 12z" />
    <glyph glyph-name="lcaron" unicode="&#x13e;" horiz-adv-x="327" 
d="M65 11q0 7 1 11l124 705q6 32 31 32q21 0 21 -21q0 -7 -1 -11l-124 -705q-6 -32 -32 -32q-20 0 -20 21zM272 561q0 6 4.5 11t14.5 12q66 48 73 84q-9 -3 -16 -3q-17 0 -29 11t-12 27q0 25 18.5 42t45.5 17q21 0 33 -12.5t12 -36.5q0 -38 -26.5 -77t-73.5 -73
q-3 -2 -14.5 -10t-17.5 -8q-4 0 -9 7q-3 5 -3 9z" />
    <glyph glyph-name="uni013C" unicode="&#x13c;" horiz-adv-x="262" 
d="M65 11q0 7 1 11l124 705q6 32 31 32q21 0 21 -21q0 -7 -1 -11l-124 -705q-6 -32 -32 -32q-20 0 -20 21zM-30 -274q0 10 19 23q67 45 75 85q-9 -3 -17 -3q-17 0 -29 11t-12 27q0 26 18.5 43t46.5 17q21 0 33 -13t12 -37q0 -38 -27 -78.5t-74 -73.5q-11 -8 -19.5 -13
t-13.5 -5q-4 0 -9 7q-3 6 -3 10z" />
    <glyph glyph-name="ldot" unicode="&#x140;" horiz-adv-x="426" 
d="M65 11q0 7 1 11l124 705q6 32 31 32q21 0 21 -21q0 -7 -1 -11l-124 -705q-6 -32 -32 -32q-20 0 -20 21zM258.5 302.5q-12.5 12.5 -12.5 29.5q0 22 19 40.5t42 18.5q17 0 29.5 -12.5t12.5 -30.5q0 -22 -19 -40t-41 -18q-18 0 -30.5 12.5z" />
    <glyph glyph-name="uni1E37" unicode="&#x1e37;" horiz-adv-x="262" 
d="M65 11q0 7 1 11l124 705q6 32 31 32q21 0 21 -21q0 -7 -1 -11l-124 -705q-6 -32 -32 -32q-20 0 -20 21zM34.5 -145.5q-10.5 10.5 -10.5 25.5q0 18 16 33.5t35 15.5q14 0 24.5 -10.5t10.5 -25.5q0 -18 -15.5 -33.5t-34.5 -15.5q-15 0 -25.5 10.5z" />
    <glyph glyph-name="uni1E39" unicode="&#x1e39;" horiz-adv-x="262" 
d="M65 11q0 7 1 11l124 705q6 32 31 32q21 0 21 -21q0 -7 -1 -11l-124 -705q-6 -32 -32 -32q-20 0 -20 21zM34.5 -145.5q-10.5 10.5 -10.5 25.5q0 18 16 33.5t35 15.5q14 0 24.5 -10.5t10.5 -25.5q0 -18 -15.5 -33.5t-34.5 -15.5q-15 0 -25.5 10.5zM90 858q0 15 8.5 20.5
t25.5 5.5h240q13 0 20 -3t7 -12q0 -26 -34 -26h-240q-27 0 -27 15z" />
    <glyph glyph-name="uni1E3B" unicode="&#x1e3b;" horiz-adv-x="262" 
d="M65 11q0 7 1 11l124 705q6 32 31 32q21 0 21 -21q0 -7 -1 -11l-124 -705q-6 -32 -32 -32q-20 0 -20 21zM-83 -119q0 15 8.5 20.5t25.5 5.5h240q13 0 20 -3t7 -12q0 -26 -34 -26h-240q-27 0 -27 15z" />
    <glyph glyph-name="lslash" unicode="&#x142;" horiz-adv-x="318" 
d="M325 491q0 -6 -3.5 -12t-9.5 -10l-66 -41l-71 -406q-6 -32 -32 -32q-20 0 -20 21q0 7 1 11l65 370l-108 -68q-5 -4 -13 -4q-12 0 -15 9q-2 6 -2 9q0 7 3.5 13.5t9.5 10.5l135 85l49 280q6 32 31 32q21 0 21 -21q0 -7 -1 -11l-43 -244l38 24q8 4 12 4q12 0 17 -11
q2 -6 2 -9z" />
    <glyph glyph-name="m" unicode="m" horiz-adv-x="846" 
d="M44 11q0 7 1 11l79 446q5 32 30 32q22 0 22 -23l-1 -9l-13 -71q37 48 86.5 75.5t99.5 27.5q48 0 78.5 -27t38.5 -77q43 49 93 76.5t97 27.5q64 0 96 -32.5t32 -95.5q0 -31 -5 -56l-52 -294q-6 -32 -32 -32q-20 0 -20 21q0 7 1 11l52 294q5 26 5 54q0 44 -20 63t-65 19
q-50 0 -95.5 -30.5t-77.5 -85.5l-55 -314q-6 -32 -32 -32q-20 0 -20 21q0 7 1 11l49 281q6 32 6 57q0 92 -83 92q-47 0 -90 -25.5t-73 -70.5t-40 -101l-41 -233q-6 -32 -32 -32q-20 0 -20 21z" />
    <glyph glyph-name="uni1E43" unicode="&#x1e43;" horiz-adv-x="846" 
d="M44 11q0 7 1 11l79 446q5 32 30 32q22 0 22 -23l-1 -9l-13 -71q37 48 86.5 75.5t99.5 27.5q48 0 78.5 -27t38.5 -77q43 49 93 76.5t97 27.5q64 0 96 -32.5t32 -95.5q0 -31 -5 -56l-52 -294q-6 -32 -32 -32q-20 0 -20 21q0 7 1 11l52 294q5 26 5 54q0 44 -20 63t-65 19
q-50 0 -95.5 -30.5t-77.5 -85.5l-55 -314q-6 -32 -32 -32q-20 0 -20 21q0 7 1 11l49 281q6 32 6 57q0 92 -83 92q-47 0 -90 -25.5t-73 -70.5t-40 -101l-41 -233q-6 -32 -32 -32q-20 0 -20 21zM325.5 -145.5q-10.5 10.5 -10.5 25.5q0 18 16 33.5t35 15.5q14 0 24.5 -10.5
t10.5 -25.5q0 -18 -15.5 -33.5t-34.5 -15.5q-15 0 -25.5 10.5z" />
    <glyph glyph-name="n" unicode="n" horiz-adv-x="619" 
d="M44 11q0 7 1 11l79 446q5 32 30 32q22 0 22 -23l-1 -9l-13 -71q47 50 104 76.5t120 26.5q82 0 124.5 -37t42.5 -109q0 -21 -5 -51l-49 -281q-6 -32 -32 -32q-20 0 -20 21q0 7 1 11l49 281q5 32 5 50q0 52 -29.5 75.5t-92.5 23.5q-93 0 -160 -54.5t-83 -142.5l-41 -233
q-6 -32 -32 -32q-20 0 -20 21z" />
    <glyph glyph-name="nacute" unicode="&#x144;" horiz-adv-x="619" 
d="M44 11q0 7 1 11l79 446q5 32 30 32q22 0 22 -23l-1 -9l-13 -71q47 50 104 76.5t120 26.5q82 0 124.5 -37t42.5 -109q0 -21 -5 -51l-49 -281q-6 -32 -32 -32q-20 0 -20 21q0 7 1 11l49 281q5 32 5 50q0 52 -29.5 75.5t-92.5 23.5q-93 0 -160 -54.5t-83 -142.5l-41 -233
q-6 -32 -32 -32q-20 0 -20 21zM351 596q0 7 5 15l88 139q16 24 30 24q6 0 13 -4q12 -7 12 -17q0 -8 -9 -20l-102 -137q-11 -14 -22 -14q-2 0 -8 2q-7 3 -7 12z" />
    <glyph glyph-name="napostrophe" unicode="&#x149;" horiz-adv-x="681" 
d="M106 11q0 7 1 11l79 446q5 32 30 32q22 0 22 -23l-1 -9l-13 -71q47 50 104 76.5t120 26.5q82 0 124.5 -37t42.5 -109q0 -21 -5 -51l-49 -281q-6 -32 -32 -32q-20 0 -20 21q0 7 1 11l49 281q5 32 5 50q0 52 -29.5 75.5t-92.5 23.5q-93 0 -160 -54.5t-83 -142.5l-41 -233
q-6 -32 -32 -32q-20 0 -20 21zM53 443q0 6 4.5 11t14.5 12q66 48 73 84q-9 -3 -16 -3q-17 0 -29 11t-12 27q0 25 18.5 42t45.5 17q21 0 33 -12.5t12 -36.5q0 -38 -26.5 -77t-73.5 -73q-3 -2 -14.5 -10t-17.5 -8q-4 0 -9 7q-3 5 -3 9z" />
    <glyph glyph-name="ncaron" unicode="&#x148;" horiz-adv-x="619" 
d="M44 11q0 7 1 11l79 446q5 32 30 32q22 0 22 -23l-1 -9l-13 -71q47 50 104 76.5t120 26.5q82 0 124.5 -37t42.5 -109q0 -21 -5 -51l-49 -281q-6 -32 -32 -32q-20 0 -20 21q0 7 1 11l49 281q5 32 5 50q0 52 -29.5 75.5t-92.5 23.5q-93 0 -160 -54.5t-83 -142.5l-41 -233
q-6 -32 -32 -32q-20 0 -20 21zM347 596l-84 126q-5 8 -5 15q0 12 16 22q6 5 15 5q12 0 21 -16l68 -117l109 117q15 17 29 17q5 0 12 -5q8 -7 8 -16q0 -11 -11 -22l-128 -126q-13 -15 -28 -15q-12 0 -22 15z" />
    <glyph glyph-name="uni0146" unicode="&#x146;" horiz-adv-x="619" 
d="M44 11q0 7 1 11l79 446q5 32 30 32q22 0 22 -23l-1 -9l-13 -71q47 50 104 76.5t120 26.5q82 0 124.5 -37t42.5 -109q0 -21 -5 -51l-49 -281q-6 -32 -32 -32q-20 0 -20 21q0 7 1 11l49 281q5 32 5 50q0 52 -29.5 75.5t-92.5 23.5q-93 0 -160 -54.5t-83 -142.5l-41 -233
q-6 -32 -32 -32q-20 0 -20 21zM148 -274q0 10 19 23q67 45 75 85q-9 -3 -17 -3q-17 0 -29 11t-12 27q0 26 18.5 43t46.5 17q21 0 33 -13t12 -37q0 -38 -27 -78.5t-74 -73.5q-11 -8 -19.5 -13t-13.5 -5q-4 0 -9 7q-3 6 -3 10z" />
    <glyph glyph-name="uni1E45" unicode="&#x1e45;" horiz-adv-x="619" 
d="M44 11q0 7 1 11l79 446q5 32 30 32q22 0 22 -23l-1 -9l-13 -71q47 50 104 76.5t120 26.5q82 0 124.5 -37t42.5 -109q0 -21 -5 -51l-49 -281q-6 -32 -32 -32q-20 0 -20 21q0 7 1 11l49 281q5 32 5 50q0 52 -29.5 75.5t-92.5 23.5q-93 0 -160 -54.5t-83 -142.5l-41 -233
q-6 -32 -32 -32q-20 0 -20 21zM347.5 612.5q-10.5 10.5 -10.5 25.5q0 18 16 33.5t35 15.5q14 0 24.5 -10.5t10.5 -25.5q0 -18 -15.5 -33.5t-34.5 -15.5q-15 0 -25.5 10.5z" />
    <glyph glyph-name="uni1E47" unicode="&#x1e47;" horiz-adv-x="619" 
d="M44 11q0 7 1 11l79 446q5 32 30 32q22 0 22 -23l-1 -9l-13 -71q47 50 104 76.5t120 26.5q82 0 124.5 -37t42.5 -109q0 -21 -5 -51l-49 -281q-6 -32 -32 -32q-20 0 -20 21q0 7 1 11l49 281q5 32 5 50q0 52 -29.5 75.5t-92.5 23.5q-93 0 -160 -54.5t-83 -142.5l-41 -233
q-6 -32 -32 -32q-20 0 -20 21zM212.5 -145.5q-10.5 10.5 -10.5 25.5q0 18 16 33.5t35 15.5q14 0 24.5 -10.5t10.5 -25.5q0 -18 -15.5 -33.5t-34.5 -15.5q-15 0 -25.5 10.5z" />
    <glyph glyph-name="eng" unicode="&#x14b;" horiz-adv-x="619" 
d="M265.5 -286.5q-6.5 5.5 -6.5 14.5q0 13 9 21t22 8q44 0 69.5 10.5t39.5 35.5t22 73l76 427q4 23 4 46q0 53 -29.5 78t-91.5 25q-93 0 -160 -54.5t-83 -142.5l-41 -233q-6 -32 -32 -32q-20 0 -20 21q0 7 1 11l79 446q5 32 30 32q22 0 22 -23l-1 -9l-13 -71
q46 50 104.5 76.5t121.5 26.5q79 0 122 -39t43 -110q0 -20 -5 -48l-76 -427q-16 -89 -60.5 -128.5t-129.5 -39.5q-10 0 -16.5 5.5z" />
    <glyph glyph-name="uni1E49" unicode="&#x1e49;" horiz-adv-x="619" 
d="M44 11q0 7 1 11l79 446q5 32 30 32q22 0 22 -23l-1 -9l-13 -71q47 50 104 76.5t120 26.5q82 0 124.5 -37t42.5 -109q0 -21 -5 -51l-49 -281q-6 -32 -32 -32q-20 0 -20 21q0 7 1 11l49 281q5 32 5 50q0 52 -29.5 75.5t-92.5 23.5q-93 0 -160 -54.5t-83 -142.5l-41 -233
q-6 -32 -32 -32q-20 0 -20 21zM95 -119q0 15 8.5 20.5t25.5 5.5h240q13 0 20 -3t7 -12q0 -26 -34 -26h-240q-27 0 -27 15z" />
    <glyph glyph-name="ntilde" unicode="&#xf1;" horiz-adv-x="619" 
d="M44 11q0 7 1 11l79 446q5 32 30 32q22 0 22 -23l-1 -9l-13 -71q47 50 104 76.5t120 26.5q82 0 124.5 -37t42.5 -109q0 -21 -5 -51l-49 -281q-6 -32 -32 -32q-20 0 -20 21q0 7 1 11l49 281q5 32 5 50q0 52 -29.5 75.5t-92.5 23.5q-93 0 -160 -54.5t-83 -142.5l-41 -233
q-6 -32 -32 -32q-20 0 -20 21zM216 607q0 4 4 16q12 33 40 54t60 21q24 0 40.5 -8.5t34.5 -24.5q18 -13 27.5 -18.5t22.5 -5.5q38 0 56 45q7 19 23 19q19 0 19 -15q0 -7 -3 -16q-12 -33 -40.5 -53.5t-59.5 -20.5q-21 0 -36 8t-33 23q-18 13 -29.5 19.5t-26.5 6.5
q-18 0 -33 -12t-23 -33q-7 -19 -23 -19q-20 0 -20 14z" />
    <glyph glyph-name="o" unicode="o" horiz-adv-x="638" 
d="M159 16.5q-51 26.5 -79.5 74t-28.5 109.5q0 85 40 153.5t111 107.5t160 39q67 0 118 -25.5t79 -73t28 -109.5q0 -87 -40 -156t-110.5 -107.5t-160.5 -38.5q-66 0 -117 26.5zM413.5 70.5q57.5 32.5 89.5 90.5t32 132q0 75 -47.5 117t-131.5 42q-75 0 -132.5 -31.5t-89 -89
t-31.5 -132.5q0 -76 47 -118.5t133 -42.5q73 0 130.5 32.5z" />
    <glyph glyph-name="oacute" unicode="&#xf3;" horiz-adv-x="638" 
d="M159 16.5q-51 26.5 -79.5 74t-28.5 109.5q0 85 40 153.5t111 107.5t160 39q67 0 118 -25.5t79 -73t28 -109.5q0 -87 -40 -156t-110.5 -107.5t-160.5 -38.5q-66 0 -117 26.5zM413.5 70.5q57.5 32.5 89.5 90.5t32 132q0 75 -47.5 117t-131.5 42q-75 0 -132.5 -31.5t-89 -89
t-31.5 -132.5q0 -76 47 -118.5t133 -42.5q73 0 130.5 32.5zM360 596q0 7 5 15l88 139q16 24 30 24q6 0 13 -4q12 -7 12 -17q0 -8 -9 -20l-102 -137q-11 -14 -22 -14q-2 0 -8 2q-7 3 -7 12z" />
    <glyph glyph-name="obreve" unicode="&#x14f;" horiz-adv-x="638" 
d="M159 16.5q-51 26.5 -79.5 74t-28.5 109.5q0 85 40 153.5t111 107.5t160 39q67 0 118 -25.5t79 -73t28 -109.5q0 -87 -40 -156t-110.5 -107.5t-160.5 -38.5q-66 0 -117 26.5zM413.5 70.5q57.5 32.5 89.5 90.5t32 132q0 75 -47.5 117t-131.5 42q-75 0 -132.5 -31.5t-89 -89
t-31.5 -132.5q0 -76 47 -118.5t133 -42.5q73 0 130.5 32.5zM290.5 614q-30.5 32 -30.5 80q0 59 32 59q20 0 20 -20q0 -54 4.5 -75.5t18.5 -28t50 -6.5q47 0 74 26.5t35 71.5q6 32 30 32q20 0 20 -20q0 -38 -24 -73t-62.5 -56.5t-79.5 -21.5q-57 0 -87.5 32z" />
    <glyph glyph-name="uni01D2" unicode="&#x1d2;" horiz-adv-x="638" 
d="M159 16.5q-51 26.5 -79.5 74t-28.5 109.5q0 85 40 153.5t111 107.5t160 39q67 0 118 -25.5t79 -73t28 -109.5q0 -87 -40 -156t-110.5 -107.5t-160.5 -38.5q-66 0 -117 26.5zM413.5 70.5q57.5 32.5 89.5 90.5t32 132q0 75 -47.5 117t-131.5 42q-75 0 -132.5 -31.5t-89 -89
t-31.5 -132.5q0 -76 47 -118.5t133 -42.5q73 0 130.5 32.5zM356 596l-84 126q-5 8 -5 15q0 12 16 22q6 5 15 5q12 0 21 -16l68 -117l109 117q15 17 29 17q5 0 12 -5q8 -7 8 -16q0 -11 -11 -22l-128 -126q-13 -15 -28 -15q-12 0 -22 15z" />
    <glyph glyph-name="ocircumflex" unicode="&#xf4;" horiz-adv-x="638" 
d="M159 16.5q-51 26.5 -79.5 74t-28.5 109.5q0 85 40 153.5t111 107.5t160 39q67 0 118 -25.5t79 -73t28 -109.5q0 -87 -40 -156t-110.5 -107.5t-160.5 -38.5q-66 0 -117 26.5zM413.5 70.5q57.5 32.5 89.5 90.5t32 132q0 75 -47.5 117t-131.5 42q-75 0 -132.5 -31.5t-89 -89
t-31.5 -132.5q0 -76 47 -118.5t133 -42.5q73 0 130.5 32.5zM243 602q0 10 12 22l128 126q15 15 28 15q12 0 22 -15l83 -126q5 -8 5 -15q0 -13 -15 -22q-7 -5 -16 -5q-12 0 -21 16l-67 117l-109 -117q-14 -17 -28 -17q-8 0 -13 5q-9 8 -9 16z" />
    <glyph glyph-name="uni1ED1" unicode="&#x1ed1;" horiz-adv-x="638" 
d="M159 16.5q-51 26.5 -79.5 74t-28.5 109.5q0 85 40 153.5t111 107.5t160 39q67 0 118 -25.5t79 -73t28 -109.5q0 -87 -40 -156t-110.5 -107.5t-160.5 -38.5q-66 0 -117 26.5zM413.5 70.5q57.5 32.5 89.5 90.5t32 132q0 75 -47.5 117t-131.5 42q-75 0 -132.5 -31.5t-89 -89
t-31.5 -132.5q0 -76 47 -118.5t133 -42.5q73 0 130.5 32.5zM489 724q0 8 7 17l78 101q16 19 29 19q4 0 12 -4q12 -7 12 -16q0 -10 -11 -21l-91 -98q-10 -12 -20 -12q-4 0 -9 3q-7 4 -7 11zM243 603q0 11 12 21l125 109q17 15 27 15q7 0 12 -3.5t11 -11.5l86 -108q5 -6 5 -15
q0 -14 -15 -23q-8 -5 -14 -5q-11 0 -23 17l-70 99l-106 -100q-16 -16 -28 -16q-6 0 -13 5q-9 8 -9 16z" />
    <glyph glyph-name="uni1ED9" unicode="&#x1ed9;" horiz-adv-x="638" 
d="M159 16.5q-51 26.5 -79.5 74t-28.5 109.5q0 85 40 153.5t111 107.5t160 39q67 0 118 -25.5t79 -73t28 -109.5q0 -87 -40 -156t-110.5 -107.5t-160.5 -38.5q-66 0 -117 26.5zM413.5 70.5q57.5 32.5 89.5 90.5t32 132q0 75 -47.5 117t-131.5 42q-75 0 -132.5 -31.5t-89 -89
t-31.5 -132.5q0 -76 47 -118.5t133 -42.5q73 0 130.5 32.5zM221.5 -145.5q-10.5 10.5 -10.5 25.5q0 18 16 33.5t35 15.5q14 0 24.5 -10.5t10.5 -25.5q0 -18 -15.5 -33.5t-34.5 -15.5q-15 0 -25.5 10.5zM243 602q0 10 12 22l128 126q15 15 28 15q12 0 22 -15l83 -126
q5 -8 5 -15q0 -13 -15 -22q-7 -5 -16 -5q-12 0 -21 16l-67 117l-109 -117q-14 -17 -28 -17q-8 0 -13 5q-9 8 -9 16z" />
    <glyph glyph-name="uni1ED3" unicode="&#x1ed3;" horiz-adv-x="638" 
d="M159 16.5q-51 26.5 -79.5 74t-28.5 109.5q0 85 40 153.5t111 107.5t160 39q67 0 118 -25.5t79 -73t28 -109.5q0 -87 -40 -156t-110.5 -107.5t-160.5 -38.5q-66 0 -117 26.5zM413.5 70.5q57.5 32.5 89.5 90.5t32 132q0 75 -47.5 117t-131.5 42q-75 0 -132.5 -31.5t-89 -89
t-31.5 -132.5q0 -76 47 -118.5t133 -42.5q73 0 130.5 32.5zM544 710q-9 0 -15 12l-57 98q-4 8 -4 14q0 14 18 23q10 4 14 4q14 0 22 -19l42 -101q2 -6 2 -11q0 -10 -12 -17q-6 -3 -10 -3zM243 603q0 11 12 21l125 109q17 15 27 15q8 0 12.5 -3t10.5 -11l87 -109q5 -7 5 -14
q0 -13 -16 -24q-8 -5 -14 -5q-11 0 -23 17l-70 99l-106 -100q-16 -16 -28 -16q-6 0 -13 5q-9 8 -9 16z" />
    <glyph glyph-name="uni1ED5" unicode="&#x1ed5;" horiz-adv-x="638" 
d="M159 16.5q-51 26.5 -79.5 74t-28.5 109.5q0 85 40 153.5t111 107.5t160 39q67 0 118 -25.5t79 -73t28 -109.5q0 -87 -40 -156t-110.5 -107.5t-160.5 -38.5q-66 0 -117 26.5zM413.5 70.5q57.5 32.5 89.5 90.5t32 132q0 75 -47.5 117t-131.5 42q-75 0 -132.5 -31.5t-89 -89
t-31.5 -132.5q0 -76 47 -118.5t133 -42.5q73 0 130.5 32.5zM476 722q0 5 1 8l2 8q4 15 14.5 25.5t29.5 24.5q19 13 28.5 23.5t9.5 24.5q0 26 -35 26q-19 0 -31.5 -5.5t-22.5 -16.5q-10 -13 -19 -13q-5 0 -9 3q-10 5 -10 13q0 7 6 14q15 19 38.5 31t54.5 12q36 0 53 -15.5
t17 -40.5q0 -27 -12 -41.5t-35 -28.5q-16 -11 -23.5 -18.5t-9.5 -18.5l-1 -7q-2 -12 -8 -17.5t-19 -5.5q-19 0 -19 15zM243 603q0 11 12 21l125 109q17 15 27 15q8 0 12.5 -3t10.5 -11l87 -109q5 -7 5 -14q0 -13 -16 -24q-8 -5 -14 -5q-11 0 -23 17l-70 99l-106 -100
q-16 -16 -28 -16q-6 0 -13 5q-9 8 -9 16z" />
    <glyph glyph-name="uni1ED7" unicode="&#x1ed7;" horiz-adv-x="638" 
d="M159 16.5q-51 26.5 -79.5 74t-28.5 109.5q0 85 40 153.5t111 107.5t160 39q67 0 118 -25.5t79 -73t28 -109.5q0 -87 -40 -156t-110.5 -107.5t-160.5 -38.5q-66 0 -117 26.5zM413.5 70.5q57.5 32.5 89.5 90.5t32 132q0 75 -47.5 117t-131.5 42q-75 0 -132.5 -31.5t-89 -89
t-31.5 -132.5q0 -76 47 -118.5t133 -42.5q73 0 130.5 32.5zM274.5 769.5q-3.5 3.5 -3.5 10.5l2 13q10 32 37 52.5t59 20.5q22 0 37 -8t35 -23q14 -12 24 -18t23 -6q36 0 54 43q7 18 21 18q19 0 19 -14q0 -5 -3 -14q-9 -31 -37 -51.5t-59 -20.5q-20 0 -33.5 7t-32.5 22
q-15 13 -26.5 19.5t-26.5 6.5q-17 0 -31 -11.5t-22 -30.5q-7 -19 -22 -19q-11 0 -14.5 3.5zM243 604q0 11 12 21l125 109q9 8 14.5 11.5t12.5 3.5q15 0 23 -15l86 -109q5 -6 5 -15q0 -12 -15 -23q-8 -5 -14 -5q-11 0 -23 17l-70 100l-106 -100q-16 -16 -28 -16q-6 0 -13 5
q-9 8 -9 16z" />
    <glyph glyph-name="odieresis" unicode="&#xf6;" horiz-adv-x="638" 
d="M159 16.5q-51 26.5 -79.5 74t-28.5 109.5q0 85 40 153.5t111 107.5t160 39q67 0 118 -25.5t79 -73t28 -109.5q0 -87 -40 -156t-110.5 -107.5t-160.5 -38.5q-66 0 -117 26.5zM413.5 70.5q57.5 32.5 89.5 90.5t32 132q0 75 -47.5 117t-131.5 42q-75 0 -132.5 -31.5t-89 -89
t-31.5 -132.5q0 -76 47 -118.5t133 -42.5q73 0 130.5 32.5zM259.5 612.5q-10.5 10.5 -10.5 25.5q0 18 16 33.5t35 15.5q14 0 24.5 -10.5t10.5 -25.5q0 -18 -15.5 -33.5t-34.5 -15.5q-15 0 -25.5 10.5zM455.5 612.5q-10.5 10.5 -10.5 25.5q0 18 16 33.5t35 15.5
q14 0 24.5 -10.5t10.5 -25.5q0 -18 -15.5 -33.5t-34.5 -15.5q-15 0 -25.5 10.5z" />
    <glyph glyph-name="uni1ECD" unicode="&#x1ecd;" horiz-adv-x="638" 
d="M159 16.5q-51 26.5 -79.5 74t-28.5 109.5q0 85 40 153.5t111 107.5t160 39q67 0 118 -25.5t79 -73t28 -109.5q0 -87 -40 -156t-110.5 -107.5t-160.5 -38.5q-66 0 -117 26.5zM413.5 70.5q57.5 32.5 89.5 90.5t32 132q0 75 -47.5 117t-131.5 42q-75 0 -132.5 -31.5t-89 -89
t-31.5 -132.5q0 -76 47 -118.5t133 -42.5q73 0 130.5 32.5zM221.5 -145.5q-10.5 10.5 -10.5 25.5q0 18 16 33.5t35 15.5q14 0 24.5 -10.5t10.5 -25.5q0 -18 -15.5 -33.5t-34.5 -15.5q-15 0 -25.5 10.5z" />
    <glyph glyph-name="ograve" unicode="&#xf2;" horiz-adv-x="638" 
d="M159 16.5q-51 26.5 -79.5 74t-28.5 109.5q0 85 40 153.5t111 107.5t160 39q67 0 118 -25.5t79 -73t28 -109.5q0 -87 -40 -156t-110.5 -107.5t-160.5 -38.5q-66 0 -117 26.5zM413.5 70.5q57.5 32.5 89.5 90.5t32 132q0 75 -47.5 117t-131.5 42q-75 0 -132.5 -31.5t-89 -89
t-31.5 -132.5q0 -76 47 -118.5t133 -42.5q73 0 130.5 32.5zM380 582q-11 0 -17 14l-53 137q-3 8 -3 14q0 14 19 23q8 4 14 4q15 0 21 -24l40 -139q1 -2 1 -8q0 -14 -13 -19q-6 -2 -9 -2z" />
    <glyph glyph-name="uni1ECF" unicode="&#x1ecf;" horiz-adv-x="638" 
d="M159 16.5q-51 26.5 -79.5 74t-28.5 109.5q0 85 40 153.5t111 107.5t160 39q67 0 118 -25.5t79 -73t28 -109.5q0 -87 -40 -156t-110.5 -107.5t-160.5 -38.5q-66 0 -117 26.5zM413.5 70.5q57.5 32.5 89.5 90.5t32 132q0 75 -47.5 117t-131.5 42q-75 0 -132.5 -31.5t-89 -89
t-31.5 -132.5q0 -76 47 -118.5t133 -42.5q73 0 130.5 32.5zM351 566q0 6 1 9l2 9q3 17 15 28.5t33 25.5q21 15 31 26t10 26q0 28 -37 28q-40 0 -63 -27q-12 -15 -21 -15t-14 5t-5 12q0 9 5 15q16 21 44.5 36t60.5 15q38 0 57 -17t19 -44q0 -28 -13 -43.5t-37 -31.5
q-17 -11 -25.5 -19t-8.5 -21v-8q-5 -13 -12.5 -19t-20.5 -6q-21 0 -21 16z" />
    <glyph glyph-name="ohorn" unicode="&#x1a1;" horiz-adv-x="638" 
d="M706.5 443q-21.5 -34 -56.5 -56t-74 -24q11 -35 11 -71q0 -87 -40 -156t-110.5 -107.5t-160.5 -38.5q-66 0 -117 26.5t-79.5 74t-28.5 109.5q0 85 40 153.5t111 107.5t160 39q66 0 116.5 -25t78.5 -70l24 3q40 4 64 28.5t31 65.5q5 32 32 32q20 0 20 -21q0 -36 -21.5 -70
zM413.5 70.5q57.5 32.5 89.5 90.5t32 132q0 75 -47.5 117t-131.5 42q-75 0 -132.5 -31.5t-89 -89t-31.5 -132.5q0 -76 47 -118.5t133 -42.5q73 0 130.5 32.5z" />
    <glyph glyph-name="uni1EDB" unicode="&#x1edb;" horiz-adv-x="638" 
d="M706.5 443q-21.5 -34 -56.5 -56t-74 -24q11 -35 11 -71q0 -87 -40 -156t-110.5 -107.5t-160.5 -38.5q-66 0 -117 26.5t-79.5 74t-28.5 109.5q0 85 40 153.5t111 107.5t160 39q66 0 116.5 -25t78.5 -70l24 3q40 4 64 28.5t31 65.5q5 32 32 32q20 0 20 -21q0 -36 -21.5 -70
zM413.5 70.5q57.5 32.5 89.5 90.5t32 132q0 75 -47.5 117t-131.5 42q-75 0 -132.5 -31.5t-89 -89t-31.5 -132.5q0 -76 47 -118.5t133 -42.5q73 0 130.5 32.5zM351 576q0 7 5 15l88 139q16 24 30 24q6 0 13 -4q12 -7 12 -17q0 -8 -9 -20l-102 -137q-11 -14 -22 -14q-2 0 -8 2
q-7 3 -7 12z" />
    <glyph glyph-name="uni1EE3" unicode="&#x1ee3;" horiz-adv-x="638" 
d="M706.5 443q-21.5 -34 -56.5 -56t-74 -24q11 -35 11 -71q0 -87 -40 -156t-110.5 -107.5t-160.5 -38.5q-66 0 -117 26.5t-79.5 74t-28.5 109.5q0 85 40 153.5t111 107.5t160 39q66 0 116.5 -25t78.5 -70l24 3q40 4 64 28.5t31 65.5q5 32 32 32q20 0 20 -21q0 -36 -21.5 -70
zM413.5 70.5q57.5 32.5 89.5 90.5t32 132q0 75 -47.5 117t-131.5 42q-75 0 -132.5 -31.5t-89 -89t-31.5 -132.5q0 -76 47 -118.5t133 -42.5q73 0 130.5 32.5zM216.5 -145.5q-10.5 10.5 -10.5 25.5q0 18 16 33.5t35 15.5q14 0 24.5 -10.5t10.5 -25.5q0 -18 -15.5 -33.5
t-34.5 -15.5q-15 0 -25.5 10.5z" />
    <glyph glyph-name="uni1EDD" unicode="&#x1edd;" horiz-adv-x="638" 
d="M706.5 443q-21.5 -34 -56.5 -56t-74 -24q11 -35 11 -71q0 -87 -40 -156t-110.5 -107.5t-160.5 -38.5q-66 0 -117 26.5t-79.5 74t-28.5 109.5q0 85 40 153.5t111 107.5t160 39q66 0 116.5 -25t78.5 -70l24 3q40 4 64 28.5t31 65.5q5 32 32 32q20 0 20 -21q0 -36 -21.5 -70
zM413.5 70.5q57.5 32.5 89.5 90.5t32 132q0 75 -47.5 117t-131.5 42q-75 0 -132.5 -31.5t-89 -89t-31.5 -132.5q0 -76 47 -118.5t133 -42.5q73 0 130.5 32.5zM371 562q-11 0 -17 14l-53 137q-3 8 -3 14q0 14 19 23q8 4 14 4q15 0 21 -24l40 -139q1 -2 1 -8q0 -14 -13 -19
q-6 -2 -9 -2z" />
    <glyph glyph-name="uni1EDF" unicode="&#x1edf;" horiz-adv-x="638" 
d="M706.5 443q-21.5 -34 -56.5 -56t-74 -24q11 -35 11 -71q0 -87 -40 -156t-110.5 -107.5t-160.5 -38.5q-66 0 -117 26.5t-79.5 74t-28.5 109.5q0 85 40 153.5t111 107.5t160 39q66 0 116.5 -25t78.5 -70l24 3q40 4 64 28.5t31 65.5q5 32 32 32q20 0 20 -21q0 -36 -21.5 -70
zM413.5 70.5q57.5 32.5 89.5 90.5t32 132q0 75 -47.5 117t-131.5 42q-75 0 -132.5 -31.5t-89 -89t-31.5 -132.5q0 -76 47 -118.5t133 -42.5q73 0 130.5 32.5zM342 546q0 6 1 9l2 9q3 17 15 28.5t33 25.5q21 15 31 26t10 26q0 28 -37 28q-40 0 -63 -27q-12 -15 -21 -15t-14 5
t-5 12q0 9 5 15q16 21 44.5 36t60.5 15q38 0 57 -17t19 -44q0 -28 -13 -43.5t-37 -31.5q-17 -11 -25.5 -19t-8.5 -21v-8q-5 -13 -12.5 -19t-20.5 -6q-21 0 -21 16z" />
    <glyph glyph-name="uni1EE1" unicode="&#x1ee1;" horiz-adv-x="638" 
d="M706.5 443q-21.5 -34 -56.5 -56t-74 -24q11 -35 11 -71q0 -87 -40 -156t-110.5 -107.5t-160.5 -38.5q-66 0 -117 26.5t-79.5 74t-28.5 109.5q0 85 40 153.5t111 107.5t160 39q66 0 116.5 -25t78.5 -70l24 3q40 4 64 28.5t31 65.5q5 32 32 32q20 0 20 -21q0 -36 -21.5 -70
zM413.5 70.5q57.5 32.5 89.5 90.5t32 132q0 75 -47.5 117t-131.5 42q-75 0 -132.5 -31.5t-89 -89t-31.5 -132.5q0 -76 47 -118.5t133 -42.5q73 0 130.5 32.5zM218 597q0 4 4 16q12 33 40 54t60 21q24 0 40.5 -8.5t34.5 -24.5q17 -13 27 -18.5t23 -5.5q38 0 56 45q7 19 23 19
q19 0 19 -15q0 -7 -3 -16q-12 -33 -40.5 -53.5t-59.5 -20.5q-21 0 -36 8t-33 23q-18 13 -29.5 19.5t-26.5 6.5q-18 0 -33 -12t-23 -33q-7 -19 -23 -19q-20 0 -20 14z" />
    <glyph glyph-name="ohungarumlaut" unicode="&#x151;" horiz-adv-x="638" 
d="M159 16.5q-51 26.5 -79.5 74t-28.5 109.5q0 85 40 153.5t111 107.5t160 39q67 0 118 -25.5t79 -73t28 -109.5q0 -87 -40 -156t-110.5 -107.5t-160.5 -38.5q-66 0 -117 26.5zM413.5 70.5q57.5 32.5 89.5 90.5t32 132q0 75 -47.5 117t-131.5 42q-75 0 -132.5 -31.5t-89 -89
t-31.5 -132.5q0 -76 47 -118.5t133 -42.5q73 0 130.5 32.5zM268 588q0 7 7 16l120 149q9 11 15.5 16t13.5 5q6 0 13 -4q14 -8 14 -18q0 -8 -9 -19l-133 -147q-17 -19 -32 -12q-9 5 -9 14zM438 588q0 7 7 16l120 149q9 11 15.5 16t13.5 5q6 0 13 -4q14 -8 14 -18q0 -8 -9 -19
l-133 -147q-17 -19 -32 -12q-9 5 -9 14z" />
    <glyph glyph-name="omacron" unicode="&#x14d;" horiz-adv-x="638" 
d="M159 16.5q-51 26.5 -79.5 74t-28.5 109.5q0 85 40 153.5t111 107.5t160 39q67 0 118 -25.5t79 -73t28 -109.5q0 -87 -40 -156t-110.5 -107.5t-160.5 -38.5q-66 0 -117 26.5zM413.5 70.5q57.5 32.5 89.5 90.5t32 132q0 75 -47.5 117t-131.5 42q-75 0 -132.5 -31.5t-89 -89
t-31.5 -132.5q0 -76 47 -118.5t133 -42.5q73 0 130.5 32.5zM232 599q0 15 8.5 20.5t25.5 5.5h240q13 0 20 -3t7 -12q0 -26 -34 -26h-240q-27 0 -27 15z" />
    <glyph glyph-name="oslash" unicode="&#xf8;" horiz-adv-x="638" 
d="M560 399q27 -49 27 -108q0 -26 -4 -46q-20 -111 -96 -183t-211 -72q-52 0 -95 16l-39 -61q-4 -6 -10.5 -10t-13.5 -4q-4 0 -8 2q-11 5 -11 17q0 7 4 12l40 63q-45 29 -68.5 75t-23.5 100q0 25 4 45q20 110 96.5 182.5t210.5 72.5q45 0 78 -10l35 55q4 6 10.5 10t13.5 4
q4 0 8 -2q11 -5 11 -17q0 -7 -4 -12l-34 -53q53 -27 80 -76zM103 198q0 -90 66 -132l243 380q-25 6 -56 6q-100 0 -166 -54t-83 -153q-4 -21 -4 -47zM536 293q0 50 -21.5 85.5t-61.5 54.5l-245 -384q35 -11 75 -11q96 0 163 54.5t85 152.5q5 28 5 48z" />
    <glyph glyph-name="oslashacute" unicode="&#x1ff;" horiz-adv-x="638" 
d="M560 399q27 -49 27 -108q0 -26 -4 -46q-20 -111 -96 -183t-211 -72q-52 0 -95 16l-39 -61q-4 -6 -10.5 -10t-13.5 -4q-4 0 -8 2q-11 5 -11 17q0 7 4 12l40 63q-45 29 -68.5 75t-23.5 100q0 25 4 45q20 110 96.5 182.5t210.5 72.5q45 0 78 -10l35 55q4 6 10.5 10t13.5 4
q4 0 8 -2q11 -5 11 -17q0 -7 -4 -12l-34 -53q53 -27 80 -76zM103 198q0 -90 66 -132l243 380q-25 6 -56 6q-100 0 -166 -54t-83 -153q-4 -21 -4 -47zM536 293q0 50 -21.5 85.5t-61.5 54.5l-245 -384q35 -11 75 -11q96 0 163 54.5t85 152.5q5 28 5 48zM356 576q0 7 5 15
l88 139q16 24 30 24q6 0 13 -4q12 -7 12 -17q0 -8 -9 -20l-102 -137q-11 -14 -22 -14q-2 0 -8 2q-7 3 -7 12z" />
    <glyph glyph-name="otilde" unicode="&#xf5;" horiz-adv-x="638" 
d="M159 16.5q-51 26.5 -79.5 74t-28.5 109.5q0 85 40 153.5t111 107.5t160 39q67 0 118 -25.5t79 -73t28 -109.5q0 -87 -40 -156t-110.5 -107.5t-160.5 -38.5q-66 0 -117 26.5zM413.5 70.5q57.5 32.5 89.5 90.5t32 132q0 75 -47.5 117t-131.5 42q-75 0 -132.5 -31.5t-89 -89
t-31.5 -132.5q0 -76 47 -118.5t133 -42.5q73 0 130.5 32.5zM225 607q0 4 4 16q12 33 40 54t60 21q24 0 40.5 -8.5t34.5 -24.5q18 -13 27.5 -18.5t22.5 -5.5q38 0 56 45q7 19 23 19q19 0 19 -15q0 -7 -3 -16q-12 -33 -40.5 -53.5t-59.5 -20.5q-21 0 -36 8t-33 23
q-18 13 -29.5 19.5t-26.5 6.5q-18 0 -33 -12t-23 -33q-7 -19 -23 -19q-20 0 -20 14z" />
    <glyph glyph-name="oe" unicode="&#x153;" horiz-adv-x="1120" 
d="M111.5 46.5q-60.5 56.5 -60.5 151.5q0 86 40.5 155t112 108t160.5 39q80 0 134 -35.5t75 -102.5q42 64 114.5 101t157.5 37q67 0 120 -22t82.5 -61t29.5 -88t-25.5 -77.5t-68.5 -28.5h-402q-4 -33 -4 -39q0 -69 49 -107t138 -38q64 0 108.5 14.5t92.5 51.5q15 14 26 14
q6 0 11 -5q8 -8 8 -16q0 -11 -10 -19q-47 -43 -109.5 -65.5t-135.5 -22.5q-83 0 -138.5 35t-77.5 101q-44 -67 -112 -102t-153 -35q-102 0 -162.5 56.5zM413.5 70.5q57.5 32.5 89.5 90.5t32 132q0 75 -47.5 117t-131.5 42q-74 0 -131.5 -32.5t-89.5 -91t-32 -132.5
q0 -76 46.5 -117t133.5 -41q73 0 130.5 32.5zM977 268q26 0 37 13.5t11 46.5q0 58 -50 91t-138 33q-96 0 -163.5 -50.5t-82.5 -133.5h386z" />
    <glyph glyph-name="p" unicode="p" horiz-adv-x="684" 
d="M-6 -277l1 10l130 735q6 32 30 32q22 0 22 -22q0 -7 -1 -10l-15 -81q47 58 107 85.5t139 27.5q109 0 168 -51.5t59 -145.5q0 -93 -39.5 -164t-111 -110t-166.5 -39q-67 0 -120 29t-85 82l-66 -368q-6 -32 -32 -32q-20 0 -20 22zM461.5 71q58.5 33 90 94t31.5 142
q0 74 -45 109.5t-139 35.5q-77 0 -138 -31.5t-95 -88t-34 -128.5q0 -76 52.5 -121t141.5 -45q77 0 135.5 33z" />
    <glyph glyph-name="thorn" unicode="&#xfe;" horiz-adv-x="684" 
d="M-6 -277l1 10l180 1024q6 32 31 32q21 0 21 -23l-1 -9l-63 -368q105 111 244 111q108 0 167.5 -52t59.5 -146q0 -91 -40 -162t-111 -110.5t-162 -39.5q-143 0 -209 111l-66 -368q-6 -32 -32 -32q-20 0 -20 22zM460.5 71q58.5 33 90.5 93.5t32 138.5q0 75 -45.5 112
t-138.5 37q-77 0 -137.5 -31.5t-94.5 -87t-34 -126.5q0 -49 24.5 -87.5t68.5 -60t100 -21.5q76 0 134.5 33z" />
    <glyph glyph-name="q" unicode="q" horiz-adv-x="685" 
d="M461.5 -290.5q-5.5 8.5 -3.5 23.5l64 368q-51 -57 -111 -84t-136 -27q-109 0 -167.5 54.5t-58.5 155.5q0 87 40.5 155.5t112.5 106.5t164 38q155 0 207 -113l15 81q6 32 31 32q21 0 21 -23l-1 -9l-130 -735q-5 -32 -30 -32q-12 0 -17.5 8.5zM414 70.5q64 32.5 101 89.5
t37 126q0 80 -50 123t-141 43q-77 0 -136 -31.5t-91.5 -88t-32.5 -130.5q0 -164 171 -164q78 0 142 32.5z" />
    <glyph glyph-name="r" unicode="r" horiz-adv-x="435" 
d="M44 11q0 7 1 11l79 446q5 32 30 32q22 0 22 -23l-1 -9l-13 -71q44 48 96.5 70.5t117.5 22.5h26q28 0 28 -19q0 -14 -9.5 -21.5t-26.5 -7.5h-26q-92 0 -153.5 -50t-77.5 -137l-41 -233q-6 -32 -32 -32q-20 0 -20 21z" />
    <glyph glyph-name="racute" unicode="&#x155;" horiz-adv-x="435" 
d="M44 11q0 7 1 11l79 446q5 32 30 32q22 0 22 -23l-1 -9l-13 -71q44 48 96.5 70.5t117.5 22.5h26q28 0 28 -19q0 -14 -9.5 -21.5t-26.5 -7.5h-26q-92 0 -153.5 -50t-77.5 -137l-41 -233q-6 -32 -32 -32q-20 0 -20 21zM280 596q0 7 5 15l88 139q16 24 30 24q6 0 13 -4
q12 -7 12 -17q0 -8 -9 -20l-102 -137q-11 -14 -22 -14q-2 0 -8 2q-7 3 -7 12z" />
    <glyph glyph-name="rcaron" unicode="&#x159;" horiz-adv-x="435" 
d="M44 11q0 7 1 11l79 446q5 32 30 32q22 0 22 -23l-1 -9l-13 -71q44 48 96.5 70.5t117.5 22.5h26q28 0 28 -19q0 -14 -9.5 -21.5t-26.5 -7.5h-26q-92 0 -153.5 -50t-77.5 -137l-41 -233q-6 -32 -32 -32q-20 0 -20 21zM276 596l-84 126q-5 8 -5 15q0 12 16 22q6 5 15 5
q12 0 21 -16l68 -117l109 117q15 17 29 17q5 0 12 -5q8 -7 8 -16q0 -11 -11 -22l-128 -126q-13 -15 -28 -15q-12 0 -22 15z" />
    <glyph glyph-name="uni0157" unicode="&#x157;" horiz-adv-x="435" 
d="M44 11q0 7 1 11l79 446q5 32 30 32q22 0 22 -23l-1 -9l-13 -71q44 48 96.5 70.5t117.5 22.5h26q28 0 28 -19q0 -14 -9.5 -21.5t-26.5 -7.5h-26q-92 0 -153.5 -50t-77.5 -137l-41 -233q-6 -32 -32 -32q-20 0 -20 21zM-51 -274q0 10 19 23q67 45 75 85q-9 -3 -17 -3
q-17 0 -29 11t-12 27q0 26 18.5 43t46.5 17q21 0 33 -13t12 -37q0 -38 -27 -78.5t-74 -73.5q-11 -8 -19.5 -13t-13.5 -5q-4 0 -9 7q-3 6 -3 10z" />
    <glyph glyph-name="uni1E5B" unicode="&#x1e5b;" horiz-adv-x="435" 
d="M44 11q0 7 1 11l79 446q5 32 30 32q22 0 22 -23l-1 -9l-13 -71q44 48 96.5 70.5t117.5 22.5h26q28 0 28 -19q0 -14 -9.5 -21.5t-26.5 -7.5h-26q-92 0 -153.5 -50t-77.5 -137l-41 -233q-6 -32 -32 -32q-20 0 -20 21zM14.5 -145.5q-10.5 10.5 -10.5 25.5q0 18 16 33.5
t35 15.5q14 0 24.5 -10.5t10.5 -25.5q0 -18 -15.5 -33.5t-34.5 -15.5q-15 0 -25.5 10.5z" />
    <glyph glyph-name="uni1E5D" unicode="&#x1e5d;" horiz-adv-x="435" 
d="M44 11q0 7 1 11l79 446q5 32 30 32q22 0 22 -23l-1 -9l-13 -71q44 48 96.5 70.5t117.5 22.5h26q28 0 28 -19q0 -14 -9.5 -21.5t-26.5 -7.5h-26q-92 0 -153.5 -50t-77.5 -137l-41 -233q-6 -32 -32 -32q-20 0 -20 21zM14.5 -145.5q-10.5 10.5 -10.5 25.5q0 18 16 33.5
t35 15.5q14 0 24.5 -10.5t10.5 -25.5q0 -18 -15.5 -33.5t-34.5 -15.5q-15 0 -25.5 10.5zM152 599q0 15 8.5 20.5t25.5 5.5h240q13 0 20 -3t7 -12q0 -26 -34 -26h-240q-27 0 -27 15z" />
    <glyph glyph-name="uni1E5F" unicode="&#x1e5f;" horiz-adv-x="435" 
d="M44 11q0 7 1 11l79 446q5 32 30 32q22 0 22 -23l-1 -9l-13 -71q44 48 96.5 70.5t117.5 22.5h26q28 0 28 -19q0 -14 -9.5 -21.5t-26.5 -7.5h-26q-92 0 -153.5 -50t-77.5 -137l-41 -233q-6 -32 -32 -32q-20 0 -20 21zM-103 -119q0 15 8.5 20.5t25.5 5.5h240q13 0 20 -3
t7 -12q0 -26 -34 -26h-240q-27 0 -27 15z" />
    <glyph glyph-name="s" unicode="s" horiz-adv-x="520" 
d="M120 19q-56 28 -85 75q-4 5 -4 13q0 14 16 21q7 4 13 4q11 0 25 -17q59 -75 161 -75q69 0 108 24t39 67q0 21 -10.5 34t-39.5 27t-94 38q-73 27 -108.5 60.5t-35.5 76.5q0 60 54.5 96.5t141.5 36.5q51 0 104 -22t75 -55q4 -8 4 -12q0 -15 -17 -24q-10 -4 -15 -4
q-11 0 -20 12q-45 56 -139 56q-61 0 -97 -22t-36 -62q0 -29 24.5 -49t94.5 -44q92 -32 129 -63t37 -75q0 -68 -54.5 -106.5t-150.5 -38.5q-64 0 -120 28z" />
    <glyph glyph-name="sacute" unicode="&#x15b;" horiz-adv-x="520" 
d="M120 19q-56 28 -85 75q-4 5 -4 13q0 14 16 21q7 4 13 4q11 0 25 -17q59 -75 161 -75q69 0 108 24t39 67q0 21 -10.5 34t-39.5 27t-94 38q-73 27 -108.5 60.5t-35.5 76.5q0 60 54.5 96.5t141.5 36.5q51 0 104 -22t75 -55q4 -8 4 -12q0 -15 -17 -24q-10 -4 -15 -4
q-11 0 -20 12q-45 56 -139 56q-61 0 -97 -22t-36 -62q0 -29 24.5 -49t94.5 -44q92 -32 129 -63t37 -75q0 -68 -54.5 -106.5t-150.5 -38.5q-64 0 -120 28zM304 596q0 7 5 15l88 139q16 24 30 24q6 0 13 -4q12 -7 12 -17q0 -8 -9 -20l-102 -137q-11 -14 -22 -14q-2 0 -8 2
q-7 3 -7 12z" />
    <glyph glyph-name="scaron" unicode="&#x161;" horiz-adv-x="520" 
d="M120 19q-56 28 -85 75q-4 5 -4 13q0 14 16 21q7 4 13 4q11 0 25 -17q59 -75 161 -75q69 0 108 24t39 67q0 21 -10.5 34t-39.5 27t-94 38q-73 27 -108.5 60.5t-35.5 76.5q0 60 54.5 96.5t141.5 36.5q51 0 104 -22t75 -55q4 -8 4 -12q0 -15 -17 -24q-10 -4 -15 -4
q-11 0 -20 12q-45 56 -139 56q-61 0 -97 -22t-36 -62q0 -29 24.5 -49t94.5 -44q92 -32 129 -63t37 -75q0 -68 -54.5 -106.5t-150.5 -38.5q-64 0 -120 28zM300 596l-84 126q-5 8 -5 15q0 12 16 22q6 5 15 5q12 0 21 -16l68 -117l109 117q15 17 29 17q5 0 12 -5q8 -7 8 -16
q0 -11 -11 -22l-128 -126q-13 -15 -28 -15q-12 0 -22 15z" />
    <glyph glyph-name="scedilla" unicode="&#x15f;" horiz-adv-x="520" 
d="M484 411q0 -15 -17 -24q-10 -4 -15 -4q-11 0 -20 12q-45 56 -139 56q-61 0 -97 -22t-36 -62q0 -29 24.5 -49t94.5 -44q92 -32 129 -63t37 -75q0 -64 -49 -102t-135 -42q0 -2 -2 -4l-33 -48q35 1 52 -13.5t17 -39.5q0 -41 -30.5 -68t-76.5 -27q-31 0 -53.5 14t-32.5 33
q-3 6 -3 12q0 9 11 17q8 5 13 5q9 0 14 -10q16 -31 58 -31q25 0 40 14t15 37q0 29 -32 29q-8 0 -13 -1q-12 -2 -19.5 3t-7.5 14q0 6 5 14l32 50q-57 5 -105.5 32.5t-74.5 69.5q-4 5 -4 13q0 14 16 21q7 4 13 4q11 0 25 -17q59 -75 161 -75q69 0 108 24t39 67q0 21 -10.5 34
t-39.5 27t-94 38q-73 27 -108.5 60.5t-35.5 76.5q0 60 54.5 96.5t141.5 36.5q51 0 104 -22t75 -55q4 -8 4 -12z" />
    <glyph glyph-name="scircumflex" unicode="&#x15d;" horiz-adv-x="520" 
d="M120 19q-56 28 -85 75q-4 5 -4 13q0 14 16 21q7 4 13 4q11 0 25 -17q59 -75 161 -75q69 0 108 24t39 67q0 21 -10.5 34t-39.5 27t-94 38q-73 27 -108.5 60.5t-35.5 76.5q0 60 54.5 96.5t141.5 36.5q51 0 104 -22t75 -55q4 -8 4 -12q0 -15 -17 -24q-10 -4 -15 -4
q-11 0 -20 12q-45 56 -139 56q-61 0 -97 -22t-36 -62q0 -29 24.5 -49t94.5 -44q92 -32 129 -63t37 -75q0 -68 -54.5 -106.5t-150.5 -38.5q-64 0 -120 28zM187 602q0 10 12 22l128 126q15 15 28 15q12 0 22 -15l83 -126q5 -8 5 -15q0 -13 -15 -22q-7 -5 -16 -5q-12 0 -21 16
l-67 117l-109 -117q-14 -17 -28 -17q-8 0 -13 5q-9 8 -9 16z" />
    <glyph glyph-name="uni0219" unicode="&#x219;" horiz-adv-x="520" 
d="M120 19q-56 28 -85 75q-4 5 -4 13q0 14 16 21q7 4 13 4q11 0 25 -17q59 -75 161 -75q69 0 108 24t39 67q0 21 -10.5 34t-39.5 27t-94 38q-73 27 -108.5 60.5t-35.5 76.5q0 60 54.5 96.5t141.5 36.5q51 0 104 -22t75 -55q4 -8 4 -12q0 -15 -17 -24q-10 -4 -15 -4
q-11 0 -20 12q-45 56 -139 56q-61 0 -97 -22t-36 -62q0 -29 24.5 -49t94.5 -44q92 -32 129 -63t37 -75q0 -68 -54.5 -106.5t-150.5 -38.5q-64 0 -120 28zM117 -274q0 10 19 23q67 45 75 85q-9 -3 -17 -3q-17 0 -29 11t-12 27q0 26 18.5 43t46.5 17q21 0 33 -13t12 -37
q0 -38 -27 -78.5t-74 -73.5q-11 -8 -19.5 -13t-13.5 -5q-4 0 -9 7q-3 6 -3 10z" />
    <glyph glyph-name="uni1E61" unicode="&#x1e61;" horiz-adv-x="520" 
d="M120 19q-56 28 -85 75q-4 5 -4 13q0 14 16 21q7 4 13 4q11 0 25 -17q59 -75 161 -75q69 0 108 24t39 67q0 21 -10.5 34t-39.5 27t-94 38q-73 27 -108.5 60.5t-35.5 76.5q0 60 54.5 96.5t141.5 36.5q51 0 104 -22t75 -55q4 -8 4 -12q0 -15 -17 -24q-10 -4 -15 -4
q-11 0 -20 12q-45 56 -139 56q-61 0 -97 -22t-36 -62q0 -29 24.5 -49t94.5 -44q92 -32 129 -63t37 -75q0 -68 -54.5 -106.5t-150.5 -38.5q-64 0 -120 28zM300.5 612.5q-10.5 10.5 -10.5 25.5q0 18 16 33.5t35 15.5q14 0 24.5 -10.5t10.5 -25.5q0 -18 -15.5 -33.5
t-34.5 -15.5q-15 0 -25.5 10.5z" />
    </font>
</defs>
</svg>
